<?xml version="1.0" encoding="utf-8"?>
<!-- Generator: Adobe Illustrator 16.0.0, SVG Export Plug-In . SVG Version: 6.00 Build 0)  -->
<!DOCTYPE svg PUBLIC "-//W3C//DTD SVG 1.1//EN" "http://www.w3.org/Graphics/SVG/1.1/DTD/svg11.dtd">
<svg version="1.1" id="Layer_1" xmlns="http://www.w3.org/2000/svg" xmlns:xlink="http://www.w3.org/1999/xlink" x="0px" y="0px"
	 width="250px" height="250px" viewBox="0 0 250 250" enable-background="new 0 0 250 250" xml:space="preserve">
<g>
	<g>
		<g opacity="0.2">
			<polygon points="171.193,60.127 163.85,60.127 163.85,35.646 182.079,35.646 182.079,42.991 171.193,42.991 			"/>
		</g>
		<g>
			<polygon fill="#4E017B" points="174.865,60.127 167.521,60.127 167.521,35.646 185.751,35.646 185.751,42.991 174.865,42.991 			
				"/>
		</g>
		<g opacity="0.2">
			<polygon points="180.987,179.471 180.987,172.127 205.467,172.127 205.467,190.356 198.123,190.356 198.123,179.471 			"/>
		</g>
		<g>
			<polygon fill="#4E017B" points="184.659,179.471 184.659,172.127 209.14,172.127 209.14,190.356 201.795,190.356 
				201.795,179.471 			"/>
		</g>
		<g opacity="0.2">
			<polygon fill="#4E017B" points="75.718,74.815 83.063,74.815 83.063,50.335 64.831,50.335 64.831,57.679 75.718,57.679 			"/>
		</g>
		<g>
			<polygon fill="#4E017B" points="79.39,74.815 86.734,74.815 86.734,50.335 68.503,50.335 68.503,57.679 79.39,57.679 			"/>
		</g>
	</g>
	<g>
		<path fill="#EBBA16" d="M46.341,139.077c0,40.556,32.878,73.443,73.442,73.443s73.443-32.888,73.443-73.443H46.341"/>
		<path opacity="0.2" d="M116.111,216.192c-42.521,0-77.114-34.593-77.114-77.115v-3.672h154.229v3.672
			C193.227,181.6,158.633,216.192,116.111,216.192z M46.436,142.75c1.919,36.77,32.436,66.098,69.675,66.098
			s67.757-29.328,69.676-66.098H46.436z"/>
		<path fill="#4E017B" d="M119.784,216.192c-42.521,0-77.115-34.593-77.115-77.115v-3.672h154.229v3.672
			C196.898,181.6,162.306,216.192,119.784,216.192z M50.108,142.75c1.918,36.77,32.436,66.098,69.675,66.098
			c37.24,0,67.757-29.328,69.675-66.098H50.108z"/>
	</g>
	<g>
		<path fill="#7383BF" d="M68.614,191.761c-13.738-13.348-22.273-32.021-22.273-52.684c0-40.56,32.878-73.442,73.442-73.442v74.361
			L68.614,191.761z"/>
		<path opacity="0.2" d="M64.994,196.932l-2.611-2.537c-15.081-14.652-23.386-34.297-23.386-55.317
			c0-42.521,34.593-77.114,77.114-77.114h3.672v79.541L64.994,196.932z M112.439,69.402c-36.77,1.918-66.098,32.436-66.098,69.675
			c0,17.8,6.584,34.511,18.613,47.447l47.485-48.037V69.402z"/>
		<path fill="#4E017B" d="M68.666,196.932l-2.61-2.537c-15.081-14.652-23.387-34.297-23.387-55.317
			c0-42.521,34.593-77.114,77.115-77.114h3.672v79.541L68.666,196.932z M116.111,69.402c-36.77,1.918-66.098,32.436-66.098,69.675
			c0,17.8,6.584,34.511,18.614,47.447l47.484-48.037V69.402z"/>
	</g>
	<g>
		<path fill="#DD342F" d="M207.915,124.389c0-40.56-32.879-73.442-73.442-73.442v73.442H207.915z"/>
		<path opacity="0.2" d="M207.915,128.062h-80.787V47.274h3.672c42.522,0,77.115,34.593,77.115,77.115V128.062z M134.473,120.717
			h66.003c-1.854-35.552-30.451-64.149-66.003-66.003V120.717z"/>
		<path fill="#4E017B" d="M211.587,128.062H130.8V47.274h3.673c42.521,0,77.114,34.593,77.114,77.115V128.062z M138.145,120.717
			h66.003c-1.854-35.552-30.451-64.149-66.003-66.003V120.717z"/>
	</g>
	<g>
		<polygon fill="#4E017B" points="117.259,93.176 86.636,72.321 95.763,69.659 121.587,87.245 		"/>
	</g>
	<g>
		<polygon fill="#4E017B" points="119.784,116.901 71.947,85.174 76.276,79.242 119.784,108.1 		"/>
	</g>
	<g>
		<polygon fill="#4E017B" points="119.784,138.935 60.854,99.898 65.182,93.967 119.784,130.132 		"/>
	</g>
	<g>
		<polygon fill="#4E017B" points="108.152,153.271 51.751,116 56.079,110.068 112.951,147.646 		"/>
	</g>
	<g>
		<polygon fill="#4E017B" points="94.999,166.579 46.243,134.36 50.571,128.429 100.256,161.259 		"/>
	</g>
	<g>
		<polygon fill="#4E017B" points="83.063,180.725 46.243,156.393 50.571,150.462 87.081,174.587 		"/>
	</g>
	<g>
		<circle fill="#DD342F" cx="206.079" cy="39.93" r="11.016"/>
		<path opacity="0.2" d="M202.406,54.619c-8.099,0-14.688-6.589-14.688-14.688s6.59-14.688,14.688-14.688
			c8.1,0,14.688,6.589,14.688,14.688S210.506,54.619,202.406,54.619z M202.406,32.586c-4.05,0-7.344,3.294-7.344,7.344
			s3.294,7.344,7.344,7.344c4.051,0,7.345-3.294,7.345-7.344S206.457,32.586,202.406,32.586z"/>
		<path fill="#4E017B" d="M206.079,54.619c-8.1,0-14.688-6.589-14.688-14.688s6.589-14.688,14.688-14.688
			c8.099,0,14.688,6.589,14.688,14.688S214.178,54.619,206.079,54.619z M206.079,32.586c-4.051,0-7.345,3.294-7.345,7.344
			s3.294,7.344,7.345,7.344c4.05,0,7.344-3.294,7.344-7.344S210.129,32.586,206.079,32.586z"/>
	</g>
	<g>
		<circle fill="#EBBA16" cx="205.467" cy="210.553" r="11.016"/>
		<path opacity="0.2" d="M201.795,225.242c-8.099,0-14.688-6.59-14.688-14.689c0-8.099,6.59-14.688,14.688-14.688
			c8.1,0,14.688,6.59,14.688,14.688C216.483,218.652,209.895,225.242,201.795,225.242z M201.795,203.209
			c-4.05,0-7.344,3.294-7.344,7.344c0,4.051,3.294,7.345,7.344,7.345c4.051,0,7.345-3.294,7.345-7.345
			C209.14,206.503,205.846,203.209,201.795,203.209z"/>
		<path fill="#4E017B" d="M205.467,225.242c-8.099,0-14.688-6.59-14.688-14.689c0-8.099,6.59-14.688,14.688-14.688
			c8.1,0,14.688,6.59,14.688,14.688C220.155,218.652,213.566,225.242,205.467,225.242z M205.467,203.209
			c-4.05,0-7.344,3.294-7.344,7.344c0,4.051,3.294,7.345,7.344,7.345c4.051,0,7.345-3.294,7.345-7.345
			C212.812,206.503,209.518,203.209,205.467,203.209z"/>
	</g>
	<g>
		<circle fill="#7383BF" cx="48.306" cy="53.88" r="11.016"/>
		<path opacity="0.2" d="M44.634,68.568c-8.099,0-14.688-6.589-14.688-14.688s6.589-14.688,14.688-14.688
			s14.688,6.589,14.688,14.688S52.733,68.568,44.634,68.568z M44.634,46.536c-4.05,0-7.344,3.294-7.344,7.344
			c0,4.051,3.294,7.344,7.344,7.344s7.344-3.293,7.344-7.344C51.979,49.83,48.685,46.536,44.634,46.536z"/>
		<path fill="#4E017B" d="M48.306,68.568c-8.099,0-14.688-6.589-14.688-14.688s6.589-14.688,14.688-14.688
			s14.688,6.589,14.688,14.688S56.405,68.568,48.306,68.568z M48.306,46.536c-4.05,0-7.344,3.294-7.344,7.344
			c0,4.051,3.294,7.344,7.344,7.344c4.051,0,7.344-3.293,7.344-7.344C55.65,49.83,52.357,46.536,48.306,46.536z"/>
	</g>
</g>
</svg>
