<?xml version="1.0" encoding="utf-8"?>
<!-- Generator: Adobe Illustrator 16.0.0, SVG Export Plug-In . SVG Version: 6.00 Build 0)  -->
<!DOCTYPE svg PUBLIC "-//W3C//DTD SVG 1.1//EN" "http://www.w3.org/Graphics/SVG/1.1/DTD/svg11.dtd">
<svg version="1.1" id="Layer_1" xmlns="http://www.w3.org/2000/svg" xmlns:xlink="http://www.w3.org/1999/xlink" x="0px" y="0px"
	 width="250px" height="250px" viewBox="0 0 250 250" enable-background="new 0 0 250 250" xml:space="preserve">
<g>
	<g>
		<g>
			<path fill="#7383BF" d="M29.279,72.684c-5.17,0-9.645,1.889-13.423,5.666c-3.778,3.779-5.667,8.254-5.667,13.424v85.908
				c0,5.17,1.889,9.645,5.667,13.422c3.778,3.779,8.253,5.668,13.423,5.668h42.954l37.286,28.039
				c0.597,0.398,1.342,0.598,2.237,0.598s1.69-0.35,2.386-1.045s1.044-1.541,1.044-2.535v-25.057h28.636
				c5.17,0,9.645-1.889,13.423-5.668c3.778-3.777,5.668-8.252,5.668-13.422V91.773c0-5.17-1.89-9.645-5.668-13.424
				c-3.778-3.777-8.253-5.666-13.423-5.666H29.279z"/>
		</g>
		<g>
			<g opacity="0.2">
				<path d="M26.279,72.684c-5.17,0-9.645,1.889-13.423,5.666c-3.778,3.779-5.667,8.254-5.667,13.424v85.908
					c0,5.17,1.889,9.645,5.667,13.422c3.778,3.779,8.253,5.668,13.423,5.668h42.954l37.286,28.039
					c0.597,0.398,1.342,0.598,2.237,0.598s1.69-0.35,2.386-1.045s1.044-1.541,1.044-2.535v-25.057h28.636
					c5.17,0,9.645-1.889,13.423-5.668c3.778-3.777,5.668-8.252,5.668-13.422V91.773c0-5.17-1.89-9.645-5.668-13.424
					c-3.778-3.777-8.253-5.666-13.423-5.666H26.279z M16.734,177.682V91.773c0-2.586,0.944-4.822,2.833-6.711
					c1.889-1.891,4.126-2.834,6.711-2.834h114.544c2.585,0,4.822,0.943,6.712,2.834c1.889,1.889,2.833,4.125,2.833,6.711v85.908
					c0,2.584-0.944,4.822-2.833,6.711c-1.89,1.889-4.127,2.834-6.712,2.834h-38.182v22.67l-30.127-22.67H26.279
					c-2.585,0-4.822-0.945-6.711-2.834S16.734,180.266,16.734,177.682z"/>
			</g>
			<g>
				<path fill="#4E017B" d="M29.279,72.684c-5.17,0-9.645,1.889-13.423,5.666c-3.778,3.779-5.667,8.254-5.667,13.424v85.908
					c0,5.17,1.889,9.645,5.667,13.422c3.778,3.779,8.253,5.668,13.423,5.668h42.954l37.286,28.039
					c0.597,0.398,1.342,0.598,2.237,0.598s1.69-0.35,2.386-1.045s1.044-1.541,1.044-2.535v-25.057h28.636
					c5.17,0,9.645-1.889,13.423-5.668c3.778-3.777,5.668-8.252,5.668-13.422V91.773c0-5.17-1.89-9.645-5.668-13.424
					c-3.778-3.777-8.253-5.666-13.423-5.666H29.279z M19.734,177.682V91.773c0-2.586,0.944-4.822,2.833-6.711
					c1.889-1.891,4.126-2.834,6.711-2.834h114.544c2.585,0,4.822,0.943,6.712,2.834c1.889,1.889,2.833,4.125,2.833,6.711v85.908
					c0,2.584-0.944,4.822-2.833,6.711c-1.89,1.889-4.127,2.834-6.712,2.834h-38.182v22.67l-30.127-22.67H29.279
					c-2.585,0-4.822-0.945-6.711-2.834S19.734,180.266,19.734,177.682z"/>
			</g>
			<path fill="#7383BF" d="M134.038,103.678"/>
		</g>
	</g>
	<g>
		<g>
			<path fill="#EBBA16" d="M200.424,33.76c11.633,5.568,20.88,13.074,27.74,22.521c6.861,9.445,10.291,19.836,10.291,31.17
				c0,13.92-5.27,26.449-15.809,37.586c1.789,4.971,4.673,10.141,8.65,15.51c2.585,3.58,4.325,5.816,5.22,6.713
				c0.896,0.895,1.491,2.037,1.79,3.43s0.148,2.734-0.447,4.027c-0.597,1.293-1.492,2.336-2.686,3.131
				c-1.192,0.797-2.485,1.193-3.877,1.193c-14.716,0-28.537-4.574-41.463-13.721c-9.147,2.783-18.395,4.176-27.74,4.176
				c-13.921,0-26.697-2.783-38.331-8.352s-20.88-13.076-27.741-22.521S85.731,98.787,85.731,87.451
				c0-11.334,3.43-21.725,10.291-31.17c6.861-9.447,16.108-16.953,27.741-22.521s24.41-8.352,38.331-8.352
				C176.014,25.408,188.79,28.191,200.424,33.76z"/>
		</g>
		<g opacity="0.2">
			<path d="M196.424,33.76c11.633,5.568,20.88,13.074,27.74,22.521c6.861,9.445,10.291,19.836,10.291,31.17
				c0,13.92-5.27,26.449-15.809,37.586c1.789,4.971,4.673,10.141,8.65,15.51c2.585,3.58,4.325,5.816,5.22,6.713
				c0.896,0.895,1.491,2.037,1.79,3.43s0.148,2.734-0.447,4.027c-0.597,1.293-1.492,2.336-2.686,3.131
				c-1.192,0.797-2.485,1.193-3.877,1.193c-14.716,0-28.537-4.574-41.463-13.721c-9.147,2.783-18.395,4.176-27.74,4.176
				c-13.921,0-26.697-2.783-38.331-8.352s-20.88-13.076-27.741-22.521S81.731,98.787,81.731,87.451
				c0-11.334,3.43-21.725,10.291-31.17c6.861-9.447,16.108-16.953,27.741-22.521s24.41-8.352,38.331-8.352
				C172.014,25.408,184.79,28.191,196.424,33.76z M124.535,41.963c-10.241,4.672-18.344,11.037-24.31,19.09
				c-5.966,8.055-8.949,16.854-8.949,26.398s2.983,18.346,8.949,26.398c5.966,8.055,14.069,14.418,24.31,19.092
				c10.242,4.672,21.428,7.01,33.559,7.01c8.551,0,16.803-1.293,24.758-3.879l4.475-1.49l3.877,2.982
				c9.744,6.762,19.986,10.639,30.725,11.633c-5.568-6.959-9.645-13.82-12.23-20.582l-2.088-5.666l4.176-4.475
				c8.75-9.348,13.125-19.688,13.125-31.023c0-9.545-2.982-18.344-8.948-26.398c-5.966-8.053-14.069-14.418-24.312-19.09
				c-10.24-4.674-21.427-7.01-33.557-7.01C145.963,34.953,134.777,37.289,124.535,41.963z"/>
		</g>
		<g>
			<path fill="#4E017B" d="M200.424,33.76c11.633,5.568,20.88,13.074,27.74,22.521c6.861,9.445,10.291,19.836,10.291,31.17
				c0,13.92-5.27,26.449-15.809,37.586c1.789,4.971,4.673,10.141,8.65,15.51c2.585,3.58,4.325,5.816,5.22,6.713
				c0.896,0.895,1.491,2.037,1.79,3.43s0.148,2.734-0.447,4.027c-0.597,1.293-1.492,2.336-2.686,3.131
				c-1.192,0.797-2.485,1.193-3.877,1.193c-14.716,0-28.537-4.574-41.463-13.721c-9.147,2.783-18.395,4.176-27.74,4.176
				c-13.921,0-26.697-2.783-38.331-8.352s-20.88-13.076-27.741-22.521S85.731,98.787,85.731,87.451
				c0-11.334,3.43-21.725,10.291-31.17c6.861-9.447,16.108-16.953,27.741-22.521s24.41-8.352,38.331-8.352
				C176.014,25.408,188.79,28.191,200.424,33.76z M128.535,41.963c-10.241,4.672-18.344,11.037-24.31,19.09
				c-5.966,8.055-8.949,16.854-8.949,26.398s2.983,18.346,8.949,26.398c5.966,8.055,14.069,14.418,24.31,19.092
				c10.242,4.672,21.428,7.01,33.559,7.01c8.551,0,16.803-1.293,24.758-3.879l4.475-1.49l3.877,2.982
				c9.744,6.762,19.986,10.639,30.725,11.633c-5.568-6.959-9.645-13.82-12.23-20.582l-2.088-5.666l4.176-4.475
				c8.75-9.348,13.125-19.688,13.125-31.023c0-9.545-2.982-18.344-8.948-26.398c-5.966-8.053-14.069-14.418-24.312-19.09
				c-10.24-4.674-21.427-7.01-33.557-7.01C149.963,34.953,138.777,37.289,128.535,41.963z"/>
		</g>
	</g>
	<g opacity="0.2">
		<g>
			<path d="M75.519,129.133L75.519,129.133c-2.812,0-5.091-2.279-5.091-5.09c0-2.813,2.279-5.092,5.091-5.092l0,0
				c2.812,0,5.091,2.279,5.091,5.092C80.609,126.854,78.33,129.133,75.519,129.133z"/>
		</g>
		<g>
			<path d="M94.609,149.496h-6.364c-2.812,0-5.091-2.279-5.091-5.09c0-2.813,2.279-5.092,5.091-5.092h6.364
				c2.811,0,5.091,2.279,5.091,5.092C99.7,147.217,97.42,149.496,94.609,149.496z"/>
		</g>
		<g>
			<path d="M135.336,169.859h-29.272c-2.812,0-5.091-2.279-5.091-5.09c0-2.813,2.279-5.092,5.091-5.092h29.272
				c2.811,0,5.091,2.279,5.091,5.092C140.427,167.58,138.146,169.859,135.336,169.859z"/>
		</g>
		<g>
			<path d="M85.7,169.859H32.247c-2.812,0-5.091-2.279-5.091-5.09c0-2.813,2.279-5.092,5.091-5.092H85.7
				c2.812,0,5.091,2.279,5.091,5.092C90.791,167.58,88.512,169.859,85.7,169.859z"/>
		</g>
		<g>
			<path d="M67.882,149.496H32.247c-2.812,0-5.091-2.279-5.091-5.09c0-2.813,2.279-5.092,5.091-5.092h35.636
				c2.812,0,5.091,2.279,5.091,5.092C72.973,147.217,70.694,149.496,67.882,149.496z"/>
		</g>
		<g>
			<path d="M55.155,129.133H32.247c-2.812,0-5.091-2.279-5.091-5.09c0-2.813,2.279-5.092,5.091-5.092h22.909
				c2.812,0,5.091,2.279,5.091,5.092C60.246,126.854,57.967,129.133,55.155,129.133z"/>
		</g>
		<g>
			<path d="M67.882,108.77H32.247c-2.812,0-5.091-2.279-5.091-5.09c0-2.813,2.279-5.092,5.091-5.092h35.636
				c2.812,0,5.091,2.279,5.091,5.092C72.973,106.49,70.694,108.77,67.882,108.77z"/>
		</g>
	</g>
	<g>
		<g>
			<path fill="#4E017B" d="M78.519,129.133L78.519,129.133c-2.812,0-5.091-2.279-5.091-5.09c0-2.813,2.279-5.092,5.091-5.092l0,0
				c2.812,0,5.091,2.279,5.091,5.092C83.609,126.854,81.33,129.133,78.519,129.133z"/>
		</g>
		<g>
			<path fill="#4E017B" d="M97.609,149.496h-6.364c-2.812,0-5.091-2.279-5.091-5.09c0-2.813,2.279-5.092,5.091-5.092h6.364
				c2.811,0,5.091,2.279,5.091,5.092C102.7,147.217,100.42,149.496,97.609,149.496z"/>
		</g>
		<g>
			<path fill="#4E017B" d="M138.336,169.859h-29.272c-2.812,0-5.091-2.279-5.091-5.09c0-2.813,2.279-5.092,5.091-5.092h29.272
				c2.811,0,5.091,2.279,5.091,5.092C143.427,167.58,141.146,169.859,138.336,169.859z"/>
		</g>
		<g>
			<path fill="#4E017B" d="M88.7,169.859H35.247c-2.812,0-5.091-2.279-5.091-5.09c0-2.813,2.279-5.092,5.091-5.092H88.7
				c2.812,0,5.091,2.279,5.091,5.092C93.791,167.58,91.512,169.859,88.7,169.859z"/>
		</g>
		<g>
			<path fill="#4E017B" d="M70.882,149.496H35.247c-2.812,0-5.091-2.279-5.091-5.09c0-2.813,2.279-5.092,5.091-5.092h35.636
				c2.812,0,5.091,2.279,5.091,5.092C75.973,147.217,73.694,149.496,70.882,149.496z"/>
		</g>
		<g>
			<path fill="#4E017B" d="M58.155,129.133H35.247c-2.812,0-5.091-2.279-5.091-5.09c0-2.813,2.279-5.092,5.091-5.092h22.909
				c2.812,0,5.091,2.279,5.091,5.092C63.246,126.854,60.967,129.133,58.155,129.133z"/>
		</g>
		<g>
			<path fill="#4E017B" d="M70.882,108.77H35.247c-2.812,0-5.091-2.279-5.091-5.09c0-2.813,2.279-5.092,5.091-5.092h35.636
				c2.812,0,5.091,2.279,5.091,5.092C75.973,106.49,73.694,108.77,70.882,108.77z"/>
		</g>
	</g>
	<g>
		<path opacity="0.2" d="M156.084,105.471c2.824,0,4.657,2.367,4.047,5.191c-0.611,2.826-3.437,5.115-6.262,5.115
			s-4.658-2.289-4.047-5.115C150.434,107.838,153.259,105.471,156.084,105.471z"/>
		<path fill="#4E017B" d="M159.084,105.471c2.824,0,4.657,2.367,4.047,5.191c-0.611,2.826-3.437,5.115-6.262,5.115
			s-4.658-2.289-4.047-5.115C153.434,107.838,156.259,105.471,159.084,105.471z"/>
		<path opacity="0.2" d="M175.48,60.846c-2.154-2.678-5.641-4.094-10.081-4.094c-8.165,0-14.746,4.998-17.176,13.041l-0.743,2.461
			h7.88l0.36-1.447c1.092-4.361,4.621-7.182,8.992-7.182c1.443,0,3.41,0.301,4.575,1.736c1.041,1.283,1.329,3.348,0.808,5.824
			c-0.727,3.564-2.487,5.324-5.664,7.488c-2.565,1.676-6.142,4.16-7.584,6.363c-0.881,1.361-1.488,2.961-1.795,4.703l-1.994,9.773
			h7.472l1.386-6.508c1.027-4.867,1.027-4.867,5.541-7.943c5.064-3.4,8.49-6.137,9.887-12.857
			C178.362,67.553,177.718,63.627,175.48,60.846z"/>
		<path fill="#4E017B" d="M178.48,60.846c-2.154-2.678-5.641-4.094-10.081-4.094c-8.165,0-14.746,4.998-17.176,13.041l-0.743,2.461
			h7.88l0.36-1.447c1.092-4.361,4.621-7.182,8.992-7.182c1.443,0,3.41,0.301,4.575,1.736c1.041,1.283,1.329,3.348,0.808,5.824
			c-0.727,3.564-2.487,5.324-5.664,7.488c-2.565,1.676-6.142,4.16-7.584,6.363c-0.881,1.361-1.488,2.961-1.795,4.703l-1.994,9.773
			h7.472l1.386-6.508c1.027-4.867,1.027-4.867,5.541-7.943c5.064-3.4,8.49-6.137,9.887-12.857
			C181.362,67.553,180.718,63.627,178.48,60.846z"/>
	</g>
</g>
</svg>
