<?xml version="1.0" encoding="utf-8"?>
<!-- Generator: Adobe Illustrator 16.0.0, SVG Export Plug-In . SVG Version: 6.00 Build 0)  -->
<!DOCTYPE svg PUBLIC "-//W3C//DTD SVG 1.1//EN" "http://www.w3.org/Graphics/SVG/1.1/DTD/svg11.dtd">
<svg version="1.1" id="Layer_1" xmlns="http://www.w3.org/2000/svg" xmlns:xlink="http://www.w3.org/1999/xlink" x="0px" y="0px"
	 width="250px" height="250px" viewBox="0 0 250 250" enable-background="new 0 0 250 250" xml:space="preserve">
<g display="none">
	<g display="inline">
		<g opacity="0.2">
			<polygon points="-50.938,64.657 -54.509,64.657 -54.509,52.75 -45.644,52.75 -45.644,56.322 -50.938,56.322 			"/>
		</g>
		<g>
			<polygon fill="#4E017B" points="-49.151,64.657 -52.723,64.657 -52.723,52.75 -43.857,52.75 -43.857,56.322 -49.151,56.322 			
				"/>
		</g>
		<g opacity="0.2">
			<polygon points="-46.174,122.702 -46.174,119.13 -34.268,119.13 -34.268,127.996 -37.84,127.996 -37.84,122.702 			"/>
		</g>
		<g>
			<polygon fill="#4E017B" points="-44.389,122.702 -44.389,119.13 -32.482,119.13 -32.482,127.996 -36.054,127.996 
				-36.054,122.702 			"/>
		</g>
		<g opacity="0.2">
			<polygon fill="#4E017B" points="-97.374,71.801 -93.802,71.801 -93.802,59.895 -102.669,59.895 -102.669,63.467 -97.374,63.467 
							"/>
		</g>
		<g>
			<polygon fill="#4E017B" points="-95.588,71.801 -92.016,71.801 -92.016,59.895 -100.883,59.895 -100.883,63.467 -95.588,63.467 
							"/>
		</g>
	</g>
	<g display="inline">
		<path fill="#EBBA16" d="M-111.662,103.056c0,19.726,15.991,35.721,35.72,35.721c19.729,0,35.721-15.995,35.721-35.721H-111.662"/>
		<path opacity="0.2" d="M-77.728,140.563c-20.681,0-37.507-16.825-37.507-37.507v-1.786h75.013v1.786
			C-40.221,123.737-57.046,140.563-77.728,140.563z M-111.616,104.842c0.933,17.884,15.775,32.148,33.888,32.148
			c18.111,0,32.954-14.265,33.888-32.148H-111.616z"/>
		<path fill="#4E017B" d="M-75.942,140.563c-20.681,0-37.506-16.825-37.506-37.507v-1.786h75.013v1.786
			C-38.435,123.737-55.261,140.563-75.942,140.563z M-109.83,104.842c0.934,17.884,15.776,32.148,33.888,32.148
			c18.113,0,32.956-14.265,33.888-32.148H-109.83z"/>
	</g>
	<g display="inline">
		<path fill="#7383BF" d="M-100.829,128.68c-6.682-6.492-10.833-15.574-10.833-25.624c0-19.727,15.991-35.72,35.72-35.72v36.167
			L-100.829,128.68z"/>
		<path opacity="0.2" d="M-102.589,131.194l-1.27-1.233c-7.335-7.127-11.375-16.682-11.375-26.905
			c0-20.681,16.826-37.506,37.507-37.506h1.786v38.687L-102.589,131.194z M-79.514,69.168
			c-17.883,0.933-32.148,15.775-32.148,33.888c0,8.657,3.203,16.785,9.053,23.077l23.095-23.364V69.168z"/>
		<path fill="#4E017B" d="M-100.804,131.194l-1.27-1.233c-7.334-7.127-11.375-16.682-11.375-26.905
			c0-20.681,16.825-37.506,37.506-37.506h1.786v38.687L-100.804,131.194z M-77.728,69.168
			c-17.884,0.933-32.148,15.775-32.148,33.888c0,8.657,3.202,16.785,9.053,23.077l23.095-23.364V69.168z"/>
	</g>
	<g display="inline">
		<path fill="#DD342F" d="M-33.078,95.912c0-19.728-15.991-35.72-35.72-35.72v35.72H-33.078z"/>
		<path opacity="0.2" d="M-33.078,97.698H-72.37V58.405h1.786c20.682,0,37.506,16.825,37.506,37.507V97.698z M-68.797,94.126h32.102
			c-0.902-17.292-14.811-31.2-32.102-32.102V94.126z"/>
		<path fill="#4E017B" d="M-31.292,97.698h-39.292V58.405h1.787c20.681,0,37.506,16.825,37.506,37.507V97.698z M-67.011,94.126
			h32.101c-0.901-17.292-14.811-31.2-32.101-32.102V94.126z"/>
	</g>
	<g display="inline">
		<polygon fill="#4E017B" points="-77.169,80.73 -92.064,70.588 -87.625,69.293 -75.064,77.846 		"/>
	</g>
	<g display="inline">
		<polygon fill="#4E017B" points="-75.942,92.271 -99.208,76.839 -97.103,73.954 -75.942,87.989 		"/>
	</g>
	<g display="inline">
		<polygon fill="#4E017B" points="-75.942,102.986 -104.604,84 -102.499,81.115 -75.942,98.705 		"/>
	</g>
	<g display="inline">
		<polygon fill="#4E017B" points="-81.599,109.96 -109.031,91.832 -106.926,88.947 -79.265,107.224 		"/>
	</g>
	<g display="inline">
		<polygon fill="#4E017B" points="-87.997,116.432 -111.71,100.762 -109.605,97.877 -85.439,113.845 		"/>
	</g>
	<g display="inline">
		<polygon fill="#4E017B" points="-93.802,123.312 -111.71,111.478 -109.605,108.593 -91.848,120.327 		"/>
	</g>
	<g display="inline">
		<circle fill="#DD342F" cx="-33.97" cy="54.834" r="5.358"/>
		<path opacity="0.2" d="M-35.756,61.978c-3.939,0-7.145-3.205-7.145-7.144c0-3.939,3.205-7.145,7.145-7.145
			s7.144,3.205,7.144,7.145C-28.613,58.772-31.817,61.978-35.756,61.978z M-35.756,51.262c-1.97,0-3.572,1.603-3.572,3.572
			s1.602,3.571,3.572,3.571s3.572-1.602,3.572-3.571S-33.786,51.262-35.756,51.262z"/>
		<path fill="#4E017B" d="M-33.971,61.978c-3.939,0-7.144-3.205-7.144-7.144c0-3.939,3.204-7.145,7.144-7.145
			s7.145,3.205,7.145,7.145C-26.826,58.772-30.031,61.978-33.971,61.978z M-33.971,51.262c-1.97,0-3.572,1.603-3.572,3.572
			s1.602,3.571,3.572,3.571s3.572-1.602,3.572-3.571S-32,51.262-33.971,51.262z"/>
	</g>
	<g display="inline">
		<circle fill="#EBBA16" cx="-34.268" cy="137.819" r="5.358"/>
		<path opacity="0.2" d="M-36.054,144.964c-3.939,0-7.145-3.205-7.145-7.145c0-3.938,3.205-7.144,7.145-7.144
			s7.144,3.205,7.144,7.144C-28.91,141.759-32.114,144.964-36.054,144.964z M-36.054,134.248c-1.97,0-3.572,1.602-3.572,3.571
			s1.602,3.572,3.572,3.572s3.572-1.603,3.572-3.572S-34.083,134.248-36.054,134.248z"/>
		<path fill="#4E017B" d="M-34.268,144.964c-3.939,0-7.145-3.205-7.145-7.145c0-3.938,3.205-7.144,7.145-7.144
			s7.144,3.205,7.144,7.144C-27.125,141.759-30.329,144.964-34.268,144.964z M-34.268,134.248c-1.97,0-3.572,1.602-3.572,3.571
			s1.602,3.572,3.572,3.572s3.572-1.603,3.572-3.572S-32.298,134.248-34.268,134.248z"/>
	</g>
	<g display="inline">
		<circle fill="#7383BF" cx="-110.706" cy="61.618" r="5.358"/>
		<path opacity="0.2" d="M-112.492,68.763c-3.939,0-7.144-3.205-7.144-7.145c0-3.938,3.205-7.144,7.144-7.144
			s7.144,3.205,7.144,7.144C-105.348,65.558-108.553,68.763-112.492,68.763z M-112.492,58.046c-1.97,0-3.572,1.603-3.572,3.572
			c0,1.971,1.603,3.572,3.572,3.572s3.572-1.602,3.572-3.572C-108.92,59.648-110.522,58.046-112.492,58.046z"/>
		<path fill="#4E017B" d="M-110.707,68.763c-3.938,0-7.144-3.205-7.144-7.145c0-3.938,3.205-7.144,7.144-7.144
			c3.939,0,7.144,3.205,7.144,7.144C-103.563,65.558-106.768,68.763-110.707,68.763z M-110.707,58.046
			c-1.969,0-3.572,1.603-3.572,3.572c0,1.971,1.603,3.572,3.572,3.572c1.97,0,3.572-1.602,3.572-3.572
			C-107.134,59.648-108.736,58.046-110.707,58.046z"/>
	</g>
</g>
<path id="XMLID_1_" opacity="0.2" d="M39.101,162.309C24.607,129.157,30.902,89.029,57.992,61.94
	c28.257-28.257,70.697-33.887,104.613-16.899c3.231-2.163,6.351-4.093,9.354-5.783C133.718,17.233,83.914,22.543,51.254,55.203
	c-31.577,31.577-37.589,79.181-18.045,116.867C34.944,168.452,36.957,165.206,39.101,162.309z"/>
<path id="XMLID_4390_" fill="#4E017B" d="M42.101,162.309C27.607,129.157,33.902,89.029,60.992,61.94
	c28.257-28.257,70.697-33.887,104.613-16.899c3.231-2.163,6.351-4.093,9.354-5.783C136.718,17.233,86.914,22.543,54.254,55.203
	c-31.577,31.577-37.589,79.181-18.045,116.867C37.944,168.452,39.957,165.206,42.101,162.309z"/>
<path id="XMLID_3_" opacity="0.2" d="M208.69,75.991c-1.69,3.004-3.62,6.124-5.782,9.354
	c16.987,33.914,11.357,76.355-16.898,104.613c-27.09,27.09-67.217,33.384-100.369,18.89c-2.896,2.145-6.143,4.158-9.76,5.893
	c37.686,19.545,85.29,13.531,116.866-18.045C225.406,164.035,230.716,114.233,208.69,75.991z"/>
<path id="XMLID_4391_" fill="#4E017B" d="M211.69,75.991c-1.69,3.004-3.62,6.124-5.782,9.354
	c16.987,33.914,11.357,76.355-16.898,104.613c-27.09,27.09-67.217,33.384-100.369,18.89c-2.896,2.145-6.143,4.158-9.76,5.893
	c37.686,19.545,85.29,13.531,116.866-18.045C228.406,164.035,233.716,114.233,211.69,75.991z"/>
<g>
	<path fill="#EBBA16" d="M169.767,59.542c-14.597,10.386-29.666,24.357-41.397,36.086l-4.21,4.212h-0.001l-34.531,34.532
		l10.106,10.105l34.531-34.531v0l6.738,6.737c-0.001,0-0.001,0.001-0.001,0.001l-34.53,34.53l10.106,10.107l34.531-34.532
		l4.211-4.21c17.057-17.057,28.477-30.665,36.094-41.39L169.767,59.542z"/>
	<polyline id="XMLID_10_" fill="#DD342F" points="149.196,142.182 152.396,138.98 157.449,154.141 120.79,190.8 117.539,187.55 
		120.967,170.41 149.196,142.182 	"/>
	<polygon id="XMLID_11_" fill="#DD342F" points="60.15,130.159 96.81,93.5 111.97,98.553 80.541,129.983 63.4,133.41 	"/>
	<path id="XMLID_2_" fill="#DD342F" d="M190.874,47.36c9.733-3.938,13.974-2.618,15.006-2.146c0.065,0.286,0.224,0.999,0.25,1.131
		c0.366,1.836,0.418,5.185-1.428,10.719c-1.344,4.032-3.741,9.305-7.902,16.035L177.851,54.15
		C182.347,51.364,186.729,49.037,190.874,47.36z"/>
	<path id="XMLID_4_" opacity="0.2" d="M116.502,91.02l-22.473-7.491c-1.712-0.57-3.599-0.125-4.876,1.151l-42.11,42.11
		c-1.861,1.861-1.861,4.88,0,6.739l8.422,8.421c0.902,0.902,2.118,1.396,3.369,1.396c0.311,0,0.624-0.029,0.934-0.093l18.556-3.711
		l15.037,15.037c0.002,0.002,0.003,0.004,0.005,0.004c0.001,0.004,0.003,0.004,0.004,0.006l15.037,15.035l-3.711,18.557
		c-0.312,1.562,0.177,3.177,1.303,4.305l8.422,8.42c0.931,0.931,2.15,1.396,3.37,1.396c1.219,0,2.439-0.465,3.369-1.396
		l42.111-42.108c1.274-1.277,1.721-3.164,1.151-4.876l-7.492-22.475l2.129-2.129c28.471-28.47,45.86-51.766,51.686-69.24
		c4.895-14.683-0.101-20.669-1.152-21.72c-1.052-1.051-7.036-6.045-21.72-1.15c-17.472,5.824-40.769,23.213-69.239,51.684
		L116.502,91.02z M57.15,130.159L93.81,93.5l15.16,5.054l-31.43,31.43L60.4,133.41L57.15,130.159z M149.396,138.98l5.054,15.16
		L117.79,190.8l-3.25-3.25l3.428-17.14l28.229-28.229L149.396,138.98z M187.874,47.36c9.733-3.938,13.974-2.618,15.006-2.146
		c0.065,0.286,0.224,0.999,0.25,1.131c0.366,1.836,0.418,5.185-1.428,10.719c-1.344,4.032-3.741,9.305-7.902,16.035L174.851,54.15
		C179.347,51.364,183.729,49.037,187.874,47.36z M166.767,59.542l21.647,21.647c-7.617,10.726-19.037,24.333-36.094,41.39
		l-4.211,4.21l0,0l-34.531,34.532l-10.106-10.107l34.53-34.53c1.86-1.86,1.86-4.877,0-6.738c-1.859-1.86-4.876-1.86-6.737,0
		l-34.531,34.531l-10.106-10.105l34.531-34.532h0.001l4.21-4.212C137.101,83.899,152.17,69.928,166.767,59.542z"/>
	<path id="XMLID_4380_" fill="#4E017B" d="M119.502,91.02l-22.473-7.491c-1.712-0.57-3.599-0.125-4.876,1.151l-42.11,42.11
		c-1.861,1.861-1.861,4.88,0,6.739l8.422,8.421c0.902,0.902,2.118,1.396,3.369,1.396c0.311,0,0.624-0.029,0.934-0.093l18.556-3.711
		l15.037,15.037c0.002,0.002,0.003,0.004,0.005,0.004c0.001,0.004,0.003,0.004,0.004,0.006l15.037,15.035l-3.711,18.557
		c-0.312,1.562,0.177,3.177,1.303,4.305l8.422,8.42c0.931,0.931,2.15,1.396,3.37,1.396c1.219,0,2.439-0.465,3.369-1.396
		l42.111-42.108c1.274-1.277,1.721-3.164,1.151-4.876l-7.492-22.475l2.129-2.129c28.471-28.47,45.86-51.766,51.686-69.24
		c4.895-14.683-0.101-20.669-1.152-21.72c-1.052-1.051-7.036-6.045-21.72-1.15c-17.472,5.824-40.769,23.213-69.239,51.684
		L119.502,91.02z M60.15,130.159L96.81,93.5l15.16,5.054l-31.43,31.43L63.4,133.41L60.15,130.159z M152.396,138.98l5.054,15.16
		L120.79,190.8l-3.25-3.25l3.428-17.14l28.229-28.229L152.396,138.98z M190.874,47.36c9.733-3.938,13.974-2.618,15.006-2.146
		c0.065,0.286,0.224,0.999,0.25,1.131c0.366,1.836,0.418,5.185-1.428,10.719c-1.344,4.032-3.741,9.305-7.902,16.035L177.851,54.15
		C182.347,51.364,186.729,49.037,190.874,47.36z M169.767,59.542l21.647,21.647c-7.617,10.726-19.037,24.333-36.094,41.39
		l-4.211,4.21l0,0l-34.531,34.532l-10.106-10.107l34.53-34.53c1.86-1.86,1.86-4.877,0-6.738c-1.859-1.86-4.876-1.86-6.737,0
		l-34.531,34.531l-10.106-10.105l34.531-34.532h0.001l4.21-4.212C140.101,83.899,155.17,69.928,169.767,59.542z"/>
</g>
<g>
	<path id="XMLID_12_" fill="#EBBA16" d="M44.996,205.952c-1.94-16.913,2.991-31.015,14.685-41.952
		c6.718-6.283,14.019-9.863,17.805-11.449l7.088,7.087l-13.475,13.475c-1.861,1.86-1.861,4.878,0,6.738
		c0.931,0.929,2.15,1.395,3.369,1.395c1.22,0,2.439-0.466,3.37-1.395l13.475-13.476l7.088,7.087
		c-1.588,3.793-5.169,11.092-11.451,17.807C76.012,202.963,61.912,207.896,44.996,205.952z"/>
	<path id="XMLID_14_" opacity="0.2" d="M91.18,197.484c10.296-11.147,14.155-23.285,14.313-23.797
		c0.526-1.692,0.073-3.534-1.18-4.785l-12.629-12.629c-0.001-0.002-0.002-0.004-0.004-0.004c-0.002-0.004-0.003-0.004-0.004-0.006
		l-12.629-12.627c-1.251-1.255-3.094-1.709-4.785-1.18c-0.512,0.158-12.651,4.016-23.798,14.312
		c-10.428,9.633-21.909,26.851-17.386,54.179c0.333,2.014,1.911,3.592,3.923,3.923c4.208,0.696,8.173,1.015,11.912,1.015
		C69.449,215.885,83.031,206.308,91.18,197.484z M41.996,205.952c-1.94-16.913,2.991-31.015,14.685-41.952
		c6.718-6.283,14.019-9.863,17.805-11.449l7.088,7.087l-13.475,13.475c-1.861,1.86-1.861,4.878,0,6.738
		c0.931,0.929,2.15,1.395,3.369,1.395c1.22,0,2.439-0.466,3.37-1.395l13.475-13.476l7.088,7.087
		c-1.588,3.793-5.169,11.092-11.451,17.807C73.012,202.963,58.912,207.896,41.996,205.952z"/>
	<path id="XMLID_4389_" fill="#4E017B" d="M94.18,197.484c10.296-11.147,14.155-23.285,14.313-23.797
		c0.526-1.692,0.073-3.534-1.18-4.785l-12.629-12.629c-0.001-0.002-0.002-0.004-0.004-0.004c-0.002-0.004-0.003-0.004-0.004-0.006
		l-12.629-12.627c-1.251-1.255-3.094-1.709-4.785-1.18c-0.512,0.158-12.651,4.016-23.798,14.312
		c-10.428,9.633-21.909,26.851-17.386,54.179c0.333,2.014,1.911,3.592,3.923,3.923c4.208,0.696,8.173,1.015,11.912,1.015
		C72.449,215.885,86.031,206.308,94.18,197.484z M44.996,205.952c-1.94-16.913,2.991-31.015,14.685-41.952
		c6.718-6.283,14.019-9.863,17.805-11.449l7.088,7.087l-13.475,13.475c-1.861,1.86-1.861,4.878,0,6.738
		c0.931,0.929,2.15,1.395,3.369,1.395c1.22,0,2.439-0.466,3.37-1.395l13.475-13.476l7.088,7.087
		c-1.588,3.793-5.169,11.092-11.451,17.807C76.012,202.963,61.912,207.896,44.996,205.952z"/>
</g>
<g>
	<path id="XMLID_9_" fill="#7383BF" d="M153.635,87.207c1.396-1.393,3.223-2.09,5.055-2.09c1.831,0,3.66,0.697,5.055,2.09
		c1.347,1.35,2.092,3.145,2.092,5.054c0,1.908-0.745,3.703-2.092,5.053c-2.788,2.786-7.321,2.786-10.109,0
		c-1.348-1.35-2.092-3.145-2.092-5.053C151.543,90.352,152.287,88.557,153.635,87.207z"/>
	<path id="XMLID_17_" opacity="0.2" d="M155.689,108.927c4.269,0,8.54-1.625,11.791-4.875c3.149-3.15,4.884-7.337,4.884-11.792
		c0-4.455-1.734-8.642-4.884-11.792c-6.502-6.5-17.08-6.5-23.583,0c-3.148,3.15-4.884,7.337-4.884,11.792
		c0,4.454,1.735,8.642,4.884,11.792C147.148,107.302,151.42,108.927,155.689,108.927z M150.635,87.207
		c1.396-1.393,3.223-2.09,5.055-2.09c1.831,0,3.66,0.697,5.055,2.09c1.347,1.35,2.092,3.145,2.092,5.054
		c0,1.908-0.745,3.703-2.092,5.053c-2.788,2.786-7.321,2.786-10.109,0c-1.348-1.35-2.092-3.145-2.092-5.053
		C148.543,90.352,149.287,88.557,150.635,87.207z"/>
	<path id="XMLID_4386_" fill="#4E017B" d="M158.689,108.927c4.269,0,8.54-1.625,11.791-4.875c3.149-3.15,4.884-7.337,4.884-11.792
		c0-4.455-1.734-8.642-4.884-11.792c-6.502-6.5-17.08-6.5-23.583,0c-3.148,3.15-4.884,7.337-4.884,11.792
		c0,4.454,1.735,8.642,4.884,11.792C150.148,107.302,154.42,108.927,158.689,108.927z M153.635,87.207
		c1.396-1.393,3.223-2.09,5.055-2.09c1.831,0,3.66,0.697,5.055,2.09c1.347,1.35,2.092,3.145,2.092,5.054
		c0,1.908-0.745,3.703-2.092,5.053c-2.788,2.786-7.321,2.786-10.109,0c-1.348-1.35-2.092-3.145-2.092-5.053
		C151.543,90.352,152.287,88.557,153.635,87.207z"/>
</g>
</svg>
