<?xml version="1.0" encoding="utf-8"?>
<!-- Generator: Adobe Illustrator 16.0.0, SVG Export Plug-In . SVG Version: 6.00 Build 0)  -->
<!DOCTYPE svg PUBLIC "-//W3C//DTD SVG 1.1//EN" "http://www.w3.org/Graphics/SVG/1.1/DTD/svg11.dtd">
<svg version="1.1" id="Layer_1" xmlns="http://www.w3.org/2000/svg" xmlns:xlink="http://www.w3.org/1999/xlink" x="0px" y="0px"
	 width="250px" height="250px" viewBox="0 0 250 250" enable-background="new 0 0 250 250" xml:space="preserve">
<g>
	<g>
		<path fill="#EBBA16" d="M203.27,82.854c5.018,0,9.282,1.756,12.794,5.269c3.513,3.512,5.269,7.776,5.269,12.794v36.124
			c0,1.757-0.564,3.199-1.693,4.328s-2.571,1.693-4.327,1.693h-6.021v54.187c0,5.018-1.756,9.282-5.268,12.794
			c-3.512,3.513-7.777,5.269-12.794,5.269H58.771c-5.018,0-9.282-1.756-12.794-5.269c-3.513-3.512-5.269-7.776-5.269-12.794v-54.187
			h-6.021c-1.756,0-3.198-0.564-4.327-1.693s-1.693-2.571-1.693-4.328v-36.124c0-5.018,1.756-9.282,5.268-12.794
			c3.513-3.513,7.777-5.269,12.795-5.269h14.675c-3.763-5.519-5.645-11.539-5.645-18.062c0-8.279,2.76-15.366,8.279-21.262
			c5.519-5.895,12.104-8.843,19.755-8.843s14.487,2.635,20.509,7.902c5.519,5.018,12.418,14.425,20.696,28.223
			c8.278-13.798,15.177-23.205,20.696-28.223c6.021-5.268,12.856-7.902,20.508-7.902s14.237,2.948,19.756,8.843
			c5.52,5.896,8.278,12.982,8.278,21.262c0,6.522-1.881,12.543-5.645,18.062H203.27z M83.983,46.73
			c-4.516,0-8.341,1.756-11.478,5.268c-3.136,3.513-4.703,7.777-4.703,12.795c0,5.017,1.567,9.281,4.703,12.794
			c3.137,3.512,6.837,5.268,11.102,5.268h34.619l-0.753-1.505c-6.021-10.034-10.976-17.561-14.863-22.578
			c-3.889-5.017-7.338-8.403-10.349-10.16C90.004,47.357,87.245,46.73,83.983,46.73z M132.525,81.35l-0.752,1.505h34.243
			c4.516,0,8.341-1.756,11.477-5.268c3.136-3.513,4.704-7.777,4.704-12.794c0-5.018-1.568-9.282-4.704-12.795
			c-3.136-3.512-6.836-5.268-11.101-5.268c-3.512,0-6.396,0.627-8.654,1.881c-3.011,1.757-6.46,5.144-10.349,10.16
			C143.501,63.789,138.547,71.315,132.525,81.35z"/>
	</g>
	<g>
		<path fill="#DD342F" d="M203.27,82.854c5.018,0,9.282,1.756,12.794,5.269c3.513,3.512,5.269,7.776,5.269,12.794v36.124
			c0,1.757-0.564,3.199-1.693,4.328s-2.571,1.693-4.327,1.693h-6.021v54.187c0,5.018-1.756,9.282-5.268,12.794
			c-3.512,3.513-7.777,5.269-12.794,5.269H58.771c-5.018,0-9.282-1.756-12.794-5.269c-3.513-3.512-5.269-7.776-5.269-12.794v-54.187
			h-6.021c-1.756,0-3.198-0.564-4.327-1.693s-1.693-2.571-1.693-4.328v-36.124c0-5.018,1.756-9.282,5.268-12.794
			c3.513-3.513,7.777-5.269,12.795-5.269h14.675c-3.763-5.519-5.645-11.539-5.645-18.062c0-8.279,2.76-15.366,8.279-21.262
			c5.519-5.895,12.104-8.843,19.755-8.843s14.487,2.635,20.509,7.902c5.519,5.018,12.418,14.425,20.696,28.223
			c8.278-13.798,15.177-23.205,20.696-28.223c6.021-5.268,12.856-7.902,20.508-7.902s14.237,2.948,19.756,8.843
			c5.52,5.896,8.278,12.982,8.278,21.262c0,6.522-1.881,12.543-5.645,18.062H203.27z M100.917,131.021V94.896H46.73
			c-1.757,0-3.199,0.564-4.328,1.693s-1.693,2.571-1.693,4.327v30.104H100.917z M100.917,203.27v-60.207H52.751v54.187
			c0,1.756,0.564,3.198,1.693,4.327s2.571,1.693,4.327,1.693H100.917z M137.041,203.27V94.896h-24.083V203.27H137.041z
			 M209.29,131.021v-30.104c0-1.756-0.563-3.198-1.692-4.327s-2.572-1.693-4.328-1.693h-54.187v36.124H209.29z M197.249,197.249
			v-54.187h-48.166v60.207h42.146c1.756,0,3.198-0.564,4.327-1.693S197.249,199.005,197.249,197.249z"/>
	</g>
	<g>
		<path fill="#DD342F" d="M203.27,82.854c5.018,0,9.282,1.756,12.794,5.269c3.513,3.512,5.269,7.776,5.269,12.794v36.124
			c0,1.757-0.564,3.199-1.693,4.328s-2.571,1.693-4.327,1.693h-6.021v54.187c0,5.018-1.756,9.282-5.268,12.794
			c-3.512,3.513-7.777,5.269-12.794,5.269H58.771c-5.018,0-9.282-1.756-12.794-5.269c-3.513-3.512-5.269-7.776-5.269-12.794v-54.187
			h-6.021c-1.756,0-3.198-0.564-4.327-1.693s-1.693-2.571-1.693-4.328v-36.124c0-5.018,1.756-9.282,5.268-12.794
			c3.513-3.513,7.777-5.269,12.795-5.269h14.675c-3.763-5.519-5.645-11.539-5.645-18.062c0-8.279,2.76-15.366,8.279-21.262
			c5.519-5.895,12.104-8.843,19.755-8.843s14.487,2.635,20.509,7.902c5.519,5.018,12.418,14.425,20.696,28.223
			c8.278-13.798,15.177-23.205,20.696-28.223c6.021-5.268,12.856-7.902,20.508-7.902s14.237,2.948,19.756,8.843
			c5.52,5.896,8.278,12.982,8.278,21.262c0,6.522-1.881,12.543-5.645,18.062H203.27z M100.917,131.021V94.896H46.73
			c-1.757,0-3.199,0.564-4.328,1.693s-1.693,2.571-1.693,4.327v30.104H100.917z M100.917,203.27v-60.207H52.751v54.187
			c0,1.756,0.564,3.198,1.693,4.327s2.571,1.693,4.327,1.693H100.917z M83.983,46.73c-4.516,0-8.341,1.756-11.478,5.268
			c-3.136,3.513-4.703,7.777-4.703,12.795c0,5.017,1.567,9.281,4.703,12.794c3.137,3.512,6.837,5.268,11.102,5.268h34.619
			l-0.753-1.505c-6.021-10.034-10.976-17.561-14.863-22.578c-3.889-5.017-7.338-8.403-10.349-10.16
			C90.004,47.357,87.245,46.73,83.983,46.73z M132.525,81.35l-0.752,1.505h34.243c4.516,0,8.341-1.756,11.477-5.268
			c3.136-3.513,4.704-7.777,4.704-12.794c0-5.018-1.568-9.282-4.704-12.795c-3.136-3.512-6.836-5.268-11.101-5.268
			c-3.512,0-6.396,0.627-8.654,1.881c-3.011,1.757-6.46,5.144-10.349,10.16C143.501,63.789,138.547,71.315,132.525,81.35z
			 M209.29,131.021v-30.104c0-1.756-0.563-3.198-1.692-4.327s-2.572-1.693-4.328-1.693h-54.187v36.124H209.29z M197.249,197.249
			v-54.187h-48.166v60.207h42.146c1.756,0,3.198-0.564,4.327-1.693S197.249,199.005,197.249,197.249z"/>
	</g>
	<g opacity="0.2">
		<path d="M200.27,82.854c5.018,0,9.282,1.756,12.794,5.269c3.513,3.512,5.269,7.776,5.269,12.794v36.124
			c0,1.757-0.564,3.199-1.693,4.328s-2.571,1.693-4.327,1.693h-6.021v54.187c0,5.018-1.756,9.282-5.268,12.794
			c-3.512,3.513-7.777,5.269-12.794,5.269H55.771c-5.018,0-9.282-1.756-12.794-5.269c-3.513-3.512-5.269-7.776-5.269-12.794v-54.187
			h-6.021c-1.756,0-3.198-0.564-4.327-1.693s-1.693-2.571-1.693-4.328v-36.124c0-5.018,1.756-9.282,5.268-12.794
			c3.513-3.513,7.777-5.269,12.795-5.269h14.675c-3.763-5.519-5.645-11.539-5.645-18.062c0-8.279,2.76-15.366,8.279-21.262
			c5.519-5.895,12.104-8.843,19.755-8.843s14.487,2.635,20.509,7.902c5.519,5.018,12.418,14.425,20.696,28.223
			c8.278-13.798,15.177-23.205,20.696-28.223c6.021-5.268,12.856-7.902,20.508-7.902s14.237,2.948,19.756,8.843
			c5.52,5.896,8.278,12.982,8.278,21.262c0,6.522-1.881,12.543-5.645,18.062H200.27z M97.917,131.021V94.896H43.73
			c-1.757,0-3.199,0.564-4.328,1.693s-1.693,2.571-1.693,4.327v30.104H97.917z M97.917,203.27v-60.207H49.751v54.187
			c0,1.756,0.564,3.198,1.693,4.327s2.571,1.693,4.327,1.693H97.917z M80.983,46.73c-4.516,0-8.341,1.756-11.478,5.268
			c-3.136,3.513-4.703,7.777-4.703,12.795c0,5.017,1.567,9.281,4.703,12.794c3.137,3.512,6.837,5.268,11.102,5.268h34.619
			l-0.753-1.505c-6.021-10.034-10.976-17.561-14.863-22.578c-3.889-5.017-7.338-8.403-10.349-10.16
			C87.004,47.357,84.245,46.73,80.983,46.73z M134.041,203.27V94.896h-24.083V203.27H134.041z M129.525,81.35l-0.752,1.505h34.243
			c4.516,0,8.341-1.756,11.477-5.268c3.136-3.513,4.704-7.777,4.704-12.794c0-5.018-1.568-9.282-4.704-12.795
			c-3.136-3.512-6.836-5.268-11.101-5.268c-3.512,0-6.396,0.627-8.654,1.881c-3.011,1.757-6.46,5.144-10.349,10.16
			C140.501,63.789,135.547,71.315,129.525,81.35z M206.29,131.021v-30.104c0-1.756-0.563-3.198-1.692-4.327
			s-2.572-1.693-4.328-1.693h-54.187v36.124H206.29z M194.249,197.249v-54.187h-48.166v60.207h42.146
			c1.756,0,3.198-0.564,4.327-1.693S194.249,199.005,194.249,197.249z"/>
	</g>
	<g>
		<path fill="#4E017B" d="M203.27,82.854c5.018,0,9.282,1.756,12.794,5.269c3.513,3.512,5.269,7.776,5.269,12.794v36.124
			c0,1.757-0.564,3.199-1.693,4.328s-2.571,1.693-4.327,1.693h-6.021v54.187c0,5.018-1.756,9.282-5.268,12.794
			c-3.512,3.513-7.777,5.269-12.794,5.269H58.771c-5.018,0-9.282-1.756-12.794-5.269c-3.513-3.512-5.269-7.776-5.269-12.794v-54.187
			h-6.021c-1.756,0-3.198-0.564-4.327-1.693s-1.693-2.571-1.693-4.328v-36.124c0-5.018,1.756-9.282,5.268-12.794
			c3.513-3.513,7.777-5.269,12.795-5.269h14.675c-3.763-5.519-5.645-11.539-5.645-18.062c0-8.279,2.76-15.366,8.279-21.262
			c5.519-5.895,12.104-8.843,19.755-8.843s14.487,2.635,20.509,7.902c5.519,5.018,12.418,14.425,20.696,28.223
			c8.278-13.798,15.177-23.205,20.696-28.223c6.021-5.268,12.856-7.902,20.508-7.902s14.237,2.948,19.756,8.843
			c5.52,5.896,8.278,12.982,8.278,21.262c0,6.522-1.881,12.543-5.645,18.062H203.27z M100.917,131.021V94.896H46.73
			c-1.757,0-3.199,0.564-4.328,1.693s-1.693,2.571-1.693,4.327v30.104H100.917z M100.917,203.27v-60.207H52.751v54.187
			c0,1.756,0.564,3.198,1.693,4.327s2.571,1.693,4.327,1.693H100.917z M83.983,46.73c-4.516,0-8.341,1.756-11.478,5.268
			c-3.136,3.513-4.703,7.777-4.703,12.795c0,5.017,1.567,9.281,4.703,12.794c3.137,3.512,6.837,5.268,11.102,5.268h34.619
			l-0.753-1.505c-6.021-10.034-10.976-17.561-14.863-22.578c-3.889-5.017-7.338-8.403-10.349-10.16
			C90.004,47.357,87.245,46.73,83.983,46.73z M137.041,203.27V94.896h-24.083V203.27H137.041z M132.525,81.35l-0.752,1.505h34.243
			c4.516,0,8.341-1.756,11.477-5.268c3.136-3.513,4.704-7.777,4.704-12.794c0-5.018-1.568-9.282-4.704-12.795
			c-3.136-3.512-6.836-5.268-11.101-5.268c-3.512,0-6.396,0.627-8.654,1.881c-3.011,1.757-6.46,5.144-10.349,10.16
			C143.501,63.789,138.547,71.315,132.525,81.35z M209.29,131.021v-30.104c0-1.756-0.563-3.198-1.692-4.327
			s-2.572-1.693-4.328-1.693h-54.187v36.124H209.29z M197.249,197.249v-54.187h-48.166v60.207h42.146
			c1.756,0,3.198-0.564,4.327-1.693S197.249,199.005,197.249,197.249z"/>
	</g>
</g>
</svg>
