<?xml version="1.0" encoding="utf-8"?>
<!-- Generator: Adobe Illustrator 16.0.0, SVG Export Plug-In . SVG Version: 6.00 Build 0)  -->
<!DOCTYPE svg PUBLIC "-//W3C//DTD SVG 1.1//EN" "http://www.w3.org/Graphics/SVG/1.1/DTD/svg11.dtd">
<svg version="1.1" id="Layer_1" xmlns="http://www.w3.org/2000/svg" xmlns:xlink="http://www.w3.org/1999/xlink" x="0px" y="0px"
	 width="250px" height="250px" viewBox="0 0 250 250" enable-background="new 0 0 250 250" xml:space="preserve">
<g>
	<path fill="#DD342F" d="M196,72c0-4.506-1.604-8.299-4.902-11.598c-3.3-3.299-7.093-4.902-11.598-4.902h-105
		c-4.505,0-8.299,1.604-11.598,4.902S58,67.495,58,72v78.75c0,4.506,1.604,8.299,4.902,11.598s7.092,4.902,11.598,4.902h27.25
		v23.969c0,0.65,0.211,1.164,0.664,1.617s0.923,0.664,1.48,0.664c0.616,0,1.119-0.127,1.496-0.379l34.4-25.871H179.5
		c4.505,0,8.298-1.604,11.598-4.902c3.299-3.299,4.902-7.092,4.902-11.598V72z"/>
	<path opacity="0.2" fill="#4E017B" d="M193,72c0-4.506-1.604-8.299-4.902-11.598c-3.3-3.299-7.093-4.902-11.598-4.902h-105
		c-4.505,0-8.299,1.604-11.598,4.902S55,67.495,55,72v78.75c0,4.506,1.604,8.299,4.902,11.598s7.092,4.902,11.598,4.902h27.25
		v23.969c0,0.65,0.211,1.164,0.664,1.617s0.923,0.664,1.48,0.664c0.616,0,1.119-0.127,1.496-0.379l34.4-25.871H176.5
		c4.505,0,8.298-1.604,11.598-4.902c3.299-3.299,4.902-7.092,4.902-11.598V72z M186.25,150.75c0,2.633-0.973,4.941-2.891,6.859
		c-1.917,1.918-4.226,2.891-6.859,2.891h-42.049L105.5,182.285V160.5h-34c-2.634,0-4.941-0.973-6.859-2.891
		s-2.891-4.226-2.891-6.859V72c0-2.634,0.973-4.941,2.891-6.859s4.226-2.891,6.859-2.891h105c2.634,0,4.942,0.973,6.859,2.891
		c1.918,1.918,2.891,4.227,2.891,6.859V150.75z"/>
	<path fill="#4E017B" d="M196,72c0-4.506-1.604-8.299-4.902-11.598c-3.3-3.299-7.093-4.902-11.598-4.902h-105
		c-4.505,0-8.299,1.604-11.598,4.902S58,67.495,58,72v78.75c0,4.506,1.604,8.299,4.902,11.598s7.092,4.902,11.598,4.902h27.25
		v23.969c0,0.65,0.211,1.164,0.664,1.617s0.923,0.664,1.48,0.664c0.616,0,1.119-0.127,1.496-0.379l34.4-25.871H179.5
		c4.505,0,8.298-1.604,11.598-4.902c3.299-3.299,4.902-7.092,4.902-11.598V72z M189.25,150.75c0,2.633-0.973,4.941-2.891,6.859
		c-1.917,1.918-4.226,2.891-6.859,2.891h-42.049L108.5,182.285V160.5h-34c-2.634,0-4.941-0.973-6.859-2.891
		s-2.891-4.226-2.891-6.859V72c0-2.634,0.973-4.941,2.891-6.859s4.226-2.891,6.859-2.891h105c2.634,0,4.942,0.973,6.859,2.891
		c1.918,1.918,2.891,4.227,2.891,6.859V150.75z"/>
	<g>
		<path fill="#FFFFFF" d="M146.715,94.405c2.344,2.018,3.938,4.427,4.785,7.227c0.716,2.539,0.716,5.127,0,7.764
			s-1.953,4.867-3.711,6.689l-17.09,17.383c-1.041,1.042-2.278,1.563-3.711,1.563c-1.432,0-2.669-0.521-3.711-1.563l-17.09-17.383
			c-1.758-1.823-2.994-4.053-3.711-6.689c-0.716-2.637-0.684-5.225,0.098-7.764c0.781-2.799,2.344-5.208,4.688-7.227
			c1.823-1.563,3.939-2.539,6.348-2.93c2.409-0.391,4.802-0.195,7.178,0.586c2.377,0.781,4.443,2.051,6.201,3.809
			c1.758-1.758,3.825-3.027,6.201-3.809s4.769-0.977,7.178-0.586S144.892,92.843,146.715,94.405z"/>
	</g>
	<g opacity="0.2">
		<path fill="#4E017B" d="M143.715,94.405c2.344,2.018,3.938,4.427,4.785,7.227c0.716,2.539,0.716,5.127,0,7.764
			s-1.953,4.867-3.711,6.689l-17.09,17.383c-1.041,1.042-2.278,1.563-3.711,1.563c-1.432,0-2.669-0.521-3.711-1.563l-17.09-17.383
			c-1.758-1.823-2.994-4.053-3.711-6.689c-0.716-2.637-0.684-5.225,0.098-7.764c0.781-2.799,2.344-5.208,4.688-7.227
			c1.823-1.563,3.939-2.539,6.348-2.93c2.409-0.391,4.802-0.195,7.178,0.586c2.377,0.781,4.443,2.051,6.201,3.809
			c1.758-1.758,3.825-3.027,6.201-3.809s4.769-0.977,7.178-0.586S141.892,92.843,143.715,94.405z M141.469,112.765
			c1.172-1.237,2.002-2.75,2.49-4.541s0.472-3.564-0.049-5.322c-0.521-1.888-1.595-3.516-3.223-4.883
			c-1.888-1.563-4.118-2.246-6.689-2.051s-4.769,1.237-6.592,3.125l-3.418,3.418l-3.418-3.418c-1.822-1.888-4.02-2.93-6.592-3.125
			c-2.571-0.195-4.801,0.488-6.689,2.051c-1.627,1.367-2.701,2.995-3.223,4.883c-0.521,1.758-0.537,3.532-0.049,5.322
			s1.318,3.304,2.49,4.541l17.188,17.383c0.195,0.261,0.391,0.261,0.586,0L141.469,112.765z"/>
	</g>
	<g>
		<path fill="#4E017B" d="M146.715,94.405c2.344,2.018,3.938,4.427,4.785,7.227c0.716,2.539,0.716,5.127,0,7.764
			s-1.953,4.867-3.711,6.689l-17.09,17.383c-1.041,1.042-2.278,1.563-3.711,1.563c-1.432,0-2.669-0.521-3.711-1.563l-17.09-17.383
			c-1.758-1.823-2.994-4.053-3.711-6.689c-0.716-2.637-0.684-5.225,0.098-7.764c0.781-2.799,2.344-5.208,4.688-7.227
			c1.823-1.563,3.939-2.539,6.348-2.93c2.409-0.391,4.802-0.195,7.178,0.586c2.377,0.781,4.443,2.051,6.201,3.809
			c1.758-1.758,3.825-3.027,6.201-3.809s4.769-0.977,7.178-0.586S144.892,92.843,146.715,94.405z M144.469,112.765
			c1.172-1.237,2.002-2.75,2.49-4.541s0.472-3.564-0.049-5.322c-0.521-1.888-1.595-3.516-3.223-4.883
			c-1.888-1.563-4.118-2.246-6.689-2.051s-4.769,1.237-6.592,3.125l-3.418,3.418l-3.418-3.418c-1.822-1.888-4.02-2.93-6.592-3.125
			c-2.571-0.195-4.801,0.488-6.689,2.051c-1.627,1.367-2.701,2.995-3.223,4.883c-0.521,1.758-0.537,3.532-0.049,5.322
			s1.318,3.304,2.49,4.541l17.188,17.383c0.195,0.261,0.391,0.261,0.586,0L144.469,112.765z"/>
	</g>
</g>
</svg>
