<?xml version="1.0" encoding="utf-8"?>
<!-- Generator: Adobe Illustrator 16.0.0, SVG Export Plug-In . SVG Version: 6.00 Build 0)  -->
<!DOCTYPE svg PUBLIC "-//W3C//DTD SVG 1.1//EN" "http://www.w3.org/Graphics/SVG/1.1/DTD/svg11.dtd">
<svg version="1.1" id="Layer_1" xmlns="http://www.w3.org/2000/svg" xmlns:xlink="http://www.w3.org/1999/xlink" x="0px" y="0px"
	 width="250px" height="250px" viewBox="0 0 250 250" enable-background="new 0 0 250 250" xml:space="preserve">
<g>
	<g>
		<path opacity="0.2" d="M99.562,203.955c0.476,5.406,2.726,10.061,6.84,14.177c4.667,4.667,10.03,6.936,16.398,6.936
			c6.368,0,11.727-2.269,16.398-6.936c4.113-4.116,6.363-8.771,6.84-14.177h-8.395c-0.456,3.142-1.892,5.937-4.289,8.334
			c-2.949,2.949-6.498,4.445-10.555,4.445s-7.609-1.496-10.555-4.445c-2.401-2.397-3.837-5.192-4.289-8.334H99.562z"/>
		<path fill="#4E017B" d="M103.729,203.955c0.476,5.406,2.726,10.061,6.84,14.177c4.667,4.667,10.03,6.936,16.398,6.936
			s11.727-2.269,16.397-6.936c4.114-4.116,6.364-8.771,6.841-14.177h-8.395c-0.456,3.142-1.893,5.937-4.289,8.334
			c-2.95,2.949-6.498,4.445-10.555,4.445c-4.057,0-7.609-1.496-10.555-4.445c-2.401-2.397-3.837-5.192-4.289-8.334H103.729z"/>
		<path fill="#EBBA16" d="M197.242,178.4H56.687c-3.837,0-6.616-1.783-8.036-5.152c-1.432-3.397-0.659-6.638,2.181-9.122
			c7.637-7.386,13.102-15.178,16.162-23.092c4.411-10.893,6.641-25.661,6.641-43.919c0-9.153,2.388-17.737,7.108-25.511
			c4.704-7.751,11.227-13.993,19.381-18.555c8.154-4.561,17.183-6.873,26.843-6.873c9.655,0,18.685,2.312,26.839,6.873
			c8.158,4.562,14.677,10.803,19.381,18.555c4.72,7.774,7.112,16.357,7.112,25.511c0,18.254,2.226,32.878,6.62,43.474
			c3.089,8.239,8.55,16.158,16.26,23.61c2.759,2.411,3.532,5.651,2.104,9.049C203.858,176.617,201.079,178.4,197.242,178.4z"/>
		<path opacity="0.2" d="M209.673,166.663c-0.708-3.294-2.314-6.043-4.915-8.405c-6.896-6.62-11.775-13.464-14.543-20.388
			c-3.816-9.816-5.749-23.521-5.749-40.755c0-9.944-2.454-19.315-7.3-27.854c-4.858-8.565-11.601-15.696-20.044-21.195
			c-8.423-5.489-17.879-8.663-28.101-9.428l-2.055-0.155v-9.249c0-1.277-0.366-2.24-1.147-3.021s-1.742-1.146-3.02-1.146
			c-1.277,0-2.242,0.364-3.023,1.146s-1.144,1.744-1.144,3.021v9.249l-2.055,0.155c-10.222,0.765-19.678,3.938-28.105,9.428
			c-8.439,5.499-15.186,12.63-20.044,21.195c-4.842,8.539-7.295,17.91-7.295,27.854c0,17.234-1.933,30.938-5.746,40.737
			c-2.775,6.941-7.654,13.785-14.506,20.363c-2.645,2.404-4.252,5.153-4.956,8.447c-0.712,3.31-0.423,6.476,0.883,9.674
			c1.306,3.204,3.32,5.681,6.165,7.576c2.848,1.898,5.969,2.82,9.546,2.82h140.556c3.576,0,6.701-0.922,9.55-2.82
			c2.84-1.896,4.854-4.372,6.164-7.576C210.093,173.139,210.381,169.973,209.673,166.663z M201.116,173.248
			c-1.424,3.369-4.203,5.152-8.04,5.152H52.52c-3.837,0-6.616-1.783-8.036-5.152c-1.433-3.397-0.659-6.638,2.181-9.122
			c7.638-7.386,13.103-15.178,16.162-23.092c4.411-10.893,6.641-25.661,6.641-43.919c0-9.153,2.389-17.737,7.109-25.511
			c4.704-7.751,11.226-13.993,19.38-18.555c8.154-4.561,17.184-6.873,26.843-6.873c9.656,0,18.685,2.312,26.839,6.873
			c8.159,4.562,14.678,10.803,19.381,18.555c4.721,7.774,7.113,16.357,7.113,25.511c0,18.254,2.226,32.878,6.62,43.474
			c3.088,8.239,8.549,16.158,16.26,23.61C201.771,166.61,202.544,169.851,201.116,173.248z"/>
		<path fill="#4E017B" d="M213.84,166.663c-0.708-3.294-2.315-6.043-4.915-8.405c-6.897-6.62-11.776-13.464-14.543-20.388
			c-3.816-9.816-5.749-23.521-5.749-40.755c0-9.944-2.454-19.315-7.3-27.854c-4.858-8.565-11.602-15.696-20.044-21.195
			c-8.423-5.489-17.88-8.663-28.101-9.428l-2.056-0.155v-9.249c0-1.277-0.366-2.24-1.147-3.021s-1.741-1.146-3.019-1.146
			c-1.278,0-2.242,0.364-3.023,1.146s-1.144,1.744-1.144,3.021v9.249l-2.055,0.155c-10.221,0.765-19.678,3.938-28.104,9.428
			c-8.439,5.499-15.186,12.63-20.044,21.195c-4.842,8.539-7.296,17.91-7.296,27.854c0,17.234-1.933,30.938-5.746,40.737
			c-2.775,6.941-7.654,13.785-14.506,20.363c-2.645,2.404-4.252,5.153-4.956,8.447c-0.712,3.31-0.423,6.476,0.883,9.674
			c1.306,3.204,3.32,5.681,6.165,7.576c2.849,1.898,5.969,2.82,9.546,2.82h140.556c3.577,0,6.702-0.922,9.55-2.82
			c2.841-1.896,4.854-4.372,6.165-7.576C214.259,173.139,214.548,169.973,213.84,166.663z M205.283,173.248
			c-1.425,3.369-4.204,5.152-8.041,5.152H56.687c-3.837,0-6.616-1.783-8.036-5.152c-1.432-3.397-0.659-6.638,2.181-9.122
			c7.637-7.386,13.102-15.178,16.162-23.092c4.411-10.893,6.641-25.661,6.641-43.919c0-9.153,2.388-17.737,7.108-25.511
			c4.704-7.751,11.227-13.993,19.381-18.555c8.154-4.561,17.183-6.873,26.843-6.873c9.655,0,18.685,2.312,26.839,6.873
			c8.158,4.562,14.677,10.803,19.381,18.555c4.72,7.774,7.112,16.357,7.112,25.511c0,18.254,2.226,32.878,6.62,43.474
			c3.089,8.239,8.55,16.158,16.26,23.61C205.938,166.61,206.711,169.851,205.283,173.248z"/>
	</g>
	<g>
		<path fill="#DC352D" d="M206.426,106.382c0,16.683-13.525,30.207-30.204,30.207c-16.683,0-30.208-13.523-30.208-30.207
			c0-16.679,13.525-30.204,30.208-30.204C192.9,76.178,206.426,89.704,206.426,106.382z"/>
		<path opacity="0.2" d="M172.056,140.756c-18.954,0-34.375-15.42-34.375-34.374c0-18.951,15.421-34.371,34.375-34.371
			c18.951,0,34.37,15.419,34.37,34.371C206.426,125.336,191.007,140.756,172.056,140.756z M172.056,80.345
			c-14.36,0-26.042,11.68-26.042,26.038c0,14.358,11.682,26.04,26.042,26.04c14.355,0,26.037-11.682,26.037-26.04
			C198.093,92.025,186.411,80.345,172.056,80.345z"/>
		<path fill="#4E017B" d="M176.222,140.756c-18.953,0-34.375-15.42-34.375-34.374c0-18.951,15.422-34.371,34.375-34.371
			c18.952,0,34.371,15.419,34.371,34.371C210.593,125.336,195.174,140.756,176.222,140.756z M176.222,80.345
			c-14.359,0-26.041,11.68-26.041,26.038c0,14.358,11.682,26.04,26.041,26.04c14.355,0,26.038-11.682,26.038-26.04
			C202.26,92.025,190.577,80.345,176.222,80.345z"/>
	</g>
	<g opacity="0.2">
		<path d="M163.575,113.336c2.438,1.927,5.363,2.887,8.765,2.887c3.793,0,5.688-1.251,5.688-3.756c0-1.801-1.416-3.052-4.244-3.76
			l-4.235-0.962c-4.305-1.029-6.458-3.245-6.458-6.649c0-2.187,0.867-3.967,2.604-5.351c1.733-1.379,4.045-2.071,6.934-2.071
			c3.662,0,6.588,1.093,8.769,3.278l-1.347,2.889c-2.312-1.925-4.785-2.889-7.422-2.889c-3.728,0-5.587,1.286-5.587,3.855
			c0,1.926,1.286,3.178,3.854,3.755l4.143,1.062c4.562,1.156,6.844,3.404,6.844,6.745c0,2.185-0.883,3.918-2.648,5.204
			c-1.771,1.284-4.131,1.927-7.085,1.927c-4.109,0-7.422-1.093-9.924-3.277L163.575,113.336z"/>
	</g>
	<g>
		<path fill="#4E017B" d="M167.742,113.336c2.438,1.927,5.363,2.887,8.765,2.887c3.792,0,5.688-1.251,5.688-3.756
			c0-1.801-1.416-3.052-4.244-3.76l-4.235-0.962c-4.306-1.029-6.458-3.245-6.458-6.649c0-2.187,0.867-3.967,2.604-5.351
			c1.733-1.379,4.044-2.071,6.934-2.071c3.662,0,6.588,1.093,8.769,3.278l-1.347,2.889c-2.312-1.925-4.785-2.889-7.422-2.889
			c-3.728,0-5.587,1.286-5.587,3.855c0,1.926,1.286,3.178,3.854,3.755l4.142,1.062c4.562,1.156,6.845,3.404,6.845,6.745
			c0,2.185-0.883,3.918-2.649,5.204c-1.77,1.284-4.13,1.927-7.084,1.927c-4.109,0-7.422-1.093-9.924-3.277L167.742,113.336z"/>
	</g>
</g>
</svg>
