<?xml version="1.0" encoding="utf-8"?>
<!-- Generator: Adobe Illustrator 16.0.0, SVG Export Plug-In . SVG Version: 6.00 Build 0)  -->
<!DOCTYPE svg PUBLIC "-//W3C//DTD SVG 1.1//EN" "http://www.w3.org/Graphics/SVG/1.1/DTD/svg11.dtd">
<svg version="1.1" id="Layer_1" xmlns="http://www.w3.org/2000/svg" xmlns:xlink="http://www.w3.org/1999/xlink" x="0px" y="0px"
	 width="250px" height="250px" viewBox="0 0 250 250" enable-background="new 0 0 250 250" xml:space="preserve">
<g>
	<g>
		<path fill="#ACACAC" d="M101.418,167.851l-2.034,8.763v30.203c0,0.449,0.117,0.792,0.382,1.15l0.161,0.231l9.665,14.899
			c0.366,0.502,0.934,0.938,2.179,0.938h31.411c1.249,0,1.816-0.437,2.283-1.091l9.722-14.979c0.27-0.358,0.383-0.701,0.383-1.15
			l0.125-31.241l-2.155-7.725H101.418z M153.54,167.851h-52.122"/>
	</g>
	<g>
		<path fill="#EBBA16" d="M185.322,59.281c-5.916-10.194-14.083-18.363-24.275-24.277c-10.185-5.91-21.48-8.906-33.569-8.906
			c-12.593,0-24.199,3.186-34.5,9.466c-10.084,6.051-18.053,14.274-23.711,24.457c-5.666,10.202-8.542,21.247-8.542,32.831
			c0,8.306,1.466,16.269,4.35,23.671c2.899,7.438,7.055,14.276,12.351,20.327c4.986,5.539,9.911,12.711,14.606,21.271
			c4.313,8.338,6.685,14.138,7.297,17.818l0.057,0.676v30.203c0,0.449,0.117,0.792,0.382,1.15l0.161,0.231l9.665,14.899
			c0.366,0.502,0.934,0.938,2.179,0.938h31.411c1.249,0,1.816-0.437,2.283-1.091l9.722-14.979c0.27-0.358,0.383-0.701,0.383-1.15
			l0.048-30.829c0.62-4.033,3.153-9.898,7.744-17.931c4.354-8.442,9.162-15.645,14.208-21.25
			c5.255-6.009,9.411-12.847,12.311-20.285c2.888-7.402,4.349-15.365,4.349-23.671C194.229,80.76,191.233,69.466,185.322,59.281z
			 M150.931,206.031l-8.738,13.366h-29.43l-8.739-13.366v-7.768h46.907V206.031z M150.931,193.624h-46.907V172.49h46.907V193.624z"
			/>
	</g>
	<g opacity="0.2">
		<path d="M182.093,58.764c-6.009-10.354-14.303-18.647-24.65-24.651c-10.345-6.002-21.814-9.045-34.089-9.045
			c-12.782,0-24.569,3.236-35.029,9.613c-10.233,6.139-18.335,14.497-24.082,24.839C58.49,69.88,55.57,81.094,55.57,92.851
			c0,8.433,1.488,16.523,4.421,24.045c2.94,7.547,7.16,14.489,12.544,20.641c4.941,5.493,9.81,12.585,14.457,21.056
			c4.249,8.213,6.601,13.941,7.185,17.431l0.052,30.793c0,0.669,0.187,1.23,0.568,1.738l9.838,15.149
			c0.668,0.918,1.653,1.363,3.012,1.363h31.412c1.8,0,2.613-0.813,3.148-1.561l9.682-14.924c0.402-0.536,0.588-1.098,0.588-1.765
			l0.036-30.674c0.602-3.906,3.095-9.657,7.644-17.614c4.337-8.415,9.066-15.492,14.066-21.046
			c5.35-6.116,9.554-13.043,12.496-20.588c2.932-7.522,4.417-15.613,4.417-24.045C191.137,80.574,188.095,69.105,182.093,58.764z
			 M145.776,199.294v6.43l-8.264,12.643h-28.314l-8.268-12.643v-6.43H145.776z M145.776,173.521v19.071h-44.845v-19.071H145.776z
			 M122.951,31.769c11.249,0,21.669,2.787,30.972,8.284c9.274,5.479,16.753,12.957,22.229,22.229
			c5.497,9.301,8.284,19.586,8.284,30.57c0,7.313-1.283,14.513-3.814,21.404c-2.537,6.912-6.398,13.279-11.469,18.913
			c-3.097,3.356-6.375,7.818-9.741,13.257c-3.935,6.297-7.253,12.532-9.864,18.537l-0.808,1.858H97.969l-0.808-1.858
			c-2.607-5.999-5.924-12.23-9.85-18.521c-3.379-5.453-6.649-9.907-9.703-13.217c-10.177-11.588-15.337-25.171-15.337-40.374
			c0-10.684,2.638-20.875,7.837-30.29c5.211-9.439,12.572-17.013,21.873-22.509C101.283,34.555,111.703,31.769,122.951,31.769z"/>
		<path d="M125.798,51.747c-0.386-0.389-1.063-0.906-2.444-0.906c-7.468,0-14.536,1.893-21.005,5.625
			c-6.472,3.735-11.646,8.908-15.377,15.377c-3.735,6.474-5.628,13.541-5.628,21.007c0,1.373,0.516,2.052,0.906,2.444
			c0.391,0.389,1.067,0.906,2.444,0.906c1.381,0,2.058-0.517,2.448-0.908c0.387-0.391,0.902-1.069,0.902-2.442
			c0-9.669,3.489-18.062,10.37-24.94c6.882-6.88,15.272-10.37,24.939-10.37c1.381,0,2.058-0.518,2.449-0.908
			c0.386-0.391,0.902-1.069,0.902-2.442C126.704,52.818,126.188,52.139,125.798,51.747z"/>
	</g>
	<g>
		<path fill="#4E017B" d="M186.216,58.764c-6.008-10.354-14.302-18.647-24.649-24.651c-10.346-6.002-21.814-9.045-34.089-9.045
			c-12.782,0-24.569,3.236-35.03,9.613c-10.232,6.139-18.335,14.497-24.082,24.839c-5.753,10.361-8.672,21.575-8.672,33.332
			c0,8.433,1.488,16.523,4.422,24.045c2.939,7.547,7.16,14.489,12.544,20.641c4.941,5.493,9.81,12.585,14.458,21.056
			c4.249,8.213,6.6,13.941,7.184,17.431l0.052,30.793c0,0.669,0.188,1.23,0.568,1.738l9.838,15.149
			c0.668,0.918,1.653,1.363,3.012,1.363h31.411c1.801,0,2.614-0.813,3.149-1.561l9.681-14.924c0.403-0.536,0.588-1.098,0.588-1.765
			l0.037-30.674c0.602-3.906,3.095-9.657,7.643-17.614c4.338-8.415,9.067-15.492,14.067-21.046
			c5.35-6.116,9.554-13.043,12.495-20.588c2.932-7.522,4.418-15.613,4.418-24.045C195.261,80.574,192.219,69.105,186.216,58.764z
			 M149.9,199.294v6.43l-8.264,12.643h-28.314l-8.268-12.643v-6.43H149.9z M149.9,173.521v19.071h-44.846v-19.071H149.9z
			 M127.074,31.769c11.25,0,21.67,2.787,30.973,8.284c9.274,5.479,16.753,12.957,22.229,22.229
			c5.497,9.301,8.283,19.586,8.283,30.57c0,7.313-1.282,14.513-3.813,21.404c-2.537,6.912-6.398,13.279-11.469,18.913
			c-3.097,3.356-6.375,7.818-9.742,13.257c-3.934,6.297-7.252,12.532-9.864,18.537l-0.807,1.858h-50.771l-0.808-1.858
			c-2.607-5.999-5.924-12.23-9.85-18.521c-3.378-5.453-6.648-9.907-9.703-13.217c-10.176-11.588-15.337-25.171-15.337-40.374
			c0-10.684,2.638-20.875,7.836-30.29c5.211-9.439,12.573-17.013,21.873-22.509C105.407,34.555,115.827,31.769,127.074,31.769z"/>
		<path fill="#4E017B" d="M129.922,51.747c-0.387-0.389-1.063-0.906-2.444-0.906c-7.468,0-14.536,1.893-21.005,5.625
			C100,60.202,94.826,65.374,91.095,71.844c-3.735,6.474-5.628,13.541-5.628,21.007c0,1.373,0.516,2.052,0.906,2.444
			c0.391,0.389,1.067,0.906,2.444,0.906c1.381,0,2.058-0.517,2.449-0.908c0.387-0.391,0.902-1.069,0.902-2.442
			c0-9.669,3.49-18.062,10.37-24.94c6.882-6.88,15.273-10.37,24.94-10.37c1.381,0,2.058-0.518,2.448-0.908
			c0.387-0.391,0.902-1.069,0.902-2.442C130.828,52.818,130.313,52.139,129.922,51.747z"/>
	</g>
</g>
</svg>
