<?xml version="1.0" encoding="utf-8"?>
<!-- Generator: Adobe Illustrator 16.0.0, SVG Export Plug-In . SVG Version: 6.00 Build 0)  -->
<!DOCTYPE svg PUBLIC "-//W3C//DTD SVG 1.1//EN" "http://www.w3.org/Graphics/SVG/1.1/DTD/svg11.dtd">
<svg version="1.1" id="Layer_1" xmlns="http://www.w3.org/2000/svg" xmlns:xlink="http://www.w3.org/1999/xlink" x="0px" y="0px"
	 width="250px" height="250px" viewBox="0 0 250 250" enable-background="new 0 0 250 250" xml:space="preserve">
<g>
	<g>
		<path fill="#7383BF" d="M235.717,210.603c2.661-4.468,3.957-9.245,3.957-14.598v-23.456c0-6.319-1.768-11.894-5.403-17.033
			c-3.625-5.118-8.299-8.604-14.292-10.652l-4.045-1.386v-29.994c0-15.818-4.012-30.786-11.918-44.491
			c-7.878-13.126-18.598-23.844-31.812-31.775c-13.621-7.855-28.589-11.865-44.399-11.865c-15.814,0-30.78,4.01-44.492,11.916
			C70.19,45.148,59.47,55.866,51.54,69.082c-7.855,13.615-11.865,28.583-11.865,44.401v29.994l-4.046,1.386
			c-5.994,2.049-10.669,5.534-14.291,10.652c-3.634,5.132-5.402,10.702-5.402,17.033v23.456c0,5.363,1.294,10.138,3.957,14.598
			c2.714,4.549,6.242,8.077,10.787,10.787c4.47,2.665,9.245,3.963,14.6,3.963h35.327c1.605,0,2.873-0.554,4.114-1.788
			c1.225-1.227,1.774-2.494,1.774-4.102v-70.654c0-1.581-0.504-2.743-1.694-3.882c-1.241-1.19-2.537-1.724-4.193-1.724H51.167
			v-29.72c0-13.829,3.459-26.778,10.283-38.481c6.805-11.684,16.185-21.063,27.875-27.876c11.711-6.822,24.656-10.28,38.48-10.28
			c13.816,0,26.762,3.458,38.475,10.28c11.687,6.812,21.063,16.19,27.877,27.873c6.824,11.719,10.282,24.667,10.282,38.485v29.72
			h-29.437c-1.658,0-2.952,0.531-4.195,1.724c-1.188,1.139-1.695,2.299-1.695,3.882v70.654c0,1.609,0.55,2.879,1.78,4.107
			c1.233,1.232,2.501,1.782,4.11,1.782h35.324c5.355,0,10.132-1.298,14.6-3.963C229.465,218.688,232.997,215.157,235.717,210.603z"
			/>
		<path opacity="0.2" d="M231.551,210.603c2.661-4.468,3.957-9.245,3.957-14.598v-23.456c0-6.319-1.769-11.894-5.404-17.033
			c-3.625-5.118-8.298-8.604-14.292-10.652l-4.045-1.386v-29.994c0-15.818-4.012-30.786-11.918-44.491
			c-7.877-13.126-18.597-23.844-31.812-31.775c-13.621-7.855-28.589-11.865-44.399-11.865c-15.814,0-30.78,4.01-44.493,11.916
			c-13.123,7.88-23.842,18.598-31.772,31.813c-7.855,13.615-11.865,28.583-11.865,44.401v29.994l-4.047,1.386
			c-5.994,2.049-10.669,5.534-14.29,10.652c-3.634,5.132-5.402,10.702-5.402,17.033v23.456c0,5.363,1.294,10.138,3.957,14.598
			c2.714,4.549,6.242,8.077,10.787,10.787c4.47,2.665,9.245,3.963,14.6,3.963H76.44c1.605,0,2.873-0.554,4.114-1.788
			c1.225-1.227,1.774-2.494,1.774-4.102v-70.654c0-1.581-0.504-2.743-1.695-3.882c-1.241-1.19-2.537-1.724-4.193-1.724H47v-29.72
			c0-13.829,3.458-26.778,10.283-38.481c6.805-11.684,16.184-21.063,27.875-27.876c11.71-6.822,24.656-10.28,38.48-10.28
			c13.817,0,26.762,3.458,38.475,10.28c11.686,6.812,21.063,16.19,27.876,27.873c6.824,11.719,10.283,24.667,10.283,38.485v29.72
			h-29.438c-1.658,0-2.952,0.531-4.195,1.724c-1.188,1.139-1.694,2.299-1.694,3.882v70.654c0,1.609,0.549,2.879,1.779,4.107
			c1.233,1.232,2.501,1.782,4.11,1.782h35.325c5.354,0,10.132-1.298,14.6-3.963C225.299,218.688,228.83,215.157,231.551,210.603z
			 M70.837,154.698v59.159H41.113c-4.818,0-9.143-1.857-12.512-5.371c-3.308-3.444-5.058-7.762-5.058-12.481v-23.456
			c0-4.714,1.75-9.029,5.058-12.478c3.375-3.518,7.705-5.373,12.512-5.373H70.837z M223.729,196.005
			c0,4.72-1.749,9.037-5.058,12.483c-3.369,3.512-7.694,5.369-12.512,5.369h-29.721v-59.159h29.721c4.81,0,9.137,1.855,12.512,5.371
			c3.309,3.45,5.058,7.766,5.058,12.479V196.005z"/>
		<path fill="#4E017B" d="M235.717,210.603c2.661-4.468,3.957-9.245,3.957-14.598v-23.456c0-6.319-1.768-11.894-5.403-17.033
			c-3.625-5.118-8.299-8.604-14.292-10.652l-4.045-1.386v-29.994c0-15.818-4.012-30.786-11.918-44.491
			c-7.878-13.126-18.598-23.844-31.812-31.775c-13.621-7.855-28.589-11.865-44.399-11.865c-15.814,0-30.78,4.01-44.492,11.916
			C70.19,45.148,59.47,55.866,51.54,69.082c-7.855,13.615-11.865,28.583-11.865,44.401v29.994l-4.046,1.386
			c-5.994,2.049-10.669,5.534-14.291,10.652c-3.634,5.132-5.402,10.702-5.402,17.033v23.456c0,5.363,1.294,10.138,3.957,14.598
			c2.714,4.549,6.242,8.077,10.787,10.787c4.47,2.665,9.245,3.963,14.6,3.963h35.327c1.605,0,2.873-0.554,4.114-1.788
			c1.225-1.227,1.774-2.494,1.774-4.102v-70.654c0-1.581-0.504-2.743-1.694-3.882c-1.241-1.19-2.537-1.724-4.193-1.724H51.167
			v-29.72c0-13.829,3.459-26.778,10.283-38.481c6.805-11.684,16.185-21.063,27.875-27.876c11.711-6.822,24.656-10.28,38.48-10.28
			c13.816,0,26.762,3.458,38.475,10.28c11.687,6.812,21.063,16.19,27.877,27.873c6.824,11.719,10.282,24.667,10.282,38.485v29.72
			h-29.437c-1.658,0-2.952,0.531-4.195,1.724c-1.188,1.139-1.695,2.299-1.695,3.882v70.654c0,1.609,0.55,2.879,1.78,4.107
			c1.233,1.232,2.501,1.782,4.11,1.782h35.324c5.355,0,10.132-1.298,14.6-3.963C229.465,218.688,232.997,215.157,235.717,210.603z
			 M75.003,154.698v59.159H45.279c-4.817,0-9.143-1.857-12.512-5.371c-3.308-3.444-5.058-7.762-5.058-12.481v-23.456
			c0-4.714,1.75-9.029,5.058-12.478c3.375-3.518,7.705-5.373,12.512-5.373H75.003z M227.896,196.005c0,4.72-1.75,9.037-5.058,12.483
			c-3.369,3.512-7.694,5.369-12.513,5.369h-29.72v-59.159h29.72c4.81,0,9.138,1.855,12.513,5.371
			c3.308,3.45,5.058,7.766,5.058,12.479V196.005z"/>
	</g>
	<g opacity="0.2">
		<g>
			<path d="M106.025,71.687c-5.277,3.056-9.444,7.222-12.5,12.5c-3.166,5.389-4.749,11.224-4.749,17.5
				c0,6.279,1.583,12.111,4.749,17.501c3.056,5.277,7.223,9.444,12.5,12.5c5.39,3.166,11.225,4.749,17.501,4.749h31.25
				c0.723,0.055,1.39-0.098,2-0.458c0.612-0.362,1.056-0.875,1.333-1.542c0.278-0.665,0.348-1.347,0.209-2.04
				c-0.139-0.696-0.458-1.292-0.958-1.793l-7.001-6.917c2.556-3.111,4.515-6.553,5.876-10.333c1.361-3.776,2.04-7.666,2.04-11.666
				c0-6.276-1.582-12.111-4.748-17.5c-3.056-5.278-7.223-9.444-12.5-12.5c-5.39-3.166-11.223-4.749-17.501-4.749
				C117.25,66.938,111.415,68.521,106.025,71.687z M111.277,126.521c-3.833-1.943-7.07-4.61-9.709-8
				c-2.639-3.387-4.374-7.222-5.208-11.501c-0.834-4.276-0.68-8.484,0.458-12.624c1.139-4.138,3.125-7.819,5.959-11.042
				s6.264-5.666,10.292-7.334c4.028-1.667,8.181-2.346,12.458-2.041c4.278,0.305,8.278,1.528,11.999,3.667
				c3.724,2.14,6.794,5.029,9.209,8.667c2.417,3.64,3.89,7.583,4.417,11.833c0.528,4.25,0.111,8.417-1.25,12.5
				c-1.36,4.083-3.597,7.654-6.707,10.709c-0.668,0.666-1.001,1.485-1.001,2.458s0.333,1.792,1.001,2.458l3.249,3.167h-22.917
				C119.193,129.438,115.11,128.465,111.277,126.521z"/>
			<path d="M155.062,137.488c0.8,0,1.554-0.205,2.244-0.612c0.81-0.479,1.401-1.164,1.766-2.041
				c0.358-0.853,0.447-1.743,0.269-2.643c-0.177-0.897-0.596-1.679-1.243-2.325l-6.337-6.262c2.335-3.001,4.17-6.328,5.456-9.9
				c1.394-3.87,2.102-7.912,2.102-12.018c0-6.437-1.646-12.502-4.893-18.028c-3.13-5.408-7.463-9.741-12.875-12.874
				c-5.521-3.243-11.586-4.889-18.023-4.889c-6.437,0-12.502,1.646-18.028,4.893c-5.408,3.129-9.741,7.462-12.874,12.875
				c-3.243,5.521-4.889,11.586-4.889,18.023c0,6.438,1.646,12.502,4.893,18.028c3.129,5.408,7.462,9.741,12.875,12.874
				c5.521,3.243,11.586,4.89,18.023,4.89h31.25C154.819,137.484,154.941,137.488,155.062,137.488z M123.526,67.979
				c6.061,0,11.771,1.55,16.974,4.604c5.099,2.954,9.176,7.031,12.126,12.125c3.058,5.207,4.608,10.917,4.608,16.978
				c0,3.864-0.666,7.67-1.979,11.312c-1.313,3.646-3.231,7.019-5.701,10.026l-0.603,0.735l7.677,7.584
				c0.352,0.353,0.571,0.764,0.669,1.256s0.049,0.962-0.148,1.435c-0.191,0.459-0.486,0.801-0.903,1.048
				c-0.368,0.217-0.757,0.323-1.184,0.323l-0.206-0.009l-31.329-0.002c-6.061,0-11.771-1.55-16.974-4.604
				c-5.099-2.954-9.176-7.031-12.126-12.126c-3.058-5.206-4.608-10.917-4.608-16.978c0-6.061,1.55-11.771,4.604-16.974
				c2.954-5.099,7.031-9.176,12.125-12.126C111.755,69.53,117.466,67.979,123.526,67.979z M123.526,130.479h25.479l-5.085-4.956
				c-0.464-0.464-0.686-1.009-0.686-1.711c0-0.702,0.222-1.247,0.694-1.719c3.21-3.153,5.554-6.895,6.962-11.119
				c1.403-4.213,1.839-8.573,1.294-12.958c-0.543-4.389-2.085-8.521-4.582-12.28c-2.494-3.756-5.709-6.783-9.558-8.995
				c-3.842-2.208-8.028-3.487-12.445-3.803c-4.423-0.319-8.767,0.397-12.929,2.118c-4.159,1.723-7.751,4.283-10.675,7.609
				c-2.925,3.327-5.005,7.18-6.183,11.452c-1.176,4.283-1.335,8.689-0.476,13.1c0.862,4.423,2.684,8.441,5.41,11.943
				c2.722,3.495,6.105,6.285,10.061,8.289C114.768,129.46,119.048,130.479,123.526,130.479z M143.882,128.396h-20.355
				c-4.148,0-8.111-0.944-11.778-2.806c-3.678-1.864-6.828-4.458-9.358-7.711c-2.525-3.239-4.209-6.96-5.007-11.06
				c-0.799-4.094-0.651-8.181,0.439-12.148c1.091-3.967,3.021-7.544,5.735-10.63c2.714-3.084,6.049-5.461,9.91-7.06
				c3.861-1.597,7.886-2.262,11.985-1.963c4.098,0.291,7.985,1.479,11.554,3.53c3.564,2.049,6.545,4.856,8.858,8.339
				c2.317,3.489,3.748,7.32,4.252,11.385c0.507,4.073,0.102,8.125-1.204,12.042c-1.302,3.908-3.471,7.371-6.449,10.297
				c-0.873,0.869-1.313,1.945-1.313,3.2s0.439,2.331,1.309,3.196L143.882,128.396z"/>
		</g>
	</g>
	<g>
		<g>
			<path fill="#4E017B" d="M110.192,71.687c-5.278,3.056-9.444,7.222-12.5,12.5c-3.166,5.389-4.749,11.224-4.749,17.5
				c0,6.279,1.583,12.111,4.749,17.501c3.056,5.277,7.222,9.444,12.5,12.5c5.389,3.166,11.224,4.749,17.501,4.749h31.25
				c0.722,0.055,1.39-0.098,2-0.458c0.612-0.362,1.056-0.875,1.332-1.542c0.279-0.665,0.348-1.347,0.21-2.04
				c-0.139-0.696-0.458-1.292-0.958-1.793l-7.001-6.917c2.556-3.111,4.515-6.553,5.876-10.333c1.36-3.776,2.04-7.666,2.04-11.666
				c0-6.276-1.583-12.111-4.748-17.5c-3.057-5.278-7.223-9.444-12.5-12.5c-5.39-3.166-11.223-4.749-17.501-4.749
				C121.417,66.938,115.582,68.521,110.192,71.687z M115.443,126.521c-3.833-1.943-7.07-4.61-9.708-8
				c-2.639-3.387-4.375-7.222-5.208-11.501c-0.834-4.276-0.68-8.484,0.458-12.624c1.14-4.138,3.125-7.819,5.959-11.042
				c2.834-3.223,6.264-5.666,10.292-7.334c4.028-1.667,8.181-2.346,12.458-2.041c4.278,0.305,8.278,1.528,11.999,3.667
				c3.724,2.14,6.793,5.029,9.208,8.667c2.417,3.64,3.891,7.583,4.417,11.833c0.529,4.25,0.112,8.417-1.249,12.5
				c-1.361,4.083-3.597,7.654-6.708,10.709c-0.667,0.666-1.001,1.485-1.001,2.458s0.334,1.792,1.001,2.458l3.249,3.167h-22.916
				C123.359,129.438,119.276,128.465,115.443,126.521z"/>
			<path fill="#4E017B" d="M159.228,137.488c0.8,0,1.555-0.205,2.244-0.612c0.81-0.479,1.402-1.164,1.767-2.041
				c0.357-0.853,0.447-1.743,0.269-2.643c-0.178-0.897-0.597-1.679-1.243-2.325l-6.338-6.262c2.336-3.001,4.171-6.328,5.457-9.9
				c1.394-3.87,2.102-7.912,2.102-12.018c0-6.437-1.646-12.502-4.894-18.028c-3.129-5.408-7.462-9.741-12.874-12.874
				c-5.521-3.243-11.587-4.889-18.023-4.889c-6.438,0-12.502,1.646-18.028,4.893c-5.408,3.129-9.741,7.462-12.875,12.875
				c-3.243,5.521-4.889,11.586-4.889,18.023c0,6.438,1.646,12.502,4.893,18.028c3.129,5.408,7.463,9.741,12.875,12.874
				c5.521,3.243,11.586,4.89,18.024,4.89h31.25C158.986,137.484,159.107,137.488,159.228,137.488z M127.693,67.979
				c6.061,0,11.771,1.55,16.974,4.604c5.099,2.954,9.176,7.031,12.126,12.125c3.058,5.207,4.607,10.917,4.607,16.978
				c0,3.864-0.665,7.67-1.979,11.312c-1.312,3.646-3.23,7.019-5.7,10.026l-0.603,0.735l7.677,7.584
				c0.352,0.353,0.571,0.764,0.669,1.256s0.049,0.962-0.148,1.435c-0.191,0.459-0.486,0.801-0.903,1.048
				c-0.368,0.217-0.757,0.323-1.185,0.323l-0.205-0.009l-31.329-0.002c-6.061,0-11.772-1.55-16.974-4.604
				c-5.099-2.954-9.176-7.031-12.125-12.126c-3.058-5.206-4.608-10.917-4.608-16.978c0-6.061,1.55-11.771,4.604-16.974
				c2.954-5.099,7.031-9.176,12.126-12.126C115.921,69.53,121.632,67.979,127.693,67.979z M127.693,130.479h25.478l-5.084-4.956
				c-0.464-0.464-0.686-1.009-0.686-1.711c0-0.702,0.222-1.247,0.693-1.719c3.211-3.153,5.555-6.895,6.963-11.119
				c1.403-4.213,1.839-8.573,1.294-12.958c-0.544-4.389-2.086-8.521-4.582-12.28c-2.494-3.756-5.709-6.783-9.559-8.995
				c-3.841-2.208-8.027-3.487-12.444-3.803c-4.423-0.319-8.767,0.397-12.93,2.118c-4.159,1.723-7.751,4.283-10.675,7.609
				c-2.926,3.327-5.005,7.18-6.183,11.452c-1.176,4.283-1.334,8.689-0.476,13.1c0.863,4.423,2.684,8.441,5.41,11.943
				c2.722,3.495,6.105,6.285,10.061,8.289C118.935,129.46,123.215,130.479,127.693,130.479z M148.049,128.396h-20.355
				c-4.148,0-8.112-0.944-11.778-2.806c-3.679-1.864-6.828-4.458-9.359-7.711c-2.525-3.239-4.209-6.96-5.007-11.06
				c-0.8-4.094-0.651-8.181,0.439-12.148c1.09-3.967,3.021-7.544,5.735-10.63c2.714-3.084,6.048-5.461,9.91-7.06
				c3.862-1.597,7.886-2.262,11.986-1.963c4.097,0.291,7.985,1.479,11.554,3.53c3.564,2.049,6.545,4.856,8.858,8.339
				c2.317,3.489,3.747,7.32,4.252,11.385c0.507,4.073,0.102,8.125-1.204,12.042c-1.303,3.908-3.472,7.371-6.45,10.297
				c-0.872,0.869-1.312,1.945-1.312,3.2s0.439,2.331,1.308,3.196L148.049,128.396z"/>
		</g>
	</g>
	<g>
		<path fill="#4E017B" d="M124.407,107.307v3.186h-12.024c0.13-1.205,0.521-2.346,1.172-3.424c0.651-1.078,1.937-2.508,3.857-4.291
			c1.546-1.44,2.495-2.417,2.844-2.93c0.472-0.708,0.708-1.408,0.708-2.1c0-0.765-0.205-1.353-0.616-1.764s-0.979-0.616-1.703-0.616
			c-0.716,0-1.286,0.215-1.709,0.647c-0.423,0.431-0.667,1.147-0.732,2.148l-3.418-0.342c0.204-1.888,0.842-3.243,1.917-4.065
			c1.074-0.822,2.417-1.233,4.028-1.233c1.766,0,3.154,0.476,4.163,1.428c1.009,0.952,1.514,2.136,1.514,3.552
			c0,0.806-0.145,1.572-0.433,2.301c-0.289,0.729-0.747,1.491-1.374,2.289c-0.415,0.529-1.164,1.29-2.246,2.283
			c-1.082,0.993-1.768,1.652-2.057,1.978c-0.289,0.325-0.523,0.643-0.702,0.952H124.407z"/>
		<path fill="#4E017B" d="M133.453,110.493v-3.601h-7.324v-3.003l7.764-11.365h2.881v11.353h2.222v3.015h-2.222v3.601H133.453z
			 M133.453,103.876v-6.116l-4.114,6.116H133.453z"/>
	</g>
</g>
</svg>
