<?xml version="1.0" encoding="utf-8"?>
<!-- Generator: Adobe Illustrator 16.0.0, SVG Export Plug-In . SVG Version: 6.00 Build 0)  -->
<!DOCTYPE svg PUBLIC "-//W3C//DTD SVG 1.1//EN" "http://www.w3.org/Graphics/SVG/1.1/DTD/svg11.dtd">
<svg version="1.1" id="Layer_1" xmlns="http://www.w3.org/2000/svg" xmlns:xlink="http://www.w3.org/1999/xlink" x="0px" y="0px"
	 width="250px" height="250px" viewBox="0 0 250 250" enable-background="new 0 0 250 250" xml:space="preserve">
<g>
	<g>
		<path fill="#EBBA16" d="M46.016,132.056c0,40.556,32.878,73.443,73.442,73.443s73.443-32.888,73.443-73.443H46.016"/>
		<path opacity="0.2" d="M115.786,209.171c-42.521,0-77.115-34.593-77.115-77.115v-3.672h154.23v3.672
			C192.901,174.578,158.308,209.171,115.786,209.171z M46.11,135.729c1.919,36.77,32.436,66.098,69.676,66.098
			c37.238,0,67.756-29.328,69.676-66.098H46.11z"/>
		<path fill="#4E017B" d="M119.458,209.171c-42.521,0-77.115-34.593-77.115-77.115v-3.672h154.23v3.672
			C196.573,174.578,161.979,209.171,119.458,209.171z M49.782,135.729c1.919,36.77,32.437,66.098,69.676,66.098
			c37.24,0,67.758-29.328,69.676-66.098H49.782z"/>
	</g>
	<g>
		<path fill="#7383BF" d="M68.288,184.739c-13.738-13.348-22.272-32.021-22.272-52.684c0-40.56,32.878-73.442,73.442-73.442v74.361
			L68.288,184.739z"/>
		<path opacity="0.2" d="M64.669,189.91l-2.611-2.537c-15.081-14.652-23.387-34.297-23.387-55.317
			c0-42.521,34.594-77.114,77.115-77.114h3.672v79.541L64.669,189.91z M112.114,62.381c-36.77,1.918-66.099,32.436-66.099,69.675
			c0,17.8,6.584,34.511,18.613,47.447l47.485-48.037V62.381z"/>
		<path fill="#4E017B" d="M68.341,189.91l-2.611-2.537c-15.08-14.652-23.387-34.297-23.387-55.317
			c0-42.521,34.594-77.114,77.115-77.114h3.672v79.541L68.341,189.91z M115.786,62.381c-36.77,1.918-66.099,32.436-66.099,69.675
			c0,17.8,6.584,34.511,18.614,47.447l47.484-48.037V62.381z"/>
	</g>
	<g>
		<path fill="#DD342F" d="M207.589,117.367c0-40.56-32.879-73.441-73.441-73.441v73.441H207.589z"/>
		<path opacity="0.2" d="M207.589,121.04h-80.787V40.253h3.672c42.523,0,77.115,34.593,77.115,77.114V121.04z M134.147,113.695
			h66.002c-1.854-35.553-30.451-64.148-66.002-66.003V113.695z"/>
		<path fill="#4E017B" d="M211.261,121.04h-80.787V40.253h3.674c42.521,0,77.113,34.593,77.113,77.114V121.04z M137.819,113.695
			h66.002c-1.854-35.553-30.451-64.148-66.002-66.003V113.695z"/>
	</g>
</g>
</svg>
