<?xml version="1.0" encoding="utf-8"?>
<!-- Generator: Adobe Illustrator 16.0.0, SVG Export Plug-In . SVG Version: 6.00 Build 0)  -->
<!DOCTYPE svg PUBLIC "-//W3C//DTD SVG 1.1//EN" "http://www.w3.org/Graphics/SVG/1.1/DTD/svg11.dtd">
<svg version="1.1" id="Layer_1" xmlns="http://www.w3.org/2000/svg" xmlns:xlink="http://www.w3.org/1999/xlink" x="0px" y="0px"
	 width="250px" height="250px" viewBox="0 0 250 250" enable-background="new 0 0 250 250" xml:space="preserve">
<g display="none">
	<g display="inline">
		<g opacity="0.2">
			<polygon points="-50.938,64.657 -54.509,64.657 -54.509,52.75 -45.644,52.75 -45.644,56.322 -50.938,56.322 			"/>
		</g>
		<g>
			<polygon fill="#4E017B" points="-49.151,64.657 -52.723,64.657 -52.723,52.75 -43.857,52.75 -43.857,56.322 -49.151,56.322 			
				"/>
		</g>
		<g opacity="0.2">
			<polygon points="-46.174,122.702 -46.174,119.13 -34.268,119.13 -34.268,127.996 -37.84,127.996 -37.84,122.702 			"/>
		</g>
		<g>
			<polygon fill="#4E017B" points="-44.389,122.702 -44.389,119.13 -32.482,119.13 -32.482,127.996 -36.054,127.996 
				-36.054,122.702 			"/>
		</g>
		<g opacity="0.2">
			<polygon fill="#4E017B" points="-97.374,71.801 -93.802,71.801 -93.802,59.895 -102.669,59.895 -102.669,63.467 -97.374,63.467 
							"/>
		</g>
		<g>
			<polygon fill="#4E017B" points="-95.588,71.801 -92.016,71.801 -92.016,59.895 -100.883,59.895 -100.883,63.467 -95.588,63.467 
							"/>
		</g>
	</g>
	<g display="inline">
		<path fill="#EBBA16" d="M-111.662,103.056c0,19.726,15.991,35.721,35.72,35.721c19.729,0,35.721-15.995,35.721-35.721H-111.662"/>
		<path opacity="0.2" d="M-77.728,140.563c-20.681,0-37.507-16.825-37.507-37.507v-1.786h75.013v1.786
			C-40.221,123.737-57.046,140.563-77.728,140.563z M-111.616,104.842c0.933,17.884,15.775,32.148,33.888,32.148
			c18.111,0,32.954-14.265,33.888-32.148H-111.616z"/>
		<path fill="#4E017B" d="M-75.942,140.563c-20.681,0-37.506-16.825-37.506-37.507v-1.786h75.013v1.786
			C-38.435,123.737-55.261,140.563-75.942,140.563z M-109.83,104.842c0.934,17.884,15.776,32.148,33.888,32.148
			c18.113,0,32.956-14.265,33.888-32.148H-109.83z"/>
	</g>
	<g display="inline">
		<path fill="#7383BF" d="M-100.829,128.68c-6.682-6.492-10.833-15.574-10.833-25.624c0-19.727,15.991-35.72,35.72-35.72v36.167
			L-100.829,128.68z"/>
		<path opacity="0.2" d="M-102.589,131.194l-1.27-1.233c-7.335-7.127-11.375-16.682-11.375-26.905
			c0-20.681,16.826-37.506,37.507-37.506h1.786v38.687L-102.589,131.194z M-79.514,69.168
			c-17.883,0.933-32.148,15.775-32.148,33.888c0,8.657,3.203,16.785,9.053,23.077l23.095-23.364V69.168z"/>
		<path fill="#4E017B" d="M-100.804,131.194l-1.27-1.233c-7.334-7.127-11.375-16.682-11.375-26.905
			c0-20.681,16.825-37.506,37.506-37.506h1.786v38.687L-100.804,131.194z M-77.728,69.168
			c-17.884,0.933-32.148,15.775-32.148,33.888c0,8.657,3.202,16.785,9.053,23.077l23.095-23.364V69.168z"/>
	</g>
	<g display="inline">
		<path fill="#DD342F" d="M-33.078,95.912c0-19.728-15.991-35.72-35.72-35.72v35.72H-33.078z"/>
		<path opacity="0.2" d="M-33.078,97.698H-72.37V58.405h1.786c20.682,0,37.506,16.825,37.506,37.507V97.698z M-68.797,94.126h32.102
			c-0.902-17.292-14.811-31.2-32.102-32.102V94.126z"/>
		<path fill="#4E017B" d="M-31.292,97.698h-39.292V58.405h1.787c20.681,0,37.506,16.825,37.506,37.507V97.698z M-67.011,94.126
			h32.101c-0.901-17.292-14.811-31.2-32.101-32.102V94.126z"/>
	</g>
	<g display="inline">
		<polygon fill="#4E017B" points="-77.169,80.73 -92.064,70.588 -87.625,69.293 -75.064,77.846 		"/>
	</g>
	<g display="inline">
		<polygon fill="#4E017B" points="-75.942,92.271 -99.208,76.839 -97.103,73.954 -75.942,87.989 		"/>
	</g>
	<g display="inline">
		<polygon fill="#4E017B" points="-75.942,102.986 -104.604,84 -102.499,81.115 -75.942,98.705 		"/>
	</g>
	<g display="inline">
		<polygon fill="#4E017B" points="-81.599,109.96 -109.031,91.832 -106.926,88.947 -79.265,107.224 		"/>
	</g>
	<g display="inline">
		<polygon fill="#4E017B" points="-87.997,116.432 -111.71,100.762 -109.605,97.877 -85.439,113.845 		"/>
	</g>
	<g display="inline">
		<polygon fill="#4E017B" points="-93.802,123.312 -111.71,111.478 -109.605,108.593 -91.848,120.327 		"/>
	</g>
	<g display="inline">
		<circle fill="#DD342F" cx="-33.97" cy="54.834" r="5.358"/>
		<path opacity="0.2" d="M-35.756,61.978c-3.939,0-7.145-3.205-7.145-7.144c0-3.939,3.205-7.145,7.145-7.145
			s7.144,3.205,7.144,7.145C-28.613,58.772-31.817,61.978-35.756,61.978z M-35.756,51.262c-1.97,0-3.572,1.603-3.572,3.572
			s1.602,3.571,3.572,3.571s3.572-1.602,3.572-3.571S-33.786,51.262-35.756,51.262z"/>
		<path fill="#4E017B" d="M-33.971,61.978c-3.939,0-7.144-3.205-7.144-7.144c0-3.939,3.204-7.145,7.144-7.145
			s7.145,3.205,7.145,7.145C-26.826,58.772-30.031,61.978-33.971,61.978z M-33.971,51.262c-1.97,0-3.572,1.603-3.572,3.572
			s1.602,3.571,3.572,3.571s3.572-1.602,3.572-3.571S-32,51.262-33.971,51.262z"/>
	</g>
	<g display="inline">
		<circle fill="#EBBA16" cx="-34.268" cy="137.819" r="5.358"/>
		<path opacity="0.2" d="M-36.054,144.964c-3.939,0-7.145-3.205-7.145-7.145c0-3.938,3.205-7.144,7.145-7.144
			s7.144,3.205,7.144,7.144C-28.91,141.759-32.114,144.964-36.054,144.964z M-36.054,134.248c-1.97,0-3.572,1.602-3.572,3.571
			s1.602,3.572,3.572,3.572s3.572-1.603,3.572-3.572S-34.083,134.248-36.054,134.248z"/>
		<path fill="#4E017B" d="M-34.268,144.964c-3.939,0-7.145-3.205-7.145-7.145c0-3.938,3.205-7.144,7.145-7.144
			s7.144,3.205,7.144,7.144C-27.125,141.759-30.329,144.964-34.268,144.964z M-34.268,134.248c-1.97,0-3.572,1.602-3.572,3.571
			s1.602,3.572,3.572,3.572s3.572-1.603,3.572-3.572S-32.298,134.248-34.268,134.248z"/>
	</g>
	<g display="inline">
		<circle fill="#7383BF" cx="-110.706" cy="61.618" r="5.358"/>
		<path opacity="0.2" d="M-112.492,68.763c-3.939,0-7.144-3.205-7.144-7.145c0-3.938,3.205-7.144,7.144-7.144
			s7.144,3.205,7.144,7.144C-105.348,65.558-108.553,68.763-112.492,68.763z M-112.492,58.046c-1.97,0-3.572,1.603-3.572,3.572
			c0,1.971,1.603,3.572,3.572,3.572s3.572-1.602,3.572-3.572C-108.92,59.648-110.522,58.046-112.492,58.046z"/>
		<path fill="#4E017B" d="M-110.707,68.763c-3.938,0-7.144-3.205-7.144-7.145c0-3.938,3.205-7.144,7.144-7.144
			c3.939,0,7.144,3.205,7.144,7.144C-103.563,65.558-106.768,68.763-110.707,68.763z M-110.707,58.046
			c-1.969,0-3.572,1.603-3.572,3.572c0,1.971,1.603,3.572,3.572,3.572c1.97,0,3.572-1.602,3.572-3.572
			C-107.134,59.648-108.736,58.046-110.707,58.046z"/>
	</g>
</g>
<path id="XMLID_1_" fill="#EBBA16" d="M105.556,115.742V87.963c0-14.268,3.51-25.816,10.435-34.325
	c3.536-4.345,7.113-6.747,9.009-7.825c1.901,1.082,5.478,3.483,9.01,7.825c6.924,8.509,10.436,20.058,10.436,34.325v27.779v26.243
	l-7.091,7.091h-24.708l-7.09-7.091V115.742z"/>
<path id="XMLID_4272_" fill="#1A3442" d="M125,100.925c7.147,0,12.963-5.816,12.963-12.962C137.963,80.816,132.147,75,125,75
	c-7.146,0-12.962,5.816-12.962,12.963C112.038,95.109,117.854,100.925,125,100.925z M125,82.406c3.063,0,5.555,2.492,5.555,5.557
	c0,3.064-2.492,5.556-5.555,5.556c-3.063,0-5.556-2.491-5.556-5.556C119.444,84.898,121.937,82.406,125,82.406z"/>
<path id="XMLID_4275_" fill="#1A3442" d="M198.792,109.673c-8.106-24.264-27.862-43.24-52.604-50.251
	c-2.1-4.592-4.52-8.169-6.769-10.867c-6.313-7.577-12.773-10.219-13.045-10.327c-0.881-0.353-1.867-0.353-2.749,0
	c-0.273,0.108-6.731,2.75-13.044,10.327c-2.25,2.698-4.669,6.276-6.771,10.867c-24.738,7.015-44.499,25.989-52.604,50.251
	C32.083,113.825,10,121.404,10,134.259c0,9.557,11.913,17.374,35.406,23.236c1.876,0.47,3.808,0.918,5.788,1.349
	c4.943,14.813,14.468,28.083,27.003,37.539c13.573,10.24,29.758,15.654,46.804,15.654c17.049,0,33.233-5.414,46.805-15.654
	c12.535-9.458,22.06-22.727,27.003-37.539c1.979-0.431,3.911-0.879,5.789-1.349C228.09,151.633,240,143.815,240,134.259
	C240,121.398,217.902,113.821,198.792,109.673z M195.311,131.349c-2.166,0.502-4.436,0.982-6.777,1.437
	c-6.973,1.344-14.655,2.455-22.792,3.309v-1.835c0-11.203-4.673-16.672-8.594-19.286c-1.876-1.25-3.748-1.97-5.294-2.381V87.963
	c0-7.661-0.972-14.189-2.481-19.72C175.333,77.858,194.127,102.369,195.311,131.349z M158.333,134.259v5.558h-6.479v-19.388
	C154.787,121.875,158.333,125.449,158.333,134.259z M105.556,115.742V87.963c0-14.268,3.51-25.816,10.435-34.325
	c3.536-4.345,7.113-6.747,9.009-7.825c1.901,1.082,5.478,3.483,9.01,7.825c6.924,8.509,10.436,20.058,10.436,34.325v27.779v26.243
	l-7.091,7.091h-24.708l-7.09-7.091V115.742z M100.628,68.25c-1.511,5.526-2.48,12.055-2.48,19.713v24.629
	c-1.548,0.411-3.417,1.13-5.296,2.381c-3.917,2.613-8.593,8.083-8.593,19.286v1.838c-8.137-0.856-15.817-1.968-22.789-3.312
	c-2.344-0.454-4.613-0.935-6.78-1.437C55.875,102.371,74.668,77.865,100.628,68.25z M98.148,120.429v19.388h-6.481v-5.558
	C91.667,125.449,95.214,121.875,98.148,120.429z M47.198,150.308c-21.989-5.488-29.79-12.075-29.79-16.049
	c0-4.588,9.818-11.279,31.575-16.478c-1.15,5.312-1.761,10.827-1.761,16.478c0,1.841,1.346,3.371,3.107,3.655
	c3.046,0.764,6.321,1.484,9.736,2.143c7.393,1.428,15.553,2.598,24.195,3.487c0.015,2.032,1.667,3.678,3.703,3.678h12.355
	l7.089,7.09v3.676C84.674,157.083,63.741,154.438,47.198,150.308z M79.924,188.17c-8.785-7.323-15.826-16.764-20.222-27.645
	c14.206,2.537,30.469,4.201,47.704,4.876v8.52c0,9.615-7.822,17.436-17.437,17.436C86.354,191.356,82.852,190.233,79.924,188.17z
	 M125,204.63c-10.342,0-20.333-2.323-29.382-6.519c10.986-2.566,19.197-12.435,19.197-24.19v-17.438h20.369v17.438
	c0,11.756,8.213,21.624,19.199,24.19C145.334,202.307,135.341,204.63,125,204.63z M170.077,188.17
	c-2.925,2.063-6.429,3.187-10.044,3.187c-9.616,0-17.441-7.82-17.441-17.436v-8.526c17.24-0.674,33.502-2.332,47.709-4.869
	C185.905,171.406,178.861,180.847,170.077,188.17z M202.803,150.308c-16.543,4.13-37.477,6.775-60.211,7.68v-3.676l7.092-7.09
	h12.354c2.039,0,3.689-1.646,3.704-3.678c8.644-0.89,16.802-2.06,24.194-3.487c3.417-0.658,6.692-1.379,9.739-2.143
	c1.76-0.287,3.104-1.814,3.104-3.655c0-5.651-0.608-11.166-1.763-16.479c21.761,5.201,31.576,11.892,31.576,16.479
	C232.592,138.232,224.792,144.819,202.803,150.308z"/>
<path id="XMLID_4316_" fill="#DD342F" d="M64.816,62.038h2.777v2.777c0,1.022,0.83,1.852,1.853,1.852
	c1.021,0,1.852-0.829,1.852-1.852v-2.777h2.777c1.021,0,1.852-0.83,1.852-1.852s-0.831-1.852-1.852-1.852h-2.777v-2.779
	c0-1.022-0.831-1.851-1.852-1.851c-1.023,0-1.853,0.828-1.853,1.851v2.779h-2.777c-1.023,0-1.853,0.83-1.853,1.852
	S63.793,62.038,64.816,62.038z"/>
<path id="XMLID_4317_" fill="#1A3442" d="M175.927,62.038h2.778v2.777c0,1.022,0.829,1.852,1.851,1.852
	c1.023,0,1.854-0.829,1.854-1.852v-2.777h2.778c1.021,0,1.851-0.83,1.851-1.852s-0.83-1.852-1.851-1.852h-2.778v-2.779
	c0-1.022-0.83-1.851-1.854-1.851c-1.021,0-1.851,0.828-1.851,1.851v2.779h-2.778c-1.021,0-1.851,0.83-1.851,1.852
	S174.905,62.038,175.927,62.038z"/>
<path id="XMLID_2_" fill="#7383BF" d="M125,82.406c3.063,0,5.555,2.492,5.555,5.557c0,3.064-2.492,5.556-5.555,5.556
	c-3.063,0-5.556-2.491-5.556-5.556C119.444,84.898,121.937,82.406,125,82.406z"/>
<path id="XMLID_3_" fill="#DD342F" d="M158.333,134.259v5.558h-6.479v-19.388C154.787,121.875,158.333,125.449,158.333,134.259z"/>
<path id="XMLID_4_" fill="#DD342F" d="M98.148,120.429v19.388h-6.481v-5.558C91.667,125.449,95.214,121.875,98.148,120.429z"/>
<path id="XMLID_5_" fill="#DD342F" d="M135.184,173.921c0,11.756,8.213,21.624,19.199,24.19c-9.049,4.195-19.042,6.519-29.383,6.519
	c-10.342,0-20.333-2.323-29.382-6.519c10.986-2.566,19.197-12.435,19.197-24.19v-17.438h20.369V173.921"/>
<path id="XMLID_6_" fill="#7383BF" d="M202.803,150.308c-16.543,4.13-37.477,6.775-60.211,7.68v-3.676l7.092-7.09h12.354
	c2.039,0,3.689-1.646,3.704-3.678c8.644-0.89,16.802-2.06,24.194-3.487c3.417-0.658,6.692-1.379,9.739-2.143
	c1.76-0.287,3.104-1.814,3.104-3.655c0-5.651-0.608-11.166-1.763-16.479c21.761,5.201,31.576,11.892,31.576,16.479
	C232.592,138.232,224.792,144.819,202.803,150.308z"/>
<path id="XMLID_7_" fill="#7383BF" d="M47.198,150.308c-21.989-5.488-29.79-12.075-29.79-16.049c0-4.588,9.818-11.279,31.575-16.478
	c-1.15,5.312-1.761,10.827-1.761,16.478c0,1.841,1.346,3.371,3.107,3.655c3.046,0.764,6.321,1.484,9.736,2.143
	c7.393,1.428,15.553,2.598,24.195,3.487c0.015,2.032,1.667,3.678,3.703,3.678h12.355l7.089,7.09v3.676
	C84.674,157.083,63.741,154.438,47.198,150.308z"/>
<path id="XMLID_4314_" fill="#DD342F" d="M157.409,99.073h2.779v2.779c0,1.023,0.829,1.852,1.85,1.852s1.851-0.829,1.851-1.852
	v-2.779h2.779c1.022,0,1.854-0.828,1.854-1.851c0-1.024-0.831-1.852-1.854-1.852h-2.779v-2.779c0-1.022-0.83-1.852-1.851-1.852
	s-1.85,0.829-1.85,1.852v2.779h-2.779c-1.024,0-1.854,0.828-1.854,1.852C155.555,98.246,156.385,99.073,157.409,99.073z"/>
<path id="XMLID_4315_" fill="#7383BF" d="M83.335,99.073h2.777v2.779c0,1.023,0.829,1.852,1.852,1.852
	c1.022,0,1.853-0.829,1.853-1.852v-2.779h2.777c1.021,0,1.852-0.828,1.852-1.851c0-1.024-0.831-1.852-1.852-1.852h-2.777v-2.779
	c0-1.022-0.831-1.852-1.853-1.852c-1.023,0-1.852,0.829-1.852,1.852v2.779h-2.777c-1.023,0-1.852,0.828-1.852,1.852
	C81.483,98.246,82.312,99.073,83.335,99.073z"/>
<path id="XMLID_4318_" fill="#EBBA16" d="M157.409,177.791h2.779v2.779c0,1.025,0.829,1.854,1.85,1.854s1.851-0.828,1.851-1.854
	v-2.779h2.779c1.022,0,1.854-0.825,1.854-1.851c0-1.022-0.831-1.85-1.854-1.85h-2.779v-2.779c0-1.022-0.83-1.854-1.851-1.854
	s-1.85,0.831-1.85,1.854v2.779h-2.779c-1.024,0-1.854,0.827-1.854,1.85C155.555,176.966,156.385,177.791,157.409,177.791z"/>
<path id="XMLID_4319_" fill="#1A3442" d="M92.593,174.091h-2.777v-2.779c0-1.022-0.831-1.854-1.853-1.854
	c-1.023,0-1.852,0.831-1.852,1.854v2.779h-2.777c-1.023,0-1.852,0.827-1.852,1.85c0,1.025,0.829,1.851,1.852,1.851h2.777v2.779
	c0,1.025,0.829,1.854,1.852,1.854c1.022,0,1.853-0.828,1.853-1.854v-2.779h2.777c1.021,0,1.852-0.825,1.852-1.851
	C94.445,174.918,93.615,174.091,92.593,174.091z"/>
</svg>
