<?xml version="1.0" encoding="utf-8"?>
<!-- Generator: Adobe Illustrator 16.0.0, SVG Export Plug-In . SVG Version: 6.00 Build 0)  -->
<!DOCTYPE svg PUBLIC "-//W3C//DTD SVG 1.1//EN" "http://www.w3.org/Graphics/SVG/1.1/DTD/svg11.dtd">
<svg version="1.1" id="Layer_1" xmlns="http://www.w3.org/2000/svg" xmlns:xlink="http://www.w3.org/1999/xlink" x="0px" y="0px"
	 width="250px" height="250px" viewBox="0 0 250 250" enable-background="new 0 0 250 250" xml:space="preserve">
<g>
	<g>
		<rect x="164" y="161.946" fill="#EBBA16" width="66" height="59"/>
		<path opacity="0.2" d="M230,224.946h-74v-67h74V224.946z M163,216.946h59v-51h-59V216.946z"/>
		<path fill="#4E017B" d="M234,224.946h-74v-67h74V224.946z M168,216.946h58v-51h-58V216.946z"/>
	</g>
	<g>
		<rect x="94" y="96.946" fill="#7383BF" width="70" height="124"/>
		<path opacity="0.2" d="M163,224.946H86v-132h77V224.946z M93,216.946h63v-116H93V216.946z"/>
		<path fill="#4E017B" d="M168,224.946H90v-132h78V224.946z M97,216.946h63v-116H97V216.946z"/>
	</g>
	<g>
		<rect x="28" y="128.946" fill="#DD342F" width="66" height="92"/>
		<path opacity="0.2" d="M93,224.946H19v-99h74V224.946z M27,216.946h59v-84H27V216.946z"/>
		<path fill="#4E017B" d="M97,224.946H24v-99h73V224.946z M31,216.946h59v-84H31V216.946z"/>
	</g>
	<g>
		<path fill="#4E017B" d="M239.219,224.946H10.781c-1.933,0-3.5-1.567-3.5-3.5s1.567-3.5,3.5-3.5h228.438c1.933,0,3.5,1.567,3.5,3.5
			S241.151,224.946,239.219,224.946z"/>
	</g>
	<g>
		<g>
			<path fill="#EBBA16" d="M219.197,118.344c0.731,0.112,1.307,0.45,1.729,1.013s0.618,1.181,0.591,1.855s-0.296,1.265-0.802,1.771
				l-8.94,8.688l2.108,12.314c0.112,0.675-0.015,1.308-0.379,1.897c-0.365,0.591-0.886,0.97-1.561,1.139s-1.322,0.085-1.94-0.253
				l-11.049-5.735l-11.05,5.735c-0.617,0.338-1.265,0.422-1.939,0.253s-1.195-0.548-1.561-1.139c-0.364-0.59-0.491-1.223-0.38-1.897
				l2.109-12.314l-8.941-8.688c-0.506-0.507-0.773-1.097-0.801-1.771s0.169-1.293,0.591-1.855c0.421-0.563,0.997-0.9,1.729-1.013
				l12.314-1.771l5.482-11.134c0.338-0.675,0.829-1.125,1.477-1.35c0.646-0.226,1.292-0.226,1.939,0
				c0.647,0.225,1.139,0.675,1.477,1.35l5.482,11.134L219.197,118.344z"/>
		</g>
		<g opacity="0.2">
			<path d="M215.958,118.344c0.731,0.112,1.308,0.45,1.729,1.013c0.421,0.563,0.617,1.181,0.59,1.855s-0.295,1.265-0.801,1.771
				l-8.941,8.688l2.109,12.314c0.111,0.675-0.015,1.308-0.38,1.897c-0.365,0.591-0.886,0.97-1.561,1.139s-1.322,0.085-1.939-0.253
				l-11.05-5.735l-11.049,5.735c-0.618,0.338-1.266,0.422-1.94,0.253s-1.195-0.548-1.561-1.139c-0.364-0.59-0.491-1.223-0.379-1.897
				l2.108-12.314l-8.94-8.688c-0.506-0.507-0.774-1.097-0.802-1.771s0.169-1.293,0.591-1.855s0.997-0.9,1.729-1.013l12.313-1.771
				l5.483-11.134c0.337-0.675,0.828-1.125,1.476-1.35c0.647-0.226,1.293-0.226,1.939,0c0.647,0.225,1.139,0.675,1.477,1.35
				l5.482,11.134L215.958,118.344z M204.234,130.237l8.434-8.267l-11.724-1.687l-5.229-10.628l-5.229,10.628l-11.724,1.687
				l8.435,8.267l-1.94,11.724l10.459-5.566l10.459,5.566L204.234,130.237z"/>
		</g>
		<g>
			<path fill="#4E017B" d="M219.197,118.344c0.731,0.112,1.307,0.45,1.729,1.013s0.618,1.181,0.591,1.855s-0.296,1.265-0.802,1.771
				l-8.94,8.688l2.108,12.314c0.112,0.675-0.015,1.308-0.379,1.897c-0.365,0.591-0.886,0.97-1.561,1.139s-1.322,0.085-1.94-0.253
				l-11.049-5.735l-11.05,5.735c-0.617,0.338-1.265,0.422-1.939,0.253s-1.195-0.548-1.561-1.139c-0.364-0.59-0.491-1.223-0.38-1.897
				l2.109-12.314l-8.941-8.688c-0.506-0.507-0.773-1.097-0.801-1.771s0.169-1.293,0.591-1.855c0.421-0.563,0.997-0.9,1.729-1.013
				l12.314-1.771l5.482-11.134c0.338-0.675,0.829-1.125,1.477-1.35c0.646-0.226,1.292-0.226,1.939,0
				c0.647,0.225,1.139,0.675,1.477,1.35l5.482,11.134L219.197,118.344z M207.473,130.237l8.435-8.267l-11.724-1.687l-5.229-10.628
				l-5.229,10.628l-11.724,1.687l8.435,8.267l-1.94,11.724l10.459-5.566l10.459,5.566L207.473,130.237z"/>
		</g>
	</g>
	<g>
		<g>
			<path fill="#EBBA16" d="M76.147,85.955c0.73,0.112,1.307,0.449,1.729,1.012s0.618,1.181,0.591,1.855
				c-0.028,0.675-0.296,1.266-0.802,1.771l-8.94,8.688l2.108,12.314c0.112,0.675-0.014,1.308-0.379,1.898
				c-0.366,0.59-0.886,0.97-1.561,1.139c-0.675,0.168-1.322,0.084-1.94-0.254l-11.049-5.735l-11.05,5.735
				c-0.618,0.338-1.265,0.422-1.939,0.254c-0.675-0.169-1.195-0.549-1.561-1.139c-0.365-0.591-0.492-1.224-0.38-1.898l2.109-12.314
				l-8.941-8.688c-0.506-0.506-0.772-1.097-0.801-1.771s0.169-1.293,0.591-1.855c0.421-0.563,0.997-0.899,1.729-1.012l12.314-1.771
				l5.482-11.134c0.338-0.675,0.829-1.124,1.477-1.35c0.646-0.225,1.293-0.225,1.939,0c0.646,0.226,1.139,0.675,1.477,1.35
				l5.482,11.134L76.147,85.955z"/>
		</g>
		<g opacity="0.2">
			<path d="M72.908,85.955c0.731,0.112,1.308,0.449,1.729,1.012c0.421,0.563,0.618,1.181,0.59,1.855s-0.295,1.266-0.801,1.771
				l-8.941,8.688l2.109,12.314c0.112,0.675-0.015,1.308-0.38,1.898c-0.365,0.59-0.886,0.97-1.561,1.139
				c-0.675,0.168-1.321,0.084-1.939-0.254l-11.05-5.735l-11.049,5.735c-0.618,0.338-1.266,0.422-1.94,0.254
				c-0.675-0.169-1.194-0.549-1.561-1.139c-0.365-0.591-0.491-1.224-0.379-1.898l2.108-12.314l-8.94-8.688
				c-0.506-0.506-0.773-1.097-0.802-1.771c-0.027-0.675,0.169-1.293,0.591-1.855s0.998-0.899,1.729-1.012l12.313-1.771L50.22,73.05
				c0.337-0.675,0.829-1.124,1.476-1.35c0.646-0.225,1.293-0.225,1.939,0c0.647,0.226,1.139,0.675,1.477,1.35l5.482,11.134
				L72.908,85.955z M61.185,97.848l8.435-8.266l-11.725-1.688l-5.229-10.627l-5.229,10.627l-11.724,1.688l8.435,8.266l-1.94,11.724
				l10.459-5.566l10.459,5.566L61.185,97.848z"/>
		</g>
		<g>
			<path fill="#4E017B" d="M76.147,85.955c0.73,0.112,1.307,0.449,1.729,1.012s0.618,1.181,0.591,1.855
				c-0.028,0.675-0.296,1.266-0.802,1.771l-8.94,8.688l2.108,12.314c0.112,0.675-0.014,1.308-0.379,1.898
				c-0.366,0.59-0.886,0.97-1.561,1.139c-0.675,0.168-1.322,0.084-1.94-0.254l-11.049-5.735l-11.05,5.735
				c-0.618,0.338-1.265,0.422-1.939,0.254c-0.675-0.169-1.195-0.549-1.561-1.139c-0.365-0.591-0.492-1.224-0.38-1.898l2.109-12.314
				l-8.941-8.688c-0.506-0.506-0.772-1.097-0.801-1.771s0.169-1.293,0.591-1.855c0.421-0.563,0.997-0.899,1.729-1.012l12.314-1.771
				l5.482-11.134c0.338-0.675,0.829-1.124,1.477-1.35c0.646-0.225,1.293-0.225,1.939,0c0.646,0.226,1.139,0.675,1.477,1.35
				l5.482,11.134L76.147,85.955z M64.423,97.848l8.435-8.266l-11.724-1.688l-5.229-10.627l-5.229,10.627l-11.724,1.688l8.435,8.266
				l-1.94,11.724l10.459-5.566l10.459,5.566L64.423,97.848z"/>
		</g>
	</g>
	<g>
		<path fill="#EBBA16" d="M156.688,45.124c1.403-1.97,2.313-3.976,2.313-5.96v-6.431c0-0.352-0.3-0.436-0.515-0.651
			s-0.678-0.136-1.029-0.136H145v-5.961c0-0.351-0.047-0.562-0.262-0.777c-0.216-0.215-0.427-0.262-0.777-0.262h-30.364
			c-0.352,0-0.84,0.047-1.056,0.262c-0.216,0.216-0.541,0.427-0.541,0.777v5.961h-11.899c-0.351,0-0.592-0.08-0.808,0.136
			S99,32.382,99,32.733v6.431c0,1.984,0.688,3.99,2.091,5.96c1.428,2.006,3.403,3.801,5.895,5.336
			c2.495,1.539,5.316,2.596,8.398,3.145l0.274,0.049l0.116,0.256c1.298,2.801,2.956,5.118,4.931,6.889
			c1.817,1.548,3.84,2.611,5.793,3.149L127,64.057v9.89h-7.5c-1.055,0-1.913,0.25-2.623,0.96c-0.709,0.71-1.054,1.521-1.054,2.577
			c0,0.028,0,0.172,0.105,0.277s0.17,0.186,0.198,0.186h25.304c0.027,0,0.093-0.104,0.198-0.209s0.105-0.222,0.105-0.249
			c0-1.056-0.345-1.847-1.055-2.557c-0.709-0.709-1.567-0.985-2.623-0.985H131v-9.89l0.281-0.109
			c1.952-0.538,3.812-1.602,5.64-3.158c1.964-1.762,3.593-4.079,4.894-6.88l0.103-0.256l0.269-0.049
			c3.082-0.549,6.005-1.605,8.501-3.145C153.177,48.925,155.26,47.13,156.688,45.124z"/>
		<path opacity="0.2" d="M154.107,45.124c1.404-1.97,1.893-3.976,1.893-5.96v-6.431c0-0.352,0.121-0.436-0.094-0.651
			c-0.217-0.216-0.259-0.136-0.609-0.136H143v-5.961c0-0.351-0.127-0.562-0.342-0.777c-0.215-0.215-0.506-0.262-0.856-0.262h-30.364
			c-0.352,0-0.761,0.047-0.977,0.262c-0.215,0.216-0.461,0.427-0.461,0.777v5.961H97.941c-0.351,0-0.513-0.08-0.728,0.136
			C96.998,32.298,97,32.382,97,32.733v6.431c0,1.984,0.608,3.99,2.011,5.96c1.428,2.006,3.363,3.801,5.854,5.336
			c2.496,1.539,5.298,2.596,8.379,3.145l0.264,0.049l0.112,0.256c1.298,2.801,2.954,5.118,4.929,6.889
			c1.817,1.548,3.918,2.611,5.87,3.149L125,64.057v9.89h-7.659c-1.055,0-1.913,0.25-2.623,0.96c-0.709,0.71-1.054,1.521-1.054,2.577
			c0,0.028,0,0.172,0.105,0.277s0.17,0.186,0.198,0.186h25.304c0.027,0,0.093-0.104,0.198-0.209s0.105-0.222,0.105-0.249
			c0-1.056-0.345-1.847-1.055-2.557c-0.71-0.709-1.567-0.985-2.623-0.985H129v-9.89l0.201-0.109
			c1.953-0.538,3.772-1.602,5.601-3.158c1.964-1.762,3.573-4.079,4.872-6.88l0.094-0.256l0.264-0.049
			c3.082-0.549,5.791-1.605,8.288-3.145C150.81,48.925,152.68,47.13,154.107,45.124z M110.837,48.951
			c-2.876-1.006-5.173-2.468-7.05-4.345c-1.924-1.923-2.787-3.755-2.787-5.442v-3.218h9v0.16c0,4.715,0.565,8.822,1.395,12.207
			l0.31,0.967L110.837,48.951z M139,36.95c0,4.749-0.666,8.995-1.945,12.621c-1.072,3.358-2.616,6.023-4.57,7.905
			c-1.847,1.847-3.824,2.787-5.861,2.787s-4.048-0.976-5.972-2.899c-1.878-1.879-3.548-4.538-4.693-7.904
			C114.749,45.834,114,41.626,114,36.95v-8.004h25V36.95z M142.401,48.951l-0.939,0.329l0.263-0.967
			c0.83-3.385,1.275-7.492,1.275-12.207v-0.16h9v3.218c0,1.688-0.744,3.52-2.668,5.442
			C147.455,46.483,145.277,47.945,142.401,48.951z"/>
		<path fill="#4E017B" d="M156.688,45.124c1.403-1.97,2.313-3.976,2.313-5.96v-6.431c0-0.352-0.3-0.436-0.515-0.651
			s-0.678-0.136-1.029-0.136H145v-5.961c0-0.351-0.047-0.562-0.262-0.777c-0.216-0.215-0.427-0.262-0.777-0.262h-30.364
			c-0.352,0-0.84,0.047-1.056,0.262c-0.216,0.216-0.541,0.427-0.541,0.777v5.961h-11.899c-0.351,0-0.592-0.08-0.808,0.136
			S99,32.382,99,32.733v6.431c0,1.984,0.688,3.99,2.091,5.96c1.428,2.006,3.403,3.801,5.895,5.336
			c2.495,1.539,5.316,2.596,8.398,3.145l0.274,0.049l0.116,0.256c1.298,2.801,2.956,5.118,4.931,6.889
			c1.817,1.548,3.84,2.611,5.793,3.149L127,64.057v9.89h-7.5c-1.055,0-1.913,0.25-2.623,0.96c-0.709,0.71-1.054,1.521-1.054,2.577
			c0,0.028,0,0.172,0.105,0.277s0.17,0.186,0.198,0.186h25.304c0.027,0,0.093-0.104,0.198-0.209s0.105-0.222,0.105-0.249
			c0-1.056-0.345-1.847-1.055-2.557c-0.709-0.709-1.567-0.985-2.623-0.985H131v-9.89l0.281-0.109
			c1.952-0.538,3.812-1.602,5.64-3.158c1.964-1.762,3.593-4.079,4.894-6.88l0.103-0.256l0.269-0.049
			c3.082-0.549,6.005-1.605,8.501-3.145C153.177,48.925,155.26,47.13,156.688,45.124z M112.996,48.951
			c-2.876-1.006-5.253-2.468-7.129-4.345c-1.924-1.923-2.867-3.755-2.867-5.442v-3.218h9v0.16c0,4.715,0.646,8.822,1.475,12.207
			l0.349,0.967L112.996,48.951z M141,36.95c0,4.749-0.586,8.995-1.865,12.621c-1.072,3.358-2.576,6.023-4.531,7.905
			c-1.846,1.847-3.804,2.787-5.841,2.787c-2.036,0-4.038-0.976-5.962-2.899c-1.878-1.879-3.623-4.538-4.769-7.904
			C116.823,45.834,116,41.626,116,36.95v-8.004h25V36.95z M144.561,48.951l-0.939,0.329l0.183-0.967
			c0.83-3.385,1.196-7.492,1.196-12.207v-0.16h10v3.218c0,1.688-1.164,3.52-3.088,5.442
			C150.035,46.483,147.437,47.945,144.561,48.951z"/>
	</g>
</g>
</svg>
