<?xml version="1.0" encoding="utf-8"?>
<!-- Generator: Adobe Illustrator 16.0.0, SVG Export Plug-In . SVG Version: 6.00 Build 0)  -->
<!DOCTYPE svg PUBLIC "-//W3C//DTD SVG 1.1//EN" "http://www.w3.org/Graphics/SVG/1.1/DTD/svg11.dtd">
<svg version="1.1" id="Layer_1" xmlns="http://www.w3.org/2000/svg" xmlns:xlink="http://www.w3.org/1999/xlink" x="0px" y="0px"
	 width="250px" height="250px" viewBox="0 0 250 250" enable-background="new 0 0 250 250" xml:space="preserve">
<g>
	<g opacity="0.2">
		<path d="M217.57,203.915H50.157V32.668H28.43c-2.117,0-3.834-1.717-3.834-3.834S26.313,25,28.43,25h29.395v171.248H217.57
			c2.117,0,3.834,1.716,3.834,3.834C221.404,202.199,219.688,203.915,217.57,203.915z"/>
	</g>
	<g>
		<path fill="#4E017B" d="M219.57,203.915H52.157V32.668H30.43c-2.117,0-3.834-1.717-3.834-3.834S28.313,25,30.43,25h29.395v171.248
			H219.57c2.117,0,3.834,1.716,3.834,3.834C223.404,202.199,221.688,203.915,219.57,203.915z"/>
	</g>
	<g>
		<path fill="#7383BF" d="M81.229,221.166c-5.813,0-10.543-4.73-10.543-10.543s4.73-10.543,10.543-10.543s10.543,4.73,10.543,10.543
			S87.042,221.166,81.229,221.166z"/>
		<path opacity="0.2" d="M79.229,203.914c3.699,0,6.71,3.01,6.71,6.709s-3.011,6.709-6.71,6.709s-6.709-3.01-6.709-6.709
			S75.53,203.914,79.229,203.914 M79.229,196.246c-7.939,0-14.377,6.438-14.377,14.377S71.29,225,79.229,225
			s14.377-6.438,14.377-14.377S87.169,196.246,79.229,196.246L79.229,196.246z"/>
		<path fill="#4E017B" d="M81.229,203.914c3.699,0,6.71,3.01,6.71,6.709s-3.011,6.709-6.71,6.709s-6.709-3.01-6.709-6.709
			S77.53,203.914,81.229,203.914 M81.229,196.246c-7.939,0-14.377,6.438-14.377,14.377S73.29,225,81.229,225
			s14.377-6.438,14.377-14.377S89.169,196.246,81.229,196.246L81.229,196.246z"/>
	</g>
	<g>
		<path fill="#7383BF" d="M195.289,221.166c-5.813,0-10.544-4.73-10.544-10.543s4.73-10.543,10.544-10.543
			c5.813,0,10.543,4.73,10.543,10.543S201.102,221.166,195.289,221.166z"/>
		<path opacity="0.2" d="M193.289,203.914c3.698,0,6.709,3.01,6.709,6.709s-3.011,6.709-6.709,6.709c-3.699,0-6.71-3.01-6.71-6.709
			S189.59,203.914,193.289,203.914 M193.289,196.246c-7.939,0-14.378,6.438-14.378,14.377S185.35,225,193.289,225
			c7.938,0,14.377-6.438,14.377-14.377S201.228,196.246,193.289,196.246L193.289,196.246z"/>
		<path fill="#4E017B" d="M195.289,203.914c3.698,0,6.709,3.01,6.709,6.709s-3.011,6.709-6.709,6.709c-3.699,0-6.71-3.01-6.71-6.709
			S191.59,203.914,195.289,203.914 M195.289,196.246c-7.939,0-14.378,6.438-14.378,14.377S187.35,225,195.289,225
			c7.938,0,14.377-6.438,14.377-14.377S203.228,196.246,195.289,196.246L195.289,196.246z"/>
	</g>
	<g>
		<g>
			<rect x="145.447" y="122.284" fill="#EBBA16" width="54.475" height="54.474"/>
			<path opacity="0.2" d="M194.088,126.118v46.806h-46.807v-46.806H194.088 M201.756,180.592V118.45 M201.756,118.45h-62.143v62.142
				h62.143V118.45L201.756,118.45z"/>
			<path fill="#4E017B" d="M196.088,126.118v46.806h-46.807v-46.806H196.088 M203.756,180.592V118.45 M203.756,118.45h-62.143
				v62.142h62.143V118.45L203.756,118.45z"/>
			<path fill="#4E017B" d="M196.088,126.118v8.467h-46.807v-8.467H196.088 M203.756,180.592V118.45 M203.756,118.45h-62.143v23.803
				h62.143V118.45L203.756,118.45z"/>
		</g>
		<rect x="172.924" y="156.789" fill="#4E017B" width="7.668" height="11.502"/>
		<rect x="184.425" y="156.789" fill="#4E017B" width="7.668" height="11.502"/>
		<g>
			<rect x="164.617" y="122.284" fill="#7383BF" width="16.135" height="23.803"/>
			<path opacity="0.2" d="M174.918,126.118v16.135h-8.467v-16.135H174.918 M182.586,118.45h-23.803v31.471h23.803V118.45
				L182.586,118.45z"/>
			<path fill="#4E017B" d="M176.918,126.118v16.135h-8.467v-16.135H176.918 M184.586,118.45h-23.803v31.471h23.803V118.45
				L184.586,118.45z"/>
		</g>
	</g>
	<g>
		<g>
			<rect x="74.521" y="122.284" fill="#EBBA16" width="54.474" height="54.474"/>
			<path opacity="0.2" d="M123.16,126.118v46.806H76.354v-46.806H123.16 M130.828,180.592V118.45 M130.828,118.45H68.687v62.142
				h62.142V118.45L130.828,118.45z"/>
			<path fill="#4E017B" d="M125.16,126.118v46.806H78.354v-46.806H125.16 M132.828,180.592V118.45 M132.828,118.45H70.687v62.142
				h62.142V118.45L132.828,118.45z"/>
			<path fill="#4E017B" d="M125.16,126.118v8.467H78.354v-8.467H125.16 M132.828,180.592V118.45 M132.828,118.45H70.687v23.803
				h62.142V118.45L132.828,118.45z"/>
		</g>
		<rect x="101.996" y="156.789" fill="#4E017B" width="7.668" height="11.502"/>
		<rect x="113.498" y="156.789" fill="#4E017B" width="7.668" height="11.502"/>
		<g>
			<rect x="93.689" y="122.284" fill="#7383BF" width="16.135" height="23.803"/>
			<path opacity="0.2" d="M103.991,126.118v16.135h-8.468v-16.135H103.991 M111.658,118.45H87.855v31.471h23.803V118.45
				L111.658,118.45z"/>
			<path fill="#4E017B" d="M105.991,126.118v16.135h-8.468v-16.135H105.991 M113.658,118.45H89.855v31.471h23.803V118.45
				L113.658,118.45z"/>
		</g>
	</g>
	<g>
		<g>
			<rect x="74.521" y="51.356" fill="#EBBA16" width="54.474" height="54.474"/>
			<path opacity="0.2" d="M123.16,55.19v46.807H76.354V55.19H123.16 M130.828,109.664V47.522 M130.828,47.522H68.687v62.142h62.142
				V47.522L130.828,47.522z"/>
			<path fill="#4E017B" d="M125.16,55.19v46.807H78.354V55.19H125.16 M132.828,109.664V47.522 M132.828,47.522H70.687v62.142h62.142
				V47.522L132.828,47.522z"/>
			<path fill="#4E017B" d="M125.16,55.19v8.467H78.354V55.19H125.16 M132.828,109.664V47.522 M132.828,47.522H70.687v23.803h62.142
				V47.522L132.828,47.522z"/>
		</g>
		<rect x="101.996" y="85.861" fill="#4E017B" width="7.668" height="11.502"/>
		<rect x="113.498" y="85.861" fill="#4E017B" width="7.668" height="11.502"/>
		<g>
			<rect x="93.689" y="51.356" fill="#7383BF" width="16.135" height="23.803"/>
			<path opacity="0.2" d="M103.991,55.19v16.135h-8.468V55.19H103.991 M111.658,47.522H87.855v31.471h23.803V47.522L111.658,47.522z
				"/>
			<path fill="#4E017B" d="M105.991,55.19v16.135h-8.468V55.19H105.991 M113.658,47.522H89.855v31.471h23.803V47.522L113.658,47.522
				z"/>
		</g>
	</g>
</g>
</svg>
