<?xml version="1.0" encoding="utf-8"?>
<!-- Generator: Adobe Illustrator 16.0.0, SVG Export Plug-In . SVG Version: 6.00 Build 0)  -->
<!DOCTYPE svg PUBLIC "-//W3C//DTD SVG 1.1//EN" "http://www.w3.org/Graphics/SVG/1.1/DTD/svg11.dtd">
<svg version="1.1" id="Layer_1" xmlns="http://www.w3.org/2000/svg" xmlns:xlink="http://www.w3.org/1999/xlink" x="0px" y="0px"
	 width="250px" height="250px" viewBox="0 0 250 250" enable-background="new 0 0 250 250" xml:space="preserve">
<g>
	<g>
		<g>
			<path fill="#7383BF" d="M111.457,25.834c-9.501,0-18.506,2.356-26.77,7.003c-8.269,4.651-14.974,11.043-19.934,19
				c-4.956,7.945-7.678,16.793-8.089,26.292l-0.073,1.693l-1.599,0.56C46.202,83.445,39,88.888,33.583,96.554
				c-5.42,7.668-8.167,16.329-8.167,25.738c0,7.969,2.019,15.428,5.998,22.166c3.996,6.759,9.448,12.213,16.211,16.209
				c6.738,3.981,14.192,6,22.164,6h119.792c7.115,0,13.76-1.75,19.746-5.2c5.99-3.449,10.771-8.234,14.221-14.22
				c3.451-5.987,5.201-12.632,5.201-19.747c0-7.094-1.904-13.832-5.66-20.025c-3.764-6.207-8.871-11.108-15.178-14.567l-1.721-0.942
				l0.508-1.894c0.807-3.03,1.217-6.208,1.217-9.446c0-6.037-1.529-11.75-4.549-16.98c-3.016-5.231-7.197-9.412-12.432-12.431
				c-5.229-3.018-10.941-4.547-16.979-4.547c-5.025,0-9.922,1.123-14.547,3.336l-1.93,0.922l-1.213-1.764
				c-4.947-7.22-11.438-12.976-19.283-17.106C129.141,27.926,120.551,25.834,111.457,25.834z"/>
		</g>
	</g>
	<g opacity="0.2">
		<g>
			<g>
				<path d="M107.29,25.834c-9.501,0-18.506,2.356-26.77,7.003c-8.268,4.651-14.974,11.043-19.934,19
					c-4.956,7.945-7.678,16.793-8.089,26.292l-0.073,1.693l-1.599,0.56c-8.789,3.064-15.991,8.506-21.407,16.172
					c-5.42,7.668-8.167,16.329-8.167,25.738c0,7.969,2.018,15.428,5.998,22.166c3.996,6.759,9.448,12.213,16.211,16.209
					c6.738,3.981,14.193,6,22.164,6h119.791c7.117,0,13.762-1.75,19.748-5.2c5.988-3.449,10.77-8.234,14.221-14.22
					c3.451-5.987,5.199-12.632,5.199-19.747c0-7.094-1.904-13.832-5.658-20.025c-3.766-6.207-8.871-11.108-15.178-14.567
					l-1.723-0.942l0.51-1.894c0.805-3.03,1.217-6.208,1.217-9.446c0-6.037-1.531-11.75-4.549-16.98
					c-3.016-5.231-7.199-9.412-12.432-12.431c-5.229-3.018-10.941-4.547-16.98-4.547c-5.025,0-9.92,1.123-14.547,3.336l-1.928,0.922
					l-1.213-1.764c-4.947-7.22-11.438-12.976-19.283-17.106C124.974,27.926,116.384,25.834,107.29,25.834z M185.414,161.251H65.623
					c-6.925,0-13.477-1.756-19.479-5.219c-6.001-3.463-10.799-8.26-14.262-14.262s-5.216-12.555-5.216-19.479
					c0-9.705,3.279-18.313,9.745-25.586c5.908-6.648,13.175-10.882,21.619-12.61c-0.077-1.123-0.114-2.283-0.114-3.471
					c0-8.876,2.25-17.192,6.693-24.709c4.431-7.495,10.478-13.542,17.973-17.971c7.516-4.443,15.829-6.695,24.707-6.695
					c10.238,0,19.593,2.889,27.796,8.583c7.152,4.97,12.637,11.324,16.336,18.927c5.143-4.434,11.197-6.677,18.043-6.677
					c8.031,0,14.924,2.82,20.486,8.382c5.563,5.563,8.383,12.343,8.383,20.16c0,5.269-1.295,10.075-3.854,14.329
					c6.51,1.823,12.076,5.365,16.586,10.561c5.375,6.191,8.102,13.588,8.102,21.984c0,9.329-3.316,17.369-9.848,23.903
					C202.785,157.938,194.74,161.251,185.414,161.251z"/>
				<path d="M185.414,167.501H65.623c-8.122,0-15.723-2.059-22.587-6.116c-6.885-4.066-12.435-9.621-16.504-16.502
					c-4.057-6.87-6.116-14.471-6.116-22.591c0-9.584,2.799-18.406,8.321-26.219c5.518-7.813,12.858-13.356,21.81-16.479l1.066-0.372
					l0.049-1.127c0.419-9.648,3.182-18.63,8.215-26.699c5.034-8.073,11.841-14.563,20.235-19.285C88.503,27.393,97.646,25,107.29,25
					c9.233,0,17.953,2.126,25.916,6.319c7.967,4.193,14.559,10.038,19.584,17.371l0.811,1.176l1.285-0.614
					c4.74-2.267,9.758-3.418,14.904-3.418c6.186,0,12.037,1.566,17.4,4.659c5.357,3.095,9.643,7.379,12.73,12.736
					c3.094,5.361,4.664,11.212,4.664,17.397c0,3.312-0.42,6.563-1.25,9.662L203,91.549l1.145,0.628
					c6.438,3.53,11.648,8.533,15.49,14.866c3.838,6.323,5.783,13.206,5.783,20.457c0,7.264-1.791,14.049-5.314,20.164
					c-3.523,6.116-8.412,11.003-14.523,14.524C199.465,165.713,192.678,167.501,185.414,167.501z M107.29,26.666
					c-9.354,0-18.225,2.322-26.359,6.897c-8.146,4.583-14.754,10.88-19.641,18.715c-4.875,7.82-7.556,16.532-7.959,25.887
					l-0.098,2.258l-2.136,0.743c-8.618,3.009-15.682,8.346-21,15.867c-5.318,7.526-8.016,16.024-8.016,25.258
					c0,7.818,1.981,15.133,5.888,21.743c3.923,6.636,9.277,11.991,15.914,15.913c6.608,3.906,13.92,5.885,21.741,5.885h119.791
					c6.971,0,13.473-1.712,19.332-5.089c5.855-3.373,10.539-8.055,13.912-13.914c3.377-5.859,5.09-12.361,5.09-19.33
					c0-6.941-1.863-13.533-5.537-19.592c-3.688-6.081-8.688-10.883-14.869-14.268l-2.289-1.257l0.674-2.527
					c0.791-2.956,1.189-6.063,1.189-9.23c0-5.89-1.494-11.46-4.436-16.563c-2.941-5.101-7.023-9.182-12.125-12.128
					c-5.104-2.941-10.678-4.435-16.566-4.435c-4.898,0-9.672,1.097-14.184,3.255l-2.576,1.231l-1.611-2.352
					c-4.875-7.108-11.264-12.772-18.986-16.842C124.709,28.727,116.25,26.666,107.29,26.666z M185.414,162.083H65.623
					c-7.072,0-13.77-1.793-19.894-5.33c-6.132-3.534-11.031-8.436-14.567-14.565c-3.536-6.132-5.331-12.825-5.331-19.896
					c0-9.914,3.349-18.709,9.957-26.139c5.859-6.592,13.045-10.871,21.366-12.722c-0.049-0.916-0.073-1.858-0.073-2.806
					c0-9.029,2.291-17.485,6.812-25.132c4.5-7.619,10.649-13.766,18.262-18.266c7.65-4.519,16.105-6.812,25.134-6.812
					c10.413,0,19.921,2.938,28.267,8.732c6.967,4.838,12.391,10.99,16.139,18.3c5.119-4.114,11.092-6.199,17.77-6.199
					c8.26,0,15.348,2.903,21.072,8.626s8.627,12.704,8.627,20.75c0,5.031-1.156,9.678-3.434,13.829
					c6.225,1.945,11.592,5.477,15.967,10.514c5.508,6.348,8.301,13.928,8.301,22.532c0,9.557-3.395,17.798-10.092,24.492
					C203.213,158.688,194.973,162.083,185.414,162.083z M107.29,32.084c-8.724,0-16.895,2.214-24.284,6.58
					C75.633,43.02,69.684,48.966,65.33,56.339c-4.366,7.39-6.58,15.56-6.58,24.286c0,1.164,0.037,2.311,0.114,3.414l0.049,0.729
					l-0.716,0.146c-8.264,1.688-15.385,5.843-21.163,12.346c-6.327,7.114-9.534,15.537-9.534,25.032
					c0,6.773,1.717,13.188,5.103,19.062c3.39,5.873,8.085,10.569,13.961,13.956c5.867,3.388,12.28,5.107,19.059,5.107h119.791
					c9.1,0,16.943-3.231,23.316-9.604c6.371-6.372,9.602-14.215,9.602-23.313c0-8.19-2.656-15.403-7.893-21.437
					c-4.395-5.062-9.84-8.529-16.184-10.307l-1.053-0.293l0.564-0.938c2.475-4.118,3.732-8.795,3.732-13.9
					c0-7.587-2.738-14.172-8.139-19.57c-5.404-5.402-12.098-8.138-19.896-8.138c-6.625,0-12.514,2.179-17.502,6.476l-0.818,0.706
					l-0.475-0.972c-3.631-7.469-9.033-13.729-16.061-18.608C126.545,34.922,117.356,32.084,107.29,32.084z"/>
			</g>
		</g>
	</g>
	<g>
		<g>
			<g>
				<path fill="#4E017B" d="M111.457,25.834c-9.501,0-18.506,2.356-26.77,7.003c-8.269,4.651-14.974,11.043-19.934,19
					c-4.956,7.945-7.678,16.793-8.089,26.292l-0.073,1.693l-1.599,0.56C46.202,83.445,39,88.888,33.583,96.554
					c-5.42,7.668-8.167,16.329-8.167,25.738c0,7.969,2.019,15.428,5.998,22.166c3.996,6.759,9.448,12.213,16.211,16.209
					c6.738,3.981,14.192,6,22.164,6h119.792c7.115,0,13.76-1.75,19.746-5.2c5.99-3.449,10.771-8.234,14.221-14.22
					c3.451-5.987,5.201-12.632,5.201-19.747c0-7.094-1.904-13.832-5.66-20.025c-3.764-6.207-8.871-11.108-15.178-14.567
					l-1.721-0.942l0.508-1.894c0.807-3.03,1.217-6.208,1.217-9.446c0-6.037-1.529-11.75-4.549-16.98
					c-3.016-5.231-7.197-9.412-12.432-12.431c-5.229-3.018-10.941-4.547-16.979-4.547c-5.025,0-9.922,1.123-14.547,3.336
					l-1.93,0.922l-1.213-1.764c-4.947-7.22-11.438-12.976-19.283-17.106C129.141,27.926,120.551,25.834,111.457,25.834z
					 M189.582,161.251H69.79c-6.925,0-13.477-1.756-19.478-5.219c-6.002-3.463-10.799-8.26-14.262-14.262
					c-3.462-6.002-5.216-12.555-5.216-19.479c0-9.705,3.28-18.313,9.745-25.586c5.908-6.648,13.176-10.882,21.619-12.61
					c-0.077-1.123-0.114-2.283-0.114-3.471c0-8.876,2.25-17.192,6.693-24.709c4.431-7.495,10.478-13.542,17.973-17.971
					c7.515-4.443,15.828-6.695,24.707-6.695c10.237,0,19.592,2.889,27.795,8.583c7.152,4.97,12.639,11.324,16.336,18.927
					c5.145-4.434,11.199-6.677,18.043-6.677c8.031,0,14.926,2.82,20.488,8.382c5.561,5.563,8.381,12.343,8.381,20.16
					c0,5.269-1.293,10.075-3.854,14.329c6.512,1.823,12.078,5.365,16.586,10.561c5.375,6.191,8.102,13.588,8.102,21.984
					c0,9.329-3.316,17.369-9.848,23.903C206.951,157.938,198.908,161.251,189.582,161.251z"/>
				<path fill="#4E017B" d="M189.582,167.501H69.79c-8.122,0-15.723-2.059-22.587-6.116c-6.885-4.066-12.435-9.621-16.504-16.502
					c-4.057-6.87-6.116-14.471-6.116-22.591c0-9.584,2.799-18.406,8.321-26.219c5.518-7.813,12.858-13.356,21.81-16.479l1.066-0.372
					l0.049-1.127c0.419-9.648,3.182-18.63,8.215-26.699c5.033-8.073,11.841-14.563,20.235-19.285
					C92.67,27.393,101.813,25,111.457,25c9.232,0,17.952,2.126,25.915,6.319c7.969,4.193,14.561,10.038,19.584,17.371l0.811,1.176
					l1.285-0.614c4.74-2.267,9.758-3.418,14.906-3.418c6.184,0,12.035,1.566,17.398,4.659c5.359,3.095,9.643,7.379,12.732,12.736
					c3.092,5.361,4.662,11.212,4.662,17.397c0,3.312-0.418,6.563-1.248,9.662l-0.334,1.262l1.143,0.628
					c6.438,3.53,11.65,8.533,15.49,14.866c3.838,6.323,5.783,13.206,5.783,20.457c0,7.264-1.791,14.049-5.314,20.164
					c-3.523,6.116-8.41,11.003-14.521,14.524C203.631,165.713,196.844,167.501,189.582,167.501z M111.457,26.666
					c-9.355,0-18.225,2.322-26.359,6.897c-8.146,4.583-14.754,10.88-19.641,18.715c-4.875,7.82-7.556,16.532-7.959,25.887
					l-0.098,2.258l-2.136,0.743c-8.618,3.009-15.682,8.346-21,15.867c-5.318,7.526-8.016,16.024-8.016,25.258
					c0,7.818,1.982,15.133,5.888,21.743c3.922,6.636,9.277,11.991,15.914,15.913c6.608,3.906,13.92,5.885,21.741,5.885h119.792
					c6.969,0,13.473-1.712,19.332-5.089c5.854-3.373,10.537-8.055,13.91-13.914c3.379-5.859,5.092-12.361,5.092-19.33
					c0-6.941-1.863-13.533-5.539-19.592c-3.686-6.081-8.688-10.883-14.867-14.268l-2.291-1.257l0.676-2.527
					c0.789-2.956,1.188-6.063,1.188-9.23c0-5.89-1.494-11.46-4.436-16.563c-2.941-5.101-7.023-9.182-12.125-12.128
					c-5.104-2.941-10.678-4.435-16.564-4.435c-4.9,0-9.672,1.097-14.186,3.255l-2.576,1.231l-1.611-2.352
					c-4.873-7.108-11.262-12.772-18.984-16.842C128.875,28.727,120.417,26.666,111.457,26.666z M189.582,162.083H69.79
					c-7.072,0-13.77-1.793-19.893-5.33c-6.132-3.534-11.031-8.436-14.567-14.565c-3.536-6.132-5.33-12.825-5.33-19.896
					c0-9.914,3.349-18.709,9.957-26.139c5.859-6.592,13.045-10.871,21.367-12.722c-0.049-0.916-0.073-1.858-0.073-2.806
					c0-9.029,2.291-17.485,6.812-25.132c4.5-7.619,10.648-13.766,18.262-18.266c7.649-4.519,16.105-6.812,25.134-6.812
					c10.413,0,19.922,2.938,28.268,8.732c6.965,4.838,12.389,10.99,16.137,18.3c5.119-4.114,11.092-6.199,17.77-6.199
					c8.26,0,15.348,2.903,21.074,8.626c5.725,5.723,8.625,12.704,8.625,20.75c0,5.031-1.154,9.678-3.434,13.829
					c6.225,1.945,11.592,5.477,15.967,10.514c5.51,6.348,8.301,13.928,8.301,22.532c0,9.557-3.395,17.798-10.092,24.492
					C207.379,158.688,199.139,162.083,189.582,162.083z M111.457,32.084c-8.724,0-16.895,2.214-24.284,6.58
					c-7.373,4.356-13.322,10.303-17.676,17.676c-4.366,7.39-6.58,15.56-6.58,24.286c0,1.164,0.037,2.311,0.114,3.414l0.049,0.729
					l-0.716,0.146C54.1,86.603,46.979,90.757,41.201,97.26c-6.327,7.114-9.534,15.537-9.534,25.032
					c0,6.773,1.717,13.188,5.103,19.062c3.39,5.873,8.085,10.569,13.961,13.956c5.868,3.388,12.28,5.107,19.059,5.107h119.792
					c9.098,0,16.943-3.231,23.314-9.604c6.373-6.372,9.604-14.215,9.604-23.313c0-8.19-2.658-15.403-7.895-21.437
					c-4.395-5.062-9.838-8.529-16.182-10.307l-1.055-0.293l0.566-0.938c2.473-4.118,3.73-8.795,3.73-13.9
					c0-7.587-2.738-14.172-8.139-19.57c-5.402-5.402-12.096-8.138-19.896-8.138c-6.625,0-12.512,2.179-17.5,6.476l-0.818,0.706
					l-0.477-0.972c-3.629-7.469-9.033-13.729-16.061-18.608C130.711,34.922,121.523,32.084,111.457,32.084z"/>
			</g>
		</g>
	</g>
	<g>
		<g>
			<path fill="#FFFFFF" d="M167.641,130.664c2.129,2.128,3.191,4.708,3.191,7.747v75.651c0,3.04-1.063,5.619-3.191,7.747
				c-2.123,2.129-4.707,3.19-7.746,3.19H94.269c-3.036,0-5.62-1.062-7.748-3.19c-2.124-2.128-3.19-4.707-3.19-7.747v-94.792
				c0-3.04,1.066-5.62,3.19-7.748c2.128-2.128,4.712-3.19,7.748-3.19h46.485c3.039,0,5.623,1.062,7.746,3.19L167.641,130.664z
				 M148.957,162.109c0-0.761-0.266-1.403-0.799-1.937c-0.529-0.533-1.176-0.798-1.936-0.798h-38.282
				c-0.757,0-1.404,0.265-1.937,0.798c-0.529,0.533-0.797,1.176-0.797,1.937v1.823c0,0.761,0.269,1.403,0.797,1.937
				c0.533,0.533,1.18,0.798,1.937,0.798h38.282c0.76,0,1.406-0.265,1.936-0.798c0.533-0.533,0.799-1.176,0.799-1.937V162.109z
				 M148.957,176.692c0-0.761-0.266-1.403-0.799-1.937c-0.529-0.533-1.176-0.798-1.936-0.798h-38.282
				c-0.757,0-1.404,0.265-1.937,0.798c-0.529,0.533-0.797,1.176-0.797,1.937v1.823c0,0.761,0.269,1.403,0.797,1.937
				c0.533,0.533,1.18,0.798,1.937,0.798h38.282c0.76,0,1.406-0.265,1.936-0.798c0.533-0.533,0.799-1.176,0.799-1.937V176.692z
				 M148.957,191.276c0-0.762-0.266-1.404-0.799-1.938c-0.529-0.533-1.176-0.797-1.936-0.797h-38.282
				c-0.757,0-1.404,0.264-1.937,0.797c-0.529,0.533-0.797,1.176-0.797,1.938v1.822c0,0.762,0.269,1.404,0.797,1.938
				c0.533,0.533,1.18,0.797,1.937,0.797h38.282c0.76,0,1.406-0.264,1.936-0.797c0.533-0.533,0.799-1.176,0.799-1.938V191.276z"/>
		</g>
		<g opacity="0.2">
			<path d="M163.475,130.664c2.129,2.128,3.189,4.708,3.189,7.747v75.651c0,3.04-1.061,5.619-3.189,7.747
				c-2.125,2.129-4.707,3.19-7.748,3.19H90.102c-3.035,0-5.619-1.062-7.747-3.19c-2.124-2.128-3.19-4.707-3.19-7.747v-94.792
				c0-3.04,1.066-5.62,3.19-7.748c2.128-2.128,4.712-3.19,7.747-3.19h46.484c3.041,0,5.623,1.062,7.748,3.19L163.475,130.664z
				 M155.727,217.708c1.066,0,1.938-0.342,2.621-1.025s1.025-1.559,1.025-2.62v-69.271h-23.697c-1.518,0-2.809-0.533-3.875-1.596
				c-1.061-1.062-1.594-2.355-1.594-3.873v-23.698H90.102c-1.062,0-1.937,0.342-2.62,1.025s-1.025,1.559-1.025,2.621v94.792
				c0,1.062,0.342,1.937,1.025,2.62s1.558,1.025,2.62,1.025H155.727z M144.789,162.109c0-0.761-0.264-1.403-0.797-1.937
				c-0.529-0.533-1.176-0.798-1.938-0.798h-38.281c-0.757,0-1.404,0.265-1.937,0.798c-0.529,0.533-0.798,1.176-0.798,1.937v1.823
				c0,0.761,0.269,1.403,0.798,1.937c0.533,0.533,1.18,0.798,1.937,0.798h38.281c0.762,0,1.408-0.265,1.938-0.798
				c0.533-0.533,0.797-1.176,0.797-1.937V162.109z M144.789,176.692c0-0.761-0.264-1.403-0.797-1.937
				c-0.529-0.533-1.176-0.798-1.938-0.798h-38.281c-0.757,0-1.404,0.265-1.937,0.798c-0.529,0.533-0.798,1.176-0.798,1.937v1.823
				c0,0.761,0.269,1.403,0.798,1.937c0.533,0.533,1.18,0.798,1.937,0.798h38.281c0.762,0,1.408-0.265,1.938-0.798
				c0.533-0.533,0.797-1.176,0.797-1.937V176.692z M144.789,191.276c0-0.762-0.264-1.404-0.797-1.938
				c-0.529-0.533-1.176-0.797-1.938-0.797h-38.281c-0.757,0-1.404,0.264-1.937,0.797c-0.529,0.533-0.798,1.176-0.798,1.938v1.822
				c0,0.762,0.269,1.404,0.798,1.938c0.533,0.533,1.18,0.797,1.937,0.797h38.281c0.762,0,1.408-0.264,1.938-0.797
				c0.533-0.533,0.797-1.176,0.797-1.938V191.276z M158.234,135.905l-19.141-19.141c-0.457-0.456-0.986-0.834-1.596-1.139V137.5
				h21.875C159.072,136.894,158.689,136.36,158.234,135.905z"/>
		</g>
		<g>
			<path fill="#4E017B" d="M167.641,130.664c2.129,2.128,3.191,4.708,3.191,7.747v75.651c0,3.04-1.063,5.619-3.191,7.747
				c-2.123,2.129-4.707,3.19-7.746,3.19H94.269c-3.036,0-5.62-1.062-7.748-3.19c-2.124-2.128-3.19-4.707-3.19-7.747v-94.792
				c0-3.04,1.066-5.62,3.19-7.748c2.128-2.128,4.712-3.19,7.748-3.19h46.485c3.039,0,5.623,1.062,7.746,3.19L167.641,130.664z
				 M159.895,217.708c1.064,0,1.936-0.342,2.619-1.025s1.025-1.559,1.025-2.62v-69.271h-23.697c-1.518,0-2.809-0.533-3.873-1.596
				c-1.063-1.062-1.596-2.355-1.596-3.873v-23.698H94.269c-1.062,0-1.937,0.342-2.621,1.025s-1.025,1.559-1.025,2.621v94.792
				c0,1.062,0.342,1.937,1.025,2.62s1.559,1.025,2.621,1.025H159.895z M148.957,162.109c0-0.761-0.266-1.403-0.799-1.937
				c-0.529-0.533-1.176-0.798-1.936-0.798h-38.282c-0.757,0-1.404,0.265-1.937,0.798c-0.529,0.533-0.797,1.176-0.797,1.937v1.823
				c0,0.761,0.269,1.403,0.797,1.937c0.533,0.533,1.18,0.798,1.937,0.798h38.282c0.76,0,1.406-0.265,1.936-0.798
				c0.533-0.533,0.799-1.176,0.799-1.937V162.109z M148.957,176.692c0-0.761-0.266-1.403-0.799-1.937
				c-0.529-0.533-1.176-0.798-1.936-0.798h-38.282c-0.757,0-1.404,0.265-1.937,0.798c-0.529,0.533-0.797,1.176-0.797,1.937v1.823
				c0,0.761,0.269,1.403,0.797,1.937c0.533,0.533,1.18,0.798,1.937,0.798h38.282c0.76,0,1.406-0.265,1.936-0.798
				c0.533-0.533,0.799-1.176,0.799-1.937V176.692z M148.957,191.276c0-0.762-0.266-1.404-0.799-1.938
				c-0.529-0.533-1.176-0.797-1.936-0.797h-38.282c-0.757,0-1.404,0.264-1.937,0.797c-0.529,0.533-0.797,1.176-0.797,1.938v1.822
				c0,0.762,0.269,1.404,0.797,1.938c0.533,0.533,1.18,0.797,1.937,0.797h38.282c0.76,0,1.406-0.264,1.936-0.797
				c0.533-0.533,0.799-1.176,0.799-1.938V191.276z M162.4,135.905l-19.141-19.141c-0.455-0.456-0.984-0.834-1.596-1.139V137.5
				h21.875C163.238,136.894,162.855,136.36,162.4,135.905z"/>
		</g>
	</g>
</g>
</svg>
