<?xml version="1.0" encoding="utf-8"?>
<!-- Generator: Adobe Illustrator 16.0.0, SVG Export Plug-In . SVG Version: 6.00 Build 0)  -->
<!DOCTYPE svg PUBLIC "-//W3C//DTD SVG 1.1//EN" "http://www.w3.org/Graphics/SVG/1.1/DTD/svg11.dtd">
<svg version="1.1" id="Layer_1" xmlns="http://www.w3.org/2000/svg" xmlns:xlink="http://www.w3.org/1999/xlink" x="0px" y="0px"
	 width="250px" height="250px" viewBox="0 0 250 250" enable-background="new 0 0 250 250" xml:space="preserve">
<g>
	<circle fill="#EBBA16" cx="127.038" cy="124.239" r="76.886"/>
	<path opacity="0.2" fill="#4E017B" d="M122.937,204.712c-44.374,0-80.474-36.1-80.474-80.473c0-44.374,36.101-80.476,80.474-80.476
		s80.474,36.102,80.474,80.476C203.411,168.612,167.311,204.712,122.937,204.712z M122.937,50.94
		c-40.416,0-73.298,32.882-73.298,73.299c0,40.416,32.882,73.297,73.298,73.297c40.417,0,73.298-32.881,73.298-73.297
		C196.235,83.822,163.354,50.94,122.937,50.94z"/>
	<path fill="#4E017B" d="M127.038,204.712c-44.374,0-80.475-36.1-80.475-80.473c0-44.374,36.101-80.476,80.475-80.476
		c44.373,0,80.474,36.102,80.474,80.476C207.512,168.612,171.411,204.712,127.038,204.712z M127.038,50.94
		c-40.417,0-73.299,32.882-73.299,73.299c0,40.416,32.882,73.297,73.299,73.297c40.416,0,73.298-32.881,73.298-73.297
		C200.336,83.822,167.454,50.94,127.038,50.94z"/>
</g>
<path opacity="0.2" fill="#4E017B" d="M138.669,150.642c2.991-2.193,4.963-5.125,5.859-8.712c1.01-4.141,0.444-7.952-1.73-11.645
	c-2.15-3.65-5.267-6.109-9.263-7.308l-18.567-5.282c-1.574-0.485-2.882-1.277-3.909-2.365c-1.067-1.128-1.672-2.469-1.798-3.982
	c-0.36-2.135,0.199-4.164,1.673-5.945c1.48-1.788,3.416-2.694,5.755-2.694h11.853c2.766,0,5.334,0.817,7.636,2.428
	c0.314,0.186,0.719,0.295,1.175,0.295c0.328,0,0.567-0.125,0.802-0.417l0.075-0.084l3.684-3.684
	c0.325-0.324,0.456-0.671,0.424-1.125c-0.034-0.468-0.248-0.851-0.675-1.207c-3.822-2.916-8.248-4.408-13.12-4.408h-1.505v-8.714
	c0-0.476-0.134-0.83-0.421-1.117c-0.287-0.288-0.642-0.42-1.117-0.42h-5.126c-0.475,0-0.83,0.133-1.117,0.42
	c-0.287,0.287-0.42,0.642-0.42,1.117v8.714h-1.345c-3.816,0-7.277,1.119-10.286,3.326c-2.992,2.193-4.963,5.125-5.86,8.712
	c-1.01,4.141-0.444,7.952,1.731,11.645c2.15,3.65,5.266,6.109,9.263,7.307l18.567,5.282c1.573,0.484,2.882,1.277,3.908,2.364
	c1.067,1.129,1.672,2.47,1.798,3.983c0.36,2.135-0.199,4.163-1.673,5.944c-1.479,1.788-3.416,2.694-5.755,2.694h-11.854
	c-2.765,0-5.334-0.817-7.636-2.428c-0.314-0.187-0.719-0.296-1.174-0.296c-0.329,0-0.568,0.124-0.802,0.417l-0.091,0.1l-3.639,3.481
	c-0.341,0.424-0.485,0.843-0.453,1.313c0.034,0.467,0.249,0.851,0.675,1.206c3.822,2.916,8.249,4.408,13.12,4.408h1.505v8.714
	c0,0.475,0.133,0.829,0.42,1.117c0.288,0.287,0.642,0.42,1.117,0.42h5.126c0.476,0,0.83-0.133,1.117-0.42
	c0.287-0.288,0.421-0.643,0.421-1.117v-8.714h1.505C132.254,153.968,135.66,152.848,138.669,150.642z"/>
<path fill="#4E017B" d="M142.77,150.642c2.991-2.193,4.963-5.125,5.859-8.712c1.01-4.141,0.444-7.952-1.73-11.645
	c-2.15-3.65-5.267-6.109-9.263-7.308l-18.567-5.282c-1.574-0.485-2.882-1.277-3.909-2.365c-1.067-1.128-1.672-2.469-1.798-3.982
	c-0.36-2.135,0.199-4.164,1.673-5.945c1.48-1.788,3.416-2.694,5.755-2.694h11.853c2.766,0,5.334,0.817,7.636,2.428
	c0.314,0.186,0.719,0.295,1.175,0.295c0.328,0,0.567-0.125,0.802-0.417l0.075-0.084l3.684-3.684
	c0.325-0.324,0.456-0.671,0.424-1.125c-0.034-0.468-0.248-0.851-0.675-1.207c-3.822-2.916-8.248-4.408-13.12-4.408h-1.505v-8.714
	c0-0.476-0.134-0.83-0.421-1.117c-0.287-0.288-0.642-0.42-1.117-0.42h-5.126c-0.475,0-0.83,0.133-1.117,0.42
	c-0.287,0.287-0.42,0.642-0.42,1.117v8.714h-1.345c-3.816,0-7.277,1.119-10.286,3.326c-2.991,2.193-4.963,5.125-5.86,8.712
	c-1.01,4.141-0.444,7.952,1.731,11.645c2.15,3.65,5.266,6.109,9.263,7.307l18.567,5.282c1.573,0.484,2.882,1.277,3.908,2.364
	c1.067,1.129,1.672,2.47,1.798,3.983c0.36,2.135-0.199,4.163-1.673,5.944c-1.479,1.788-3.416,2.694-5.755,2.694h-11.854
	c-2.765,0-5.334-0.817-7.636-2.428c-0.314-0.187-0.719-0.296-1.174-0.296c-0.329,0-0.568,0.124-0.802,0.417l-0.091,0.1l-3.639,3.481
	c-0.341,0.424-0.485,0.843-0.453,1.313c0.034,0.467,0.249,0.851,0.675,1.206c3.822,2.916,8.249,4.408,13.12,4.408h1.505v8.714
	c0,0.475,0.133,0.829,0.42,1.117c0.288,0.287,0.642,0.42,1.117,0.42h5.126c0.476,0,0.83-0.133,1.117-0.42
	c0.287-0.288,0.421-0.643,0.421-1.117v-8.714h1.505C136.354,153.968,139.761,152.848,142.77,150.642z"/>
<g opacity="0.2">
	<path fill="#4E017B" d="M106.623,33.176c-1.639-0.354-2.959-1.696-3.2-3.454c-0.309-2.242,1.261-4.313,3.505-4.619l0.78-0.103
		c2.245-0.291,4.302,1.292,4.593,3.541c0.29,2.246-1.293,4.301-3.54,4.593l-0.72,0.094
		C107.555,33.295,107.077,33.272,106.623,33.176z"/>
</g>
<g>
	<path fill="#4E017B" d="M109.698,33.176c-1.639-0.354-2.959-1.696-3.2-3.454c-0.308-2.242,1.262-4.313,3.505-4.619l0.78-0.103
		c2.244-0.291,4.302,1.292,4.593,3.541c0.291,2.246-1.293,4.301-3.54,4.593l-0.72,0.094
		C110.63,33.295,110.153,33.272,109.698,33.176z"/>
</g>
<g opacity="0.2">
	<path fill="#4E017B" d="M123.962,224.965c-55.542,0-100.727-45.186-100.727-100.727c0-43.335,27.582-81.715,68.633-95.505
		c2.147-0.719,4.472,0.436,5.193,2.582c0.721,2.146-0.435,4.471-2.582,5.192c-37.707,12.667-63.042,47.922-63.042,87.73
		c0,51.019,41.506,92.526,92.526,92.526c2.264,0,4.1,1.836,4.1,4.101S126.227,224.965,123.962,224.965z"/>
</g>
<g opacity="0.2">
	<path fill="#4E017B" d="M190.384,198.518c-1.087,0-2.173-0.43-2.979-1.281c-1.558-1.646-1.486-4.24,0.158-5.797
		c18.652-17.66,28.925-41.525,28.925-67.202c0-22.858-8.401-44.803-23.657-61.792c-1.513-1.686-1.374-4.278,0.311-5.792
		c1.687-1.513,4.277-1.374,5.792,0.311c16.608,18.497,25.756,42.389,25.756,67.272c0,27.952-11.183,53.933-31.487,73.157
		C192.409,198.145,191.395,198.518,190.384,198.518z"/>
</g>
<g>
	<path fill="#4E017B" d="M127.038,224.965c-55.542,0-100.728-45.186-100.728-100.727c0-43.335,27.582-81.715,68.633-95.505
		c2.147-0.719,4.472,0.436,5.193,2.582c0.721,2.146-0.435,4.471-2.582,5.192c-37.708,12.667-63.043,47.922-63.043,87.73
		c0,51.019,41.507,92.526,92.526,92.526c2.265,0,4.101,1.836,4.101,4.101S129.303,224.965,127.038,224.965z"/>
</g>
<g>
	<path fill="#4E017B" d="M193.459,198.518c-1.087,0-2.172-0.43-2.979-1.281c-1.558-1.646-1.486-4.24,0.158-5.797
		c18.652-17.66,28.925-41.525,28.925-67.202c0-22.858-8.401-44.803-23.657-61.792c-1.513-1.686-1.374-4.278,0.312-5.792
		c1.686-1.513,4.276-1.374,5.791,0.311c16.608,18.497,25.756,42.389,25.756,67.272c0,27.952-11.183,53.933-31.487,73.157
		C195.484,198.145,194.471,198.518,193.459,198.518z"/>
</g>
</svg>
