<?xml version="1.0" encoding="utf-8"?>
<!-- Generator: Adobe Illustrator 16.0.0, SVG Export Plug-In . SVG Version: 6.00 Build 0)  -->
<!DOCTYPE svg PUBLIC "-//W3C//DTD SVG 1.1//EN" "http://www.w3.org/Graphics/SVG/1.1/DTD/svg11.dtd">
<svg version="1.1" id="Layer_1" xmlns="http://www.w3.org/2000/svg" xmlns:xlink="http://www.w3.org/1999/xlink" x="0px" y="0px"
	 width="250px" height="250px" viewBox="0 0 250 250" enable-background="new 0 0 250 250" xml:space="preserve">
<g>
	<path opacity="0.2" d="M209.474,173.729c3.154-5.623,4.039-11.875,2.706-19.116c-1.405-7.599-5.42-15.94-11.926-24.792
		l-4.691-4.675l4.012-6.012c6.618-9.145,10.726-17.735,12.233-25.56c1.397-7.277,0.563-13.45-2.549-18.87
		c-3.113-5.404-8.065-9.225-15.14-11.68c-7.578-2.625-17.034-3.414-27.825-2.338l-0.606,0.029l-6.4,0.004l-1.722-3.965
		c-4.522-10.441-9.961-18.575-16.166-24.172c-5.758-5.192-11.719-7.715-18.221-7.715c-6.49,0-12.439,2.555-18.184,7.813
		c-6.224,5.685-11.674,13.869-16.203,24.329l-1.957,4.521l-6.927-0.86c-10.777-1.208-20.345-0.456-27.72,2.203
		c-7.023,2.527-11.959,6.398-15.086,11.837c-3.117,5.418-3.949,11.588-2.549,18.866c1.493,7.778,5.526,16.26,11.983,25.204
		l4.614,5.534l-4.659,5.593c-6.413,8.889-10.445,17.367-11.938,25.143c-1.404,7.284-0.57,13.452,2.547,18.862
		c2.815,4.559,6.848,8.012,12.309,10.53c5.705,2.635,12.732,3.972,20.888,3.972c4.12,0,7.334-0.148,9.552-0.445l0.362-0.049
		l6.152-0.011h0.688l1.727,3.931c4.527,10.301,9.906,18.378,15.989,24.003c5.882,5.322,11.908,7.912,18.412,7.912
		c6.495,0,12.443-2.555,18.189-7.813c6.224-5.687,11.674-13.871,16.198-24.324l1.718-3.965h6.104c1.294,0,3.137,0.087,5.798,0.271
		c2.729,0.199,4.158,0.24,4.879,0.24c8.496,0,15.747-1.344,21.552-3.988C203.049,181.7,206.929,178.284,209.474,173.729z
		 M98.225,56.027c3.341-6.679,6.944-12.024,10.708-15.888c9.115-9.346,19.381-9.344,28.491-0.002
		c3.769,3.864,7.369,9.21,10.71,15.89l3.529,7.063l-7.584,2.199c-6.212,1.799-12.413,3.947-18.427,6.387l-2.474,1.005l-2.47-1.005
		c-6.022-2.439-12.223-4.588-18.431-6.387l-7.583-2.203L98.225,56.027z M76.393,180.196c-2.159,0.165-4.24,0.249-6.191,0.249
		c-4.751,0-9.072-0.486-12.846-1.451c-6.449-1.638-10.956-4.667-13.389-8.998c-2.433-4.051-2.722-9.397-0.838-15.867
		c1.521-5.235,4.26-10.98,8.138-17.078l4.33-6.797l5.796,5.599c4.686,4.526,9.694,8.795,14.882,12.683l2.23,1.673l0.354,2.761
		c0.812,6.357,1.971,12.815,3.442,19.186l1.719,7.458L76.393,180.196z M82.517,76.368c-1.624,6.319-2.852,12.722-3.658,19.031
		l-0.354,2.761l-2.23,1.67c-5.135,3.845-10.028,8.087-14.547,12.606l-5.387,5.396l-4.549-6.124
		c-4.366-5.88-7.336-11.621-8.821-17.063c-1.733-6.366-1.4-11.755,0.995-16.02c2.299-3.74,5.967-6.415,11.241-8.215
		c4.386-1.496,9.721-2.256,15.853-2.256h13.566L82.517,76.368z M148.134,192.597c-3.341,6.684-6.946,12.026-10.71,15.888
		c-4.569,4.689-9.362,7.068-14.246,7.068c-4.683,0-9.416-2.36-14.063-7.016c-3.918-3.908-7.483-9.123-10.891-15.94l-3.53-7.065
		l7.584-2.199c6.189-1.791,12.39-3.939,18.429-6.387l2.47-1.001l2.474,0.997c6.034,2.451,12.231,4.6,18.425,6.391l7.589,2.195
		L148.134,192.597z M160.719,142.998l-0.378,2.754l-2.238,1.654c-3.385,2.494-8.461,5.768-15.519,10.008
		c-4.199,2.623-9.805,5.561-16.647,8.72l-2.826,1.303l-2.799-1.354c-5.374-2.602-10.824-5.501-16.201-8.622
		c-7.45-4.258-12.683-7.585-15.991-10.16l-2.116-1.646l-0.362-2.656c-0.553-4.055-0.822-10.167-0.822-18.688
		c0-8.514,0.269-14.626,0.822-18.687l0.362-2.667l2.132-1.648c4.01-3.103,9.224-6.437,15.938-10.199
		c6.466-3.618,11.935-6.504,16.256-8.58l2.86-1.375l2.856,1.386c5.38,2.604,10.889,5.489,16.374,8.577l2.295,1.424
		c6.115,3.668,10.515,6.521,13.43,8.712l2.633,1.971v3.29c0,1.778,0.083,4.5,0.246,8.091c0.342,4.061,0.517,7.341,0.517,9.705
		C161.541,132.829,161.271,138.941,160.719,142.998z M175.555,68.407c6.222,0,11.381,0.743,15.768,2.269
		c5.046,1.762,8.787,4.496,11.125,8.124c2.567,4.002,2.97,9.334,1.193,15.845c-1.473,5.402-4.421,11.2-8.758,17.234l-4.439,6.175
		l-5.473-5.28c-4.721-4.549-9.729-8.821-14.889-12.695l-2.303-1.721l-0.298-2.869c-0.639-6.25-1.777-12.598-3.387-18.868
		l-2.102-8.213H175.555z M202.39,170c-2.484,4.144-6.947,7.112-13.281,8.84c-3.873,1.058-8.321,1.593-13.212,1.593
		c-1.872,0-3.865-0.079-5.929-0.236l-7.629-0.584l1.719-7.458c1.467-6.35,2.625-12.808,3.444-19.189l0.356-2.757l2.224-1.67
		c5.2-3.9,10.209-8.169,14.889-12.689l5.473-5.282l4.439,6.178c4.361,6.07,7.273,11.903,8.658,17.342
		C205.152,160.43,204.764,165.784,202.39,170z"/>
	<path opacity="0.2" d="M52.182,53.874c-8.156,0-14.795,6.637-14.795,14.795c0,8.159,6.639,14.795,14.795,14.795
		c8.159,0,14.795-6.636,14.795-14.795C66.977,60.511,60.341,53.874,52.182,53.874z M52.182,77.279c-4.744,0-8.608-3.862-8.608-8.61
		c0-4.746,3.864-8.61,8.608-8.61c4.749,0,8.61,3.864,8.61,8.61C60.792,73.417,56.931,77.279,52.182,77.279z"/>
	<path opacity="0.2" d="M141.944,195.276c-8.158,0-14.797,6.637-14.797,14.795s6.639,14.795,14.797,14.795
		c8.156,0,14.793-6.637,14.793-14.795S150.101,195.276,141.944,195.276z M141.944,218.682c-4.748,0-8.609-3.861-8.609-8.61
		c0-4.746,3.861-8.608,8.609-8.608c4.745,0,8.608,3.862,8.608,8.608C150.553,214.82,146.689,218.682,141.944,218.682z"/>
	<path opacity="0.2" d="M142.898,123.112c-0.083,0.397-0.246,0.727-0.5,1.018l-21.568,23.753c-0.315,0.311-0.696,0.502-1.141,0.565
		c-0.439,0.061-0.861-0.006-1.255-0.206c-0.399-0.211-0.68-0.519-0.859-0.925c-0.173-0.42-0.211-0.849-0.114-1.288l3.561-13.349
		h-7.601c-0.663,0.03-1.202-0.216-1.615-0.74c-0.411-0.519-0.542-1.093-0.383-1.731l5.322-19.806c0.13-0.45,0.371-0.797,0.737-1.072
		c0.366-0.271,0.769-0.405,1.212-0.405h13.871c0.663,0,1.187,0.263,1.566,0.783c0.383,0.521,0.493,1.103,0.334,1.742l-2.472,9.353
		h9.027c0.38,0,0.728,0.116,1.045,0.336s0.554,0.5,0.713,0.848C142.938,122.341,142.975,122.714,142.898,123.112z"/>
	<path fill="#4E017B" d="M213.641,173.729c3.153-5.623,4.038-11.875,2.706-19.116c-1.406-7.599-5.42-15.94-11.927-24.792
		l-4.691-4.675l4.013-6.012c6.618-9.145,10.726-17.735,12.233-25.56c1.397-7.277,0.563-13.45-2.55-18.87
		c-3.112-5.404-8.064-9.225-15.139-11.68c-7.578-2.625-17.035-3.414-27.826-2.338l-0.605,0.029l-6.401,0.004l-1.721-3.965
		c-4.522-10.441-9.961-18.575-16.166-24.172c-5.758-5.192-11.719-7.715-18.222-7.715c-6.49,0-12.438,2.555-18.184,7.813
		c-6.224,5.685-11.674,13.869-16.203,24.329L91,61.528l-6.927-0.86c-10.777-1.208-20.345-0.456-27.72,2.203
		c-7.023,2.527-11.959,6.398-15.086,11.837c-3.117,5.418-3.949,11.588-2.549,18.866c1.494,7.778,5.526,16.26,11.983,25.204
		l4.614,5.534l-4.659,5.593c-6.413,8.889-10.445,17.367-11.938,25.143c-1.404,7.284-0.569,13.452,2.547,18.862
		c2.816,4.559,6.848,8.012,12.309,10.53c5.705,2.635,12.732,3.972,20.889,3.972c4.12,0,7.334-0.148,9.552-0.445l0.362-0.049
		l6.152-0.011h0.688l1.728,3.931c4.526,10.301,9.906,18.378,15.989,24.003c5.882,5.322,11.908,7.912,18.412,7.912
		c6.494,0,12.443-2.555,18.188-7.813c6.224-5.687,11.675-13.871,16.199-24.324l1.717-3.965h6.104c1.294,0,3.138,0.087,5.799,0.271
		c2.728,0.199,4.158,0.24,4.879,0.24c8.496,0,15.747-1.344,21.551-3.988C207.216,181.7,211.096,178.284,213.641,173.729z
		 M102.392,56.027c3.34-6.679,6.943-12.024,10.708-15.888c9.114-9.346,19.381-9.344,28.491-0.002
		c3.768,3.864,7.369,9.21,10.71,15.89l3.529,7.063l-7.585,2.199c-6.211,1.799-12.412,3.947-18.426,6.387l-2.475,1.005l-2.47-1.005
		c-6.022-2.439-12.223-4.588-18.43-6.387l-7.583-2.203L102.392,56.027z M80.56,180.196c-2.159,0.165-4.24,0.249-6.191,0.249
		c-4.75,0-9.072-0.486-12.846-1.451c-6.45-1.638-10.956-4.667-13.389-8.998c-2.434-4.051-2.722-9.397-0.838-15.867
		c1.522-5.235,4.26-10.98,8.138-17.078l4.329-6.797l5.796,5.599c4.686,4.526,9.694,8.795,14.882,12.683l2.23,1.673l0.354,2.761
		c0.812,6.357,1.972,12.815,3.442,19.186l1.719,7.458L80.56,180.196z M86.684,76.368c-1.624,6.319-2.853,12.722-3.658,19.031
		l-0.354,2.761l-2.23,1.67c-5.135,3.845-10.028,8.087-14.546,12.606l-5.388,5.396l-4.549-6.124
		c-4.366-5.88-7.336-11.621-8.822-17.063c-1.733-6.366-1.4-11.755,0.995-16.02c2.299-3.74,5.967-6.415,11.24-8.215
		c4.387-1.496,9.721-2.256,15.853-2.256h13.566L86.684,76.368z M152.301,192.597c-3.341,6.684-6.946,12.026-10.71,15.888
		c-4.569,4.689-9.363,7.068-14.246,7.068c-4.683,0-9.416-2.36-14.062-7.016c-3.918-3.908-7.483-9.123-10.891-15.94l-3.53-7.065
		l7.585-2.199c6.189-1.791,12.39-3.939,18.428-6.387l2.47-1.001l2.475,0.997c6.034,2.451,12.231,4.6,18.424,6.391l7.589,2.195
		L152.301,192.597z M164.886,142.998l-0.378,2.754l-2.238,1.654c-3.386,2.494-8.462,5.768-15.52,10.008
		c-4.199,2.623-9.804,5.561-16.646,8.72l-2.825,1.303l-2.8-1.354c-5.373-2.602-10.824-5.501-16.201-8.622
		c-7.451-4.258-12.683-7.585-15.991-10.16l-2.116-1.646l-0.362-2.656c-0.554-4.055-0.822-10.167-0.822-18.688
		c0-8.514,0.269-14.626,0.822-18.687l0.362-2.667l2.132-1.648c4.01-3.103,9.225-6.437,15.938-10.199
		c6.465-3.618,11.934-6.504,16.255-8.58l2.861-1.375l2.856,1.386c5.379,2.604,10.889,5.489,16.374,8.577l2.295,1.424
		c6.115,3.668,10.514,6.521,13.43,8.712l2.632,1.971v3.29c0,1.778,0.084,4.5,0.247,8.091c0.342,4.061,0.517,7.341,0.517,9.705
		C165.708,132.829,165.438,138.941,164.886,142.998z M179.722,68.407c6.222,0,11.381,0.743,15.768,2.269
		c5.045,1.762,8.786,4.496,11.124,8.124c2.567,4.002,2.971,9.334,1.194,15.845c-1.473,5.402-4.421,11.2-8.759,17.234l-4.438,6.175
		l-5.474-5.28c-4.72-4.549-9.729-8.821-14.888-12.695l-2.304-1.721l-0.297-2.869c-0.639-6.25-1.778-12.598-3.388-18.868
		l-2.102-8.213H179.722z M206.557,170c-2.484,4.144-6.948,7.112-13.281,8.84c-3.874,1.058-8.321,1.593-13.212,1.593
		c-1.872,0-3.866-0.079-5.929-0.236l-7.63-0.584l1.72-7.458c1.467-6.35,2.624-12.808,3.444-19.189l0.355-2.757l2.225-1.67
		c5.2-3.9,10.209-8.169,14.888-12.689l5.474-5.282l4.438,6.178c4.362,6.07,7.273,11.903,8.659,17.342
		C209.319,160.43,208.931,165.784,206.557,170z"/>
	<g>
		<path fill="#FFFFFF" d="M56.349,55.915c-7.031,0-12.752,5.721-12.752,12.754s5.721,12.756,12.752,12.756
			c7.033,0,12.756-5.723,12.756-12.756S63.382,55.915,56.349,55.915z"/>
		<path fill="#4E017B" d="M56.349,53.874c-8.156,0-14.795,6.637-14.795,14.795c0,8.159,6.639,14.795,14.795,14.795
			c8.158,0,14.795-6.636,14.795-14.795C71.144,60.511,64.507,53.874,56.349,53.874z M56.349,77.279c-4.745,0-8.608-3.862-8.608-8.61
			c0-4.746,3.863-8.61,8.608-8.61c4.749,0,8.61,3.864,8.61,8.61C64.959,73.417,61.098,77.279,56.349,77.279z"/>
	</g>
	<g>
		<path fill="#FFFFFF" d="M146.111,197.317c-7.035,0-12.756,5.721-12.756,12.754s5.721,12.757,12.756,12.757
			c7.031,0,12.752-5.724,12.752-12.757S153.143,197.317,146.111,197.317z"/>
		<path fill="#4E017B" d="M146.111,195.276c-8.158,0-14.797,6.637-14.797,14.795s6.639,14.795,14.797,14.795
			c8.156,0,14.793-6.637,14.793-14.795S154.268,195.276,146.111,195.276z M146.111,218.682c-4.748,0-8.61-3.861-8.61-8.61
			c0-4.746,3.862-8.608,8.61-8.608c4.744,0,8.608,3.862,8.608,8.608C154.72,214.82,150.855,218.682,146.111,218.682z"/>
	</g>
	<g>
		<path fill="#4E017B" d="M147.065,123.112c-0.083,0.397-0.246,0.727-0.5,1.018l-21.568,23.753
			c-0.315,0.311-0.696,0.502-1.141,0.565c-0.439,0.061-0.861-0.006-1.255-0.206c-0.399-0.211-0.68-0.519-0.858-0.925
			c-0.173-0.42-0.212-0.849-0.114-1.288l3.561-13.349h-7.601c-0.663,0.03-1.202-0.216-1.615-0.74
			c-0.411-0.519-0.541-1.093-0.382-1.731l5.322-19.806c0.13-0.45,0.37-0.797,0.736-1.072c0.366-0.271,0.769-0.405,1.212-0.405
			h13.872c0.663,0,1.186,0.263,1.566,0.783c0.383,0.521,0.492,1.103,0.334,1.742l-2.473,9.353h9.027
			c0.381,0,0.729,0.116,1.046,0.336s0.554,0.5,0.712,0.848C147.104,122.341,147.141,122.714,147.065,123.112z"/>
		<path fill="#7383BF" d="M140.675,124.793h-7.031c-0.663,0.028-1.208-0.224-1.638-0.755c-0.429-0.541-0.547-1.129-0.355-1.758
			l2.517-9.363h-9.788l-4.228,15.816h7.601c0.665-0.03,1.204,0.22,1.617,0.768c0.413,0.541,0.523,1.117,0.332,1.758l-2.137,7.927
			L140.675,124.793z"/>
	</g>
</g>
</svg>
