<?xml version="1.0" encoding="utf-8"?>
<!-- Generator: Adobe Illustrator 16.0.0, SVG Export Plug-In . SVG Version: 6.00 Build 0)  -->
<!DOCTYPE svg PUBLIC "-//W3C//DTD SVG 1.1//EN" "http://www.w3.org/Graphics/SVG/1.1/DTD/svg11.dtd">
<svg version="1.1" id="Layer_1" xmlns="http://www.w3.org/2000/svg" xmlns:xlink="http://www.w3.org/1999/xlink" x="0px" y="0px"
	 width="250px" height="250px" viewBox="0 0 250 250" enable-background="new 0 0 250 250" xml:space="preserve">
<g>
	<path fill="#EBBA16" d="M202.38,211.841c2.296-3.851,3.414-7.967,3.414-12.59v-74.783c0-4.62-1.118-8.739-3.416-12.593
		c-2.349-3.932-5.403-6.988-9.343-9.338c-3.852-2.298-7.971-3.416-12.589-3.416h-6.667V71.2c0-8.475-2.103-16.341-6.25-23.381
		c-4.175-7.082-9.891-12.793-16.979-16.977c-7.036-4.143-14.9-6.244-23.375-6.244c-8.479,0-16.343,2.101-23.379,6.244
		c-7.09,4.184-12.801,9.898-16.979,16.979c-4.145,7.036-6.246,14.9-6.246,23.379v27.921h-6.667c-4.618,0-8.737,1.118-12.591,3.416
		c-3.941,2.353-6.997,5.406-9.34,9.338c-2.298,3.852-3.416,7.971-3.416,12.593v74.783c0,4.627,1.117,8.746,3.414,12.59
		c2.315,3.884,5.458,7.026,9.342,9.344c3.85,2.297,7.969,3.414,12.591,3.414h106.541c4.622,0,8.741-1.117,12.589-3.414
		C196.97,218.837,200.027,215.781,202.38,211.841z M88.498,71.2c0-7.001,1.78-13.537,5.295-19.425
		c3.459-5.799,8.155-10.495,13.958-13.958c5.894-3.516,12.426-5.297,19.425-5.297c6.997,0,13.531,1.782,19.421,5.295
		c5.803,3.465,10.501,8.162,13.963,13.96c3.516,5.896,5.295,12.431,5.295,19.425v27.921H88.498V71.2z"/>
	<path opacity="0.2" d="M122.731,141.893c-1.172,0-2.051,0.364-2.942,1.218c-0.825,0.792-1.148,1.525-1.148,2.614v32.012
		c0,1.12,0.374,1.969,1.248,2.843c0.875,0.877,1.725,1.25,2.843,1.25s1.968-0.373,2.841-1.247c0.877-0.875,1.25-1.726,1.25-2.846
		v-32.012c0-1.089-0.325-1.825-1.157-2.623C124.782,142.255,123.901,141.893,122.731,141.893z"/>
	<path opacity="0.2" d="M197.936,211.841c2.296-3.851,3.414-7.967,3.414-12.59v-74.783c0-4.62-1.118-8.739-3.416-12.593
		c-2.349-3.932-5.404-6.988-9.343-9.338c-3.852-2.298-7.971-3.416-12.589-3.416h-6.667V71.2c0-8.475-2.103-16.341-6.25-23.381
		c-4.175-7.082-9.892-12.793-16.979-16.977c-7.036-4.143-14.9-6.244-23.375-6.244c-8.479,0-16.343,2.101-23.379,6.244
		c-7.09,4.184-12.802,9.898-16.979,16.979c-4.145,7.036-6.246,14.9-6.246,23.379v27.921h-6.667c-4.618,0-8.737,1.118-12.591,3.416
		c-3.941,2.353-6.997,5.406-9.34,9.338c-2.298,3.852-3.416,7.971-3.416,12.593v74.783c0,4.627,1.118,8.746,3.414,12.59
		c2.316,3.884,5.458,7.026,9.343,9.344c3.85,2.297,7.969,3.414,12.591,3.414h106.541c4.622,0,8.741-1.117,12.589-3.414
		C192.525,218.837,195.583,215.781,197.936,211.841z M84.053,71.2c0-7.001,1.779-13.537,5.295-19.425
		c3.459-5.799,8.156-10.495,13.958-13.958c5.894-3.516,12.426-5.297,19.425-5.297c6.997,0,13.531,1.782,19.421,5.295
		c5.803,3.465,10.501,8.162,13.963,13.96c3.516,5.896,5.295,12.431,5.295,19.425v27.921H84.053V71.2z M193.424,199.251
		c0,4.703-1.814,8.935-5.247,12.233c-3.412,3.272-7.505,4.933-12.175,4.933H69.461c-4.674,0-8.771-1.66-12.174-4.935
		c-3.433-3.29-5.248-7.521-5.248-12.231v-74.783c0-4.72,1.734-8.848,5.152-12.268c3.42-3.42,7.547-5.154,12.27-5.154h106.541
		c4.716,0,8.841,1.734,12.266,5.15c3.422,3.433,5.156,7.561,5.156,12.272V199.251z"/>
	<path fill="#4E017B" d="M127.176,141.893c-1.172,0-2.051,0.364-2.942,1.218c-0.825,0.792-1.148,1.525-1.148,2.614v32.012
		c0,1.12,0.373,1.969,1.248,2.843c0.875,0.877,1.726,1.25,2.843,1.25c1.118,0,1.969-0.373,2.841-1.247
		c0.877-0.875,1.25-1.726,1.25-2.846v-32.012c0-1.089-0.325-1.825-1.156-2.623C129.227,142.255,128.346,141.893,127.176,141.893z"/>
	<path fill="#4E017B" d="M202.38,211.841c2.296-3.851,3.414-7.967,3.414-12.59v-74.783c0-4.62-1.118-8.739-3.416-12.593
		c-2.349-3.932-5.403-6.988-9.343-9.338c-3.852-2.298-7.971-3.416-12.589-3.416h-6.667V71.2c0-8.475-2.103-16.341-6.25-23.381
		c-4.175-7.082-9.891-12.793-16.979-16.977c-7.036-4.143-14.9-6.244-23.375-6.244c-8.479,0-16.343,2.101-23.379,6.244
		c-7.09,4.184-12.801,9.898-16.979,16.979c-4.145,7.036-6.246,14.9-6.246,23.379v27.921h-6.667c-4.618,0-8.737,1.118-12.591,3.416
		c-3.941,2.353-6.997,5.406-9.34,9.338c-2.298,3.852-3.416,7.971-3.416,12.593v74.783c0,4.627,1.117,8.746,3.414,12.59
		c2.315,3.884,5.458,7.026,9.342,9.344c3.85,2.297,7.969,3.414,12.591,3.414h106.541c4.622,0,8.741-1.117,12.589-3.414
		C196.97,218.837,200.027,215.781,202.38,211.841z M88.498,71.2c0-7.001,1.78-13.537,5.295-19.425
		c3.459-5.799,8.155-10.495,13.958-13.958c5.894-3.516,12.426-5.297,19.425-5.297c6.997,0,13.531,1.782,19.421,5.295
		c5.803,3.465,10.501,8.162,13.963,13.96c3.516,5.896,5.295,12.431,5.295,19.425v27.921H88.498V71.2z M197.868,199.251
		c0,4.703-1.814,8.935-5.247,12.233c-3.412,3.272-7.505,4.933-12.175,4.933H73.906c-4.675,0-8.772-1.66-12.175-4.935
		c-3.433-3.29-5.247-7.521-5.247-12.231v-74.783c0-4.72,1.734-8.848,5.152-12.268c3.42-3.42,7.548-5.154,12.27-5.154h106.541
		c4.716,0,8.841,1.734,12.266,5.15c3.423,3.433,5.156,7.561,5.156,12.272V199.251z"/>
</g>
</svg>
