<?xml version="1.0" encoding="utf-8"?>
<!-- Generator: Adobe Illustrator 16.0.0, SVG Export Plug-In . SVG Version: 6.00 Build 0)  -->
<!DOCTYPE svg PUBLIC "-//W3C//DTD SVG 1.1//EN" "http://www.w3.org/Graphics/SVG/1.1/DTD/svg11.dtd">
<svg version="1.1" id="Layer_1" xmlns="http://www.w3.org/2000/svg" xmlns:xlink="http://www.w3.org/1999/xlink" x="0px" y="0px"
	 width="250px" height="250px" viewBox="0 0 250 250" enable-background="new 0 0 250 250" xml:space="preserve">
<g display="none">
	<g display="inline">
		<g opacity="0.2">
			<polygon points="-50.938,64.657 -54.509,64.657 -54.509,52.75 -45.644,52.75 -45.644,56.322 -50.938,56.322 			"/>
		</g>
		<g>
			<polygon fill="#4E017B" points="-49.151,64.657 -52.723,64.657 -52.723,52.75 -43.857,52.75 -43.857,56.322 -49.151,56.322 			
				"/>
		</g>
		<g opacity="0.2">
			<polygon points="-46.174,122.702 -46.174,119.13 -34.268,119.13 -34.268,127.996 -37.84,127.996 -37.84,122.702 			"/>
		</g>
		<g>
			<polygon fill="#4E017B" points="-44.389,122.702 -44.389,119.13 -32.482,119.13 -32.482,127.996 -36.054,127.996 
				-36.054,122.702 			"/>
		</g>
		<g opacity="0.2">
			<polygon fill="#4E017B" points="-97.374,71.801 -93.802,71.801 -93.802,59.895 -102.669,59.895 -102.669,63.467 -97.374,63.467 
							"/>
		</g>
		<g>
			<polygon fill="#4E017B" points="-95.588,71.801 -92.016,71.801 -92.016,59.895 -100.883,59.895 -100.883,63.467 -95.588,63.467 
							"/>
		</g>
	</g>
	<g display="inline">
		<path fill="#EBBA16" d="M-111.662,103.056c0,19.726,15.991,35.721,35.72,35.721c19.729,0,35.721-15.995,35.721-35.721H-111.662"/>
		<path opacity="0.2" d="M-77.728,140.563c-20.681,0-37.507-16.825-37.507-37.507v-1.786h75.013v1.786
			C-40.221,123.737-57.046,140.563-77.728,140.563z M-111.616,104.842c0.933,17.884,15.775,32.148,33.888,32.148
			c18.111,0,32.954-14.265,33.888-32.148H-111.616z"/>
		<path fill="#4E017B" d="M-75.942,140.563c-20.681,0-37.506-16.825-37.506-37.507v-1.786h75.013v1.786
			C-38.435,123.737-55.261,140.563-75.942,140.563z M-109.83,104.842c0.934,17.884,15.776,32.148,33.888,32.148
			c18.113,0,32.956-14.265,33.888-32.148H-109.83z"/>
	</g>
	<g display="inline">
		<path fill="#7383BF" d="M-100.829,128.68c-6.682-6.492-10.833-15.574-10.833-25.624c0-19.727,15.991-35.72,35.72-35.72v36.167
			L-100.829,128.68z"/>
		<path opacity="0.2" d="M-102.589,131.194l-1.27-1.233c-7.335-7.127-11.375-16.682-11.375-26.905
			c0-20.681,16.826-37.506,37.507-37.506h1.786v38.687L-102.589,131.194z M-79.514,69.168
			c-17.883,0.933-32.148,15.775-32.148,33.888c0,8.657,3.203,16.785,9.053,23.077l23.095-23.364V69.168z"/>
		<path fill="#4E017B" d="M-100.804,131.194l-1.27-1.233c-7.334-7.127-11.375-16.682-11.375-26.905
			c0-20.681,16.825-37.506,37.506-37.506h1.786v38.687L-100.804,131.194z M-77.728,69.168
			c-17.884,0.933-32.148,15.775-32.148,33.888c0,8.657,3.202,16.785,9.053,23.077l23.095-23.364V69.168z"/>
	</g>
	<g display="inline">
		<path fill="#DD342F" d="M-33.078,95.912c0-19.728-15.991-35.72-35.72-35.72v35.72H-33.078z"/>
		<path opacity="0.2" d="M-33.078,97.698H-72.37V58.405h1.786c20.682,0,37.506,16.825,37.506,37.507V97.698z M-68.797,94.126h32.102
			c-0.902-17.292-14.811-31.2-32.102-32.102V94.126z"/>
		<path fill="#4E017B" d="M-31.292,97.698h-39.292V58.405h1.787c20.681,0,37.506,16.825,37.506,37.507V97.698z M-67.011,94.126
			h32.101c-0.901-17.292-14.811-31.2-32.101-32.102V94.126z"/>
	</g>
	<g display="inline">
		<polygon fill="#4E017B" points="-77.169,80.73 -92.064,70.588 -87.625,69.293 -75.064,77.846 		"/>
	</g>
	<g display="inline">
		<polygon fill="#4E017B" points="-75.942,92.271 -99.208,76.839 -97.103,73.954 -75.942,87.989 		"/>
	</g>
	<g display="inline">
		<polygon fill="#4E017B" points="-75.942,102.986 -104.604,84 -102.499,81.115 -75.942,98.705 		"/>
	</g>
	<g display="inline">
		<polygon fill="#4E017B" points="-81.599,109.96 -109.031,91.832 -106.926,88.947 -79.265,107.224 		"/>
	</g>
	<g display="inline">
		<polygon fill="#4E017B" points="-87.997,116.432 -111.71,100.762 -109.605,97.877 -85.439,113.845 		"/>
	</g>
	<g display="inline">
		<polygon fill="#4E017B" points="-93.802,123.312 -111.71,111.478 -109.605,108.593 -91.848,120.327 		"/>
	</g>
	<g display="inline">
		<circle fill="#DD342F" cx="-33.97" cy="54.834" r="5.358"/>
		<path opacity="0.2" d="M-35.756,61.978c-3.939,0-7.145-3.205-7.145-7.144c0-3.939,3.205-7.145,7.145-7.145
			s7.144,3.205,7.144,7.145C-28.613,58.772-31.817,61.978-35.756,61.978z M-35.756,51.262c-1.97,0-3.572,1.603-3.572,3.572
			s1.602,3.571,3.572,3.571s3.572-1.602,3.572-3.571S-33.786,51.262-35.756,51.262z"/>
		<path fill="#4E017B" d="M-33.971,61.978c-3.939,0-7.144-3.205-7.144-7.144c0-3.939,3.204-7.145,7.144-7.145
			s7.145,3.205,7.145,7.145C-26.826,58.772-30.031,61.978-33.971,61.978z M-33.971,51.262c-1.97,0-3.572,1.603-3.572,3.572
			s1.602,3.571,3.572,3.571s3.572-1.602,3.572-3.571S-32,51.262-33.971,51.262z"/>
	</g>
	<g display="inline">
		<circle fill="#EBBA16" cx="-34.268" cy="137.819" r="5.358"/>
		<path opacity="0.2" d="M-36.054,144.964c-3.939,0-7.145-3.205-7.145-7.145c0-3.938,3.205-7.144,7.145-7.144
			s7.144,3.205,7.144,7.144C-28.91,141.759-32.114,144.964-36.054,144.964z M-36.054,134.248c-1.97,0-3.572,1.602-3.572,3.571
			s1.602,3.572,3.572,3.572s3.572-1.603,3.572-3.572S-34.083,134.248-36.054,134.248z"/>
		<path fill="#4E017B" d="M-34.268,144.964c-3.939,0-7.145-3.205-7.145-7.145c0-3.938,3.205-7.144,7.145-7.144
			s7.144,3.205,7.144,7.144C-27.125,141.759-30.329,144.964-34.268,144.964z M-34.268,134.248c-1.97,0-3.572,1.602-3.572,3.571
			s1.602,3.572,3.572,3.572s3.572-1.603,3.572-3.572S-32.298,134.248-34.268,134.248z"/>
	</g>
	<g display="inline">
		<circle fill="#7383BF" cx="-110.706" cy="61.618" r="5.358"/>
		<path opacity="0.2" d="M-112.492,68.763c-3.939,0-7.144-3.205-7.144-7.145c0-3.938,3.205-7.144,7.144-7.144
			s7.144,3.205,7.144,7.144C-105.348,65.558-108.553,68.763-112.492,68.763z M-112.492,58.046c-1.97,0-3.572,1.603-3.572,3.572
			c0,1.971,1.603,3.572,3.572,3.572s3.572-1.602,3.572-3.572C-108.92,59.648-110.522,58.046-112.492,58.046z"/>
		<path fill="#4E017B" d="M-110.707,68.763c-3.938,0-7.144-3.205-7.144-7.145c0-3.938,3.205-7.144,7.144-7.144
			c3.939,0,7.144,3.205,7.144,7.144C-103.563,65.558-106.768,68.763-110.707,68.763z M-110.707,58.046
			c-1.969,0-3.572,1.603-3.572,3.572c0,1.971,1.603,3.572,3.572,3.572c1.97,0,3.572-1.602,3.572-3.572
			C-107.134,59.648-108.736,58.046-110.707,58.046z"/>
	</g>
</g>
<path id="XMLID_24_" opacity="0.2" d="M107.57,178.828c-2.124,0-3.848,1.723-3.848,3.848v34.629H48.895V90.332h44.248
	c2.125,0,3.848-1.723,3.848-3.848c0-2.124-1.723-3.848-3.848-3.848H45.047c-2.125,0-3.848,1.724-3.848,3.848v134.668
	c0,2.125,1.723,3.848,3.848,3.848h62.523c2.125,0,3.848-1.723,3.848-3.848v-38.477C111.418,180.551,109.696,178.828,107.57,178.828z
	"/>
<path id="XMLID_2983_" fill="#4E017B" d="M110.57,178.828c-2.124,0-3.848,1.723-3.848,3.848v34.629H51.895V90.332h44.248
	c2.125,0,3.848-1.723,3.848-3.848c0-2.124-1.723-3.848-3.848-3.848H48.047c-2.125,0-3.848,1.724-3.848,3.848v134.668
	c0,2.125,1.723,3.848,3.848,3.848h62.523c2.125,0,3.848-1.723,3.848-3.848v-38.477C114.418,180.551,112.696,178.828,110.57,178.828z
	"/>
<path id="XMLID_23_" opacity="0.2" d="M198.953,82.637h-48.096c-2.125,0-3.848,1.724-3.848,3.848c0,2.125,1.723,3.848,3.848,3.848
	h44.248v126.973h-54.829v-34.629c0-2.125-1.724-3.848-3.848-3.848c-2.125,0-3.848,1.723-3.848,3.848v38.477
	c0,2.125,1.723,3.848,3.848,3.848h62.524c2.125,0,3.848-1.723,3.848-3.848V86.484C202.801,84.36,201.078,82.637,198.953,82.637z"/>
<path id="XMLID_2984_" fill="#4E017B" d="M201.953,82.637h-48.096c-2.125,0-3.848,1.724-3.848,3.848
	c0,2.125,1.723,3.848,3.848,3.848h44.248v126.973h-54.829v-34.629c0-2.125-1.724-3.848-3.848-3.848
	c-2.125,0-3.848,1.723-3.848,3.848v38.477c0,2.125,1.723,3.848,3.848,3.848h62.524c2.125,0,3.848-1.723,3.848-3.848V86.484
	C205.801,84.36,204.078,82.637,201.953,82.637z"/>
<path id="XMLID_17_" opacity="0.2" d="M171.095,108.608c-1.062,0-1.924,0.861-1.924,1.924v2.886h-2.886
	c-1.062,0-1.924,0.861-1.924,1.924s0.862,1.924,1.924,1.924h2.886v2.886c0,1.062,0.862,1.924,1.924,1.924
	c1.063,0,1.924-0.862,1.924-1.924v-2.886h2.886c1.063,0,1.924-0.861,1.924-1.924s-0.861-1.924-1.924-1.924h-2.886v-2.886
	C173.019,109.47,172.158,108.608,171.095,108.608z"/>
<path id="XMLID_2985_" fill="#EBBA16" d="M173.095,108.608c-1.062,0-1.924,0.861-1.924,1.924v2.886h-2.886
	c-1.062,0-1.924,0.861-1.924,1.924s0.862,1.924,1.924,1.924h2.886v2.886c0,1.062,0.862,1.924,1.924,1.924
	c1.063,0,1.924-0.862,1.924-1.924v-2.886h2.886c1.063,0,1.924-0.861,1.924-1.924s-0.861-1.924-1.924-1.924h-2.886v-2.886
	C175.019,109.47,174.158,108.608,173.095,108.608z"/>
<path id="XMLID_18_" opacity="0.2" d="M180.714,175.942c-1.062,0-1.924,0.86-1.924,1.924v2.886h-2.886
	c-1.062,0-1.924,0.86-1.924,1.924c0,1.062,0.862,1.924,1.924,1.924h2.886v2.886c0,1.062,0.862,1.924,1.924,1.924
	c1.063,0,1.924-0.862,1.924-1.924V184.6h2.886c1.063,0,1.924-0.862,1.924-1.924c0-1.063-0.861-1.924-1.924-1.924h-2.886v-2.886
	C182.638,176.803,181.777,175.942,180.714,175.942z"/>
<path id="XMLID_2988_" fill="#7383BF" d="M182.714,175.942c-1.062,0-1.924,0.86-1.924,1.924v2.886h-2.886
	c-1.062,0-1.924,0.86-1.924,1.924c0,1.062,0.862,1.924,1.924,1.924h2.886v2.886c0,1.062,0.862,1.924,1.924,1.924
	c1.063,0,1.924-0.862,1.924-1.924V184.6h2.886c1.063,0,1.924-0.862,1.924-1.924c0-1.063-0.861-1.924-1.924-1.924h-2.886v-2.886
	C184.638,176.803,183.777,175.942,182.714,175.942z"/>
<path id="XMLID_19_" opacity="0.2" fill="#DD342F" d="M161.476,208.647c1.063,0,1.924-0.862,1.924-1.924v-2.886h2.886
	c1.063,0,1.924-0.862,1.924-1.924c0-1.063-0.861-1.924-1.924-1.924h-2.886v-2.886c0-1.063-0.86-1.924-1.924-1.924
	c-1.062,0-1.924,0.86-1.924,1.924v2.886h-2.886c-1.062,0-1.924,0.86-1.924,1.924c0,1.062,0.862,1.924,1.924,1.924h2.886v2.886
	C159.552,207.785,160.414,208.647,161.476,208.647z"/>
<path id="XMLID_2990_" fill="#DD342F" d="M163.476,208.647c1.063,0,1.924-0.862,1.924-1.924v-2.886h2.886
	c1.063,0,1.924-0.862,1.924-1.924c0-1.063-0.861-1.924-1.924-1.924h-2.886v-2.886c0-1.063-0.86-1.924-1.924-1.924
	c-1.062,0-1.924,0.86-1.924,1.924v2.886h-2.886c-1.062,0-1.924,0.86-1.924,1.924c0,1.062,0.862,1.924,1.924,1.924h2.886v2.886
	C161.552,207.785,162.414,208.647,163.476,208.647z"/>
<path id="XMLID_22_" opacity="0.2" d="M74.903,122.075c1.063,0,1.924-0.862,1.924-1.924v-2.886h2.886
	c1.063,0,1.924-0.861,1.924-1.924s-0.861-1.924-1.924-1.924h-2.886v-2.886c0-1.063-0.861-1.924-1.924-1.924
	c-1.062,0-1.924,0.861-1.924,1.924v2.886h-2.886c-1.062,0-1.924,0.861-1.924,1.924s0.862,1.924,1.924,1.924h2.886v2.886
	C72.979,121.213,73.842,122.075,74.903,122.075z"/>
<path id="XMLID_2991_" fill="#DD342F" d="M76.903,122.075c1.063,0,1.924-0.862,1.924-1.924v-2.886h2.886
	c1.063,0,1.924-0.861,1.924-1.924s-0.861-1.924-1.924-1.924h-2.886v-2.886c0-1.063-0.861-1.924-1.924-1.924
	c-1.062,0-1.924,0.861-1.924,1.924v2.886h-2.886c-1.062,0-1.924,0.861-1.924,1.924s0.862,1.924,1.924,1.924h2.886v2.886
	C74.979,121.213,75.842,122.075,76.903,122.075z"/>
<path id="XMLID_21_" opacity="0.2" d="M65.284,189.409c1.063,0,1.924-0.862,1.924-1.924V184.6h2.886
	c1.063,0,1.924-0.862,1.924-1.924c0-1.063-0.861-1.924-1.924-1.924h-2.886v-2.886c0-1.063-0.861-1.924-1.924-1.924
	c-1.062,0-1.924,0.86-1.924,1.924v2.886h-2.886c-1.062,0-1.924,0.86-1.924,1.924c0,1.062,0.862,1.924,1.924,1.924h2.886v2.886
	C63.36,188.547,64.223,189.409,65.284,189.409z"/>
<path id="XMLID_2992_" fill="#EBBA16" d="M67.284,189.409c1.063,0,1.924-0.862,1.924-1.924V184.6h2.886
	c1.063,0,1.924-0.862,1.924-1.924c0-1.063-0.861-1.924-1.924-1.924h-2.886v-2.886c0-1.063-0.861-1.924-1.924-1.924
	c-1.062,0-1.924,0.86-1.924,1.924v2.886h-2.886c-1.062,0-1.924,0.86-1.924,1.924c0,1.062,0.862,1.924,1.924,1.924h2.886v2.886
	C65.36,188.547,66.223,189.409,67.284,189.409z"/>
<path id="XMLID_20_" opacity="0.2" d="M84.522,208.647c1.063,0,1.924-0.862,1.924-1.924v-2.886h2.886
	c1.063,0,1.924-0.862,1.924-1.924c0-1.063-0.861-1.924-1.924-1.924h-2.886v-2.886c0-1.063-0.861-1.924-1.924-1.924
	c-1.062,0-1.924,0.86-1.924,1.924v2.886h-2.886c-1.062,0-1.924,0.86-1.924,1.924c0,1.062,0.862,1.924,1.924,1.924h2.886v2.886
	C82.599,207.785,83.461,208.647,84.522,208.647z"/>
<path id="XMLID_4202_" fill="#7383BF" d="M86.522,208.647c1.063,0,1.924-0.862,1.924-1.924v-2.886h2.886
	c1.063,0,1.924-0.862,1.924-1.924c0-1.063-0.861-1.924-1.924-1.924h-2.886v-2.886c0-1.063-0.861-1.924-1.924-1.924
	c-1.062,0-1.924,0.86-1.924,1.924v2.886h-2.886c-1.062,0-1.924,0.86-1.924,1.924c0,1.062,0.862,1.924,1.924,1.924h2.886v2.886
	C84.599,207.785,85.461,208.647,86.522,208.647z"/>
<polygon id="XMLID_1_" fill="#DD342F" points="122.607,42.236 127.393,42.236 137.973,63.398 112.026,63.398 "/>
<rect id="XMLID_2_" x="128.847" y="71.094" fill="#EBBA16" width="11.543" height="59.639"/>
<polygon id="XMLID_3_" fill="#EBBA16" points="121.151,71.094 121.151,130.732 109.609,130.732 109.609,120.151 109.608,120.148 
	109.608,71.094 "/>
<rect id="XMLID_4_" x="109.609" y="138.428" fill="#7383BF" width="30.78" height="1.924"/>
<rect id="XMLID_5_" x="109.609" y="148.047" fill="#7383BF" width="30.78" height="11.543"/>
<polygon id="XMLID_6_" fill="#DD342F" points="148.086,127.847 159.629,136.504 159.629,169.209 151.426,169.209 148.086,162.53 "/>
<polygon id="XMLID_7_" fill="#DD342F" points="98.574,169.209 90.371,169.209 90.371,136.504 101.913,127.847 101.913,162.53 "/>
<path id="XMLID_8_" opacity="0.2" d="M98.913,118.228l-17.698,13.274c-0.969,0.728-1.539,1.867-1.539,3.078v38.477
	c0,2.125,1.723,3.848,3.848,3.848h14.429c1.457,0,2.79-0.823,3.441-2.128l3.747-7.491h33.72l3.746,7.491
	c0.652,1.305,1.984,2.128,3.442,2.128h14.429c2.125,0,3.848-1.723,3.848-3.848V134.58c0-1.211-0.57-2.351-1.539-3.078l-17.7-13.274
	V67.324c0-0.013-0.001-0.024-0.001-0.036c0-0.014,0.001-0.027,0.001-0.042c0-0.803-0.246-1.549-0.667-2.165l-13.977-27.955
	c-0.113-0.321-0.264-0.625-0.452-0.902l-4.548-9.096C124.789,25.823,123.457,25,122,25c-1.458,0-2.791,0.823-3.442,2.128
	L99.582,65.081c-0.421,0.616-0.668,1.362-0.668,2.165c0,0.015,0.002,0.028,0.002,0.042c0,0.012-0.002,0.023-0.002,0.036V118.228z
	 M119.607,42.236h4.785l10.58,21.162h-25.946L119.607,42.236z M106.609,138.428h30.78v1.924h-30.78V138.428z M137.39,71.094v59.639
	h-11.543V71.094H137.39z M118.151,71.094v59.639h-11.542v-10.581l-0.001-0.003V71.094H118.151z M95.574,169.209h-8.203v-32.705
	l11.542-8.657v34.684L95.574,169.209z M106.609,159.59v-11.543h30.78v11.543H106.609z M145.086,127.847l11.543,8.657v32.705h-8.203
	l-3.34-6.679V127.847z"/>
<path id="XMLID_2976_" fill="#4E017B" d="M101.913,118.228l-17.698,13.274c-0.969,0.728-1.539,1.867-1.539,3.078v38.477
	c0,2.125,1.723,3.848,3.848,3.848h14.429c1.457,0,2.79-0.823,3.441-2.128l3.747-7.491h33.72l3.746,7.491
	c0.652,1.305,1.984,2.128,3.442,2.128h14.429c2.125,0,3.848-1.723,3.848-3.848V134.58c0-1.211-0.57-2.351-1.539-3.078l-17.7-13.274
	V67.324c0-0.013-0.001-0.024-0.001-0.036c0-0.014,0.001-0.027,0.001-0.042c0-0.803-0.246-1.549-0.667-2.165l-13.977-27.955
	c-0.113-0.321-0.264-0.625-0.452-0.902l-4.548-9.096C127.789,25.823,126.457,25,125,25c-1.458,0-2.791,0.823-3.442,2.128
	l-18.977,37.953c-0.421,0.616-0.668,1.362-0.668,2.165c0,0.015,0.002,0.028,0.002,0.042c0,0.012-0.002,0.023-0.002,0.036V118.228z
	 M122.607,42.236h4.785l10.58,21.162h-25.946L122.607,42.236z M109.609,138.428h30.78v1.924h-30.78V138.428z M140.39,71.094v59.639
	h-11.543V71.094H140.39z M121.151,71.094v59.639h-11.542v-10.581l-0.001-0.003V71.094H121.151z M98.574,169.209h-8.203v-32.705
	l11.542-8.657v34.684L98.574,169.209z M109.609,159.59v-11.543h30.78v11.543H109.609z M148.086,127.847l11.543,8.657v32.705h-8.203
	l-3.34-6.679V127.847z"/>
</svg>
