<?xml version="1.0" encoding="utf-8"?>
<!-- Generator: Adobe Illustrator 16.0.0, SVG Export Plug-In . SVG Version: 6.00 Build 0)  -->
<!DOCTYPE svg PUBLIC "-//W3C//DTD SVG 1.1//EN" "http://www.w3.org/Graphics/SVG/1.1/DTD/svg11.dtd">
<svg version="1.1" id="Layer_1" xmlns="http://www.w3.org/2000/svg" xmlns:xlink="http://www.w3.org/1999/xlink" x="0px" y="0px"
	 width="250px" height="250px" viewBox="0 0 250 250" enable-background="new 0 0 250 250" xml:space="preserve">
<g>
	<g opacity="0.2">
		<g>
			<path d="M39.579,120.851c-0.337,0-0.68-0.049-1.02-0.152c-1.849-0.563-2.893-2.518-2.33-4.367
				c1.693-5.565,3.948-10.99,6.704-16.124c0.915-1.704,3.037-2.342,4.739-1.429c1.703,0.915,2.343,3.036,1.429,4.739
				c-2.538,4.728-4.615,9.724-6.174,14.85C42.467,119.878,41.079,120.851,39.579,120.851z M203.405,120.808
				c-1.5,0-2.888-0.972-3.348-2.481c-1.559-5.12-3.638-10.114-6.179-14.842c-0.915-1.703-0.276-3.825,1.427-4.74
				c1.699-0.914,3.824-0.276,4.739,1.426c2.759,5.133,5.016,10.556,6.71,16.117c0.563,1.849-0.479,3.805-2.329,4.368
				C204.086,120.759,203.742,120.808,203.405,120.808z M55.354,91.434c-0.783,0-1.57-0.261-2.222-0.797
				c-1.493-1.228-1.707-3.434-0.479-4.926c3.696-4.493,7.851-8.642,12.347-12.332c1.494-1.225,3.699-1.008,4.926,0.485
				c1.226,1.494,1.009,3.7-0.485,4.926c-4.145,3.402-7.975,7.226-11.382,11.368C57.367,90.999,56.365,91.434,55.354,91.434z
				 M187.621,91.407c-1.01,0-2.012-0.435-2.704-1.275c-3.408-4.14-7.239-7.963-11.386-11.364c-1.494-1.226-1.712-3.431-0.486-4.926
				c1.226-1.494,3.431-1.712,4.926-0.486c4.497,3.688,8.652,7.836,12.351,12.326c1.229,1.492,1.015,3.698-0.478,4.927
				C189.192,91.146,188.404,91.407,187.621,91.407z M81.161,70.264c-1.249,0-2.458-0.67-3.089-1.849
				c-0.912-1.705-0.27-3.826,1.434-4.738c5.133-2.748,10.557-4.995,16.121-6.681c1.848-0.562,3.804,0.485,4.364,2.335
				c0.561,1.85-0.485,3.804-2.335,4.364c-5.123,1.552-10.118,3.623-14.846,6.153C82.284,70.13,81.718,70.264,81.161,70.264z
				 M161.805,70.246c-0.557,0-1.122-0.133-1.647-0.414c-4.733-2.53-9.732-4.599-14.859-6.149c-1.851-0.559-2.896-2.513-2.338-4.363
				c0.561-1.85,2.512-2.896,4.363-2.337c5.567,1.683,10.995,3.929,16.135,6.676c1.704,0.911,2.348,3.032,1.437,4.736
				C164.264,69.574,163.055,70.246,161.805,70.246z M113.084,60.59c-1.78,0-3.303-1.352-3.479-3.161
				c-0.188-1.924,1.22-3.636,3.144-3.823c2.885-0.282,5.824-0.424,8.736-0.424c0.005,0,0.01,0,0.015,0
				c2.898,0,5.823,0.141,8.693,0.418c1.924,0.187,3.333,1.897,3.146,3.821c-0.186,1.924-1.895,3.322-3.82,3.147
				c-2.647-0.256-5.346-0.386-8.02-0.386c-0.005,0-0.01,0-0.014,0c-2.687,0-5.396,0.132-8.057,0.391
				C113.313,60.584,113.198,60.59,113.084,60.59z"/>
		</g>
	</g>
	<g>
		<g>
			<path fill="#4E017B" d="M42.579,120.851c-0.337,0-0.68-0.049-1.02-0.152c-1.849-0.563-2.893-2.518-2.33-4.367
				c1.693-5.565,3.948-10.99,6.704-16.124c0.915-1.704,3.037-2.342,4.739-1.429c1.703,0.915,2.343,3.036,1.429,4.739
				c-2.538,4.728-4.615,9.724-6.174,14.85C45.467,119.878,44.079,120.851,42.579,120.851z M206.405,120.808
				c-1.5,0-2.888-0.972-3.348-2.481c-1.559-5.12-3.638-10.114-6.179-14.842c-0.915-1.703-0.276-3.825,1.427-4.74
				c1.699-0.914,3.824-0.276,4.739,1.426c2.759,5.133,5.016,10.556,6.71,16.117c0.563,1.849-0.479,3.805-2.329,4.368
				C207.086,120.759,206.742,120.808,206.405,120.808z M58.354,91.434c-0.783,0-1.57-0.261-2.222-0.797
				c-1.493-1.228-1.707-3.434-0.479-4.926c3.696-4.493,7.851-8.642,12.347-12.332c1.494-1.225,3.699-1.008,4.926,0.485
				c1.226,1.494,1.009,3.7-0.485,4.926c-4.145,3.402-7.975,7.226-11.382,11.368C60.367,90.999,59.365,91.434,58.354,91.434z
				 M190.621,91.407c-1.01,0-2.012-0.435-2.704-1.275c-3.408-4.14-7.239-7.963-11.386-11.364c-1.494-1.226-1.712-3.431-0.486-4.926
				c1.226-1.494,3.431-1.712,4.926-0.486c4.497,3.688,8.652,7.836,12.351,12.326c1.229,1.492,1.015,3.698-0.478,4.927
				C192.192,91.146,191.404,91.407,190.621,91.407z M84.161,70.264c-1.249,0-2.458-0.67-3.089-1.849
				c-0.912-1.705-0.27-3.826,1.434-4.738c5.133-2.748,10.557-4.995,16.121-6.681c1.848-0.562,3.804,0.485,4.364,2.335
				c0.561,1.85-0.485,3.804-2.335,4.364c-5.123,1.552-10.118,3.623-14.846,6.153C85.284,70.13,84.718,70.264,84.161,70.264z
				 M164.805,70.246c-0.557,0-1.122-0.133-1.647-0.414c-4.733-2.53-9.732-4.599-14.859-6.149c-1.851-0.559-2.896-2.513-2.338-4.363
				c0.561-1.85,2.512-2.896,4.363-2.337c5.567,1.683,10.995,3.929,16.135,6.676c1.704,0.911,2.348,3.032,1.437,4.736
				C167.264,69.574,166.055,70.246,164.805,70.246z M116.084,60.59c-1.78,0-3.303-1.352-3.479-3.161
				c-0.188-1.924,1.22-3.636,3.144-3.823c2.885-0.282,5.824-0.424,8.736-0.424c0.005,0,0.01,0,0.015,0
				c2.898,0,5.823,0.141,8.693,0.418c1.924,0.187,3.333,1.897,3.146,3.821c-0.186,1.924-1.895,3.322-3.82,3.147
				c-2.647-0.256-5.346-0.386-8.02-0.386c-0.005,0-0.01,0-0.014,0c-2.687,0-5.396,0.132-8.057,0.391
				C116.313,60.584,116.198,60.59,116.084,60.59z"/>
		</g>
	</g>
	<g>
		<path fill="#EBBA16" d="M242.014,115.3c0.057-1.361-0.341-2.616-1.183-3.739c-0.866-1.156-2.061-1.86-3.561-2.091l-18.529-2.663
			l-8.252-16.76c-0.683-1.364-1.707-2.293-3.045-2.759c-1.281-0.443-2.607-0.443-3.889,0c-1.339,0.466-2.363,1.395-3.049,2.766
			l-8.249,16.753l-18.542,2.665c-1.487,0.229-2.682,0.933-3.547,2.089c-0.842,1.123-1.24,2.378-1.184,3.739
			c0.058,1.386,0.608,2.609,1.646,3.647l13.455,13.074l-3.174,18.539c-0.229,1.371,0.031,2.672,0.771,3.867
			c0.753,1.217,1.841,2.012,3.231,2.357c1.369,0.342,2.737,0.16,3.948-0.504l16.636-8.633l16.611,8.621
			c0.836,0.455,1.716,0.686,2.617,0.686c0.447,0,0.902-0.057,1.356-0.17c1.391-0.346,2.479-1.141,3.232-2.357
			c0.739-1.195,0.999-2.496,0.77-3.873l-3.174-18.533l13.468-13.088C241.405,117.91,241.956,116.686,242.014,115.3z"/>
		<path opacity="0.2" d="M239.014,115.3c0.057-1.361-0.341-2.616-1.183-3.739c-0.866-1.156-2.061-1.86-3.561-2.091l-18.529-2.663
			l-8.252-16.76c-0.683-1.364-1.707-2.293-3.045-2.759c-1.281-0.443-2.607-0.443-3.889,0c-1.339,0.466-2.363,1.395-3.049,2.766
			l-8.249,16.753l-18.542,2.665c-1.487,0.229-2.682,0.933-3.547,2.089c-0.842,1.123-1.24,2.378-1.184,3.739
			c0.058,1.386,0.608,2.609,1.646,3.647l13.455,13.074l-3.174,18.539c-0.229,1.371,0.031,2.672,0.771,3.867
			c0.753,1.217,1.841,2.012,3.231,2.357c1.369,0.342,2.737,0.16,3.948-0.504l16.636-8.633l16.611,8.621
			c0.836,0.455,1.716,0.686,2.617,0.686c0.447,0,0.902-0.057,1.356-0.17c1.391-0.346,2.479-1.141,3.232-2.357
			c0.739-1.195,0.999-2.496,0.77-3.873l-3.174-18.533l13.468-13.088C238.405,117.91,238.956,116.686,239.014,115.3z
			 M216.618,129.658l3.35,19.371l-17.471-9.213l-17.35,9.213l3.229-19.371l-14.005-13.767l19.392-2.873l8.736-17.594l8.737,17.596
			l19.507,2.871L216.618,129.658z"/>
		<path fill="#4E017B" d="M242.014,115.3c0.057-1.361-0.341-2.616-1.183-3.739c-0.866-1.156-2.061-1.86-3.561-2.091l-18.529-2.663
			l-8.252-16.76c-0.683-1.364-1.707-2.293-3.045-2.759c-1.281-0.443-2.607-0.443-3.889,0c-1.339,0.466-2.363,1.395-3.049,2.766
			l-8.249,16.753l-18.542,2.665c-1.487,0.229-2.682,0.933-3.547,2.089c-0.842,1.123-1.24,2.378-1.184,3.739
			c0.058,1.386,0.608,2.609,1.646,3.647l13.455,13.074l-3.174,18.539c-0.229,1.371,0.031,2.672,0.771,3.867
			c0.753,1.217,1.841,2.012,3.231,2.357c1.369,0.342,2.737,0.16,3.948-0.504l16.636-8.633l16.611,8.621
			c0.836,0.455,1.716,0.686,2.617,0.686c0.447,0,0.902-0.057,1.356-0.17c1.391-0.346,2.479-1.141,3.232-2.357
			c0.739-1.195,0.999-2.496,0.77-3.873l-3.174-18.533l13.468-13.088C241.405,117.91,241.956,116.686,242.014,115.3z
			 M219.618,129.658l3.35,19.371l-17.471-9.213l-17.35,9.213l3.229-19.371l-14.005-13.767l19.392-2.873l8.736-17.594l8.737,17.596
			l19.507,2.871L219.618,129.658z"/>
	</g>
	<g>
		<path fill="#EBBA16" d="M203.622,125.825c0.061-1.458-0.365-2.803-1.268-4.006c-0.928-1.239-2.208-1.993-3.814-2.24l-19.854-2.854
			l-8.842-17.957c-0.73-1.461-1.828-2.456-3.262-2.955c-1.373-0.476-2.793-0.476-4.166,0c-1.435,0.499-2.532,1.494-3.268,2.963
			l-8.838,17.949l-19.865,2.855c-1.594,0.245-2.873,0.999-3.801,2.238c-0.902,1.203-1.328,2.548-1.268,4.006
			c0.062,1.486,0.651,2.796,1.764,3.908l14.416,14.008l-3.4,19.863c-0.246,1.469,0.033,2.863,0.825,4.143
			c0.808,1.305,1.973,2.156,3.463,2.527c1.467,0.367,2.933,0.17,4.229-0.541l17.824-9.25l17.798,9.238
			c0.896,0.488,1.839,0.734,2.805,0.734c0.479,0,0.967-0.061,1.452-0.182c1.49-0.371,2.656-1.223,3.464-2.527
			c0.792-1.279,1.069-2.674,0.824-4.148l-3.4-19.857l14.43-14.023C202.97,128.621,203.56,127.311,203.622,125.825z"/>
		<path opacity="0.2" d="M200.622,125.825c0.061-1.458-0.365-2.803-1.268-4.006c-0.928-1.239-2.208-1.993-3.814-2.24l-19.854-2.854
			l-8.842-17.957c-0.73-1.461-1.828-2.456-3.262-2.955c-1.373-0.476-2.793-0.476-4.166,0c-1.435,0.499-2.532,1.494-3.268,2.963
			l-8.838,17.949l-19.865,2.855c-1.594,0.245-2.873,0.999-3.801,2.238c-0.902,1.203-1.328,2.548-1.268,4.006
			c0.062,1.486,0.651,2.796,1.764,3.908l14.416,14.008l-3.4,19.863c-0.246,1.469,0.033,2.863,0.825,4.143
			c0.808,1.305,1.973,2.156,3.463,2.527c1.467,0.367,2.933,0.17,4.229-0.541l17.824-9.25l17.798,9.238
			c0.896,0.488,1.839,0.734,2.805,0.734c0.479,0,0.967-0.061,1.452-0.182c1.49-0.371,2.656-1.223,3.464-2.527
			c0.792-1.279,1.069-2.674,0.824-4.148l-3.4-19.857l14.43-14.023C199.97,128.621,200.56,127.311,200.622,125.825z M176.626,141.209
			l3.589,20.754l-18.718-9.871l-18.589,9.871l3.46-20.754l-15.006-14.752l20.776-3.078l9.36-18.85l9.361,18.852l20.9,3.076
			L176.626,141.209z"/>
		<path fill="#4E017B" d="M203.622,125.825c0.061-1.458-0.365-2.803-1.268-4.006c-0.928-1.239-2.208-1.993-3.814-2.24l-19.854-2.854
			l-8.842-17.957c-0.73-1.461-1.828-2.456-3.262-2.955c-1.373-0.476-2.793-0.476-4.166,0c-1.435,0.499-2.532,1.494-3.268,2.963
			l-8.838,17.949l-19.865,2.855c-1.594,0.245-2.873,0.999-3.801,2.238c-0.902,1.203-1.328,2.548-1.268,4.006
			c0.062,1.486,0.651,2.796,1.764,3.908l14.416,14.008l-3.4,19.863c-0.246,1.469,0.033,2.863,0.825,4.143
			c0.808,1.305,1.973,2.156,3.463,2.527c1.467,0.367,2.933,0.17,4.229-0.541l17.824-9.25l17.798,9.238
			c0.896,0.488,1.839,0.734,2.805,0.734c0.479,0,0.967-0.061,1.452-0.182c1.49-0.371,2.656-1.223,3.464-2.527
			c0.792-1.279,1.069-2.674,0.824-4.148l-3.4-19.857l14.43-14.023C202.97,128.621,203.56,127.311,203.622,125.825z M179.626,141.209
			l3.589,20.754l-18.718-9.871l-18.589,9.871l3.46-20.754l-15.006-14.752l20.776-3.078l9.36-18.85l9.361,18.852l20.9,3.076
			L179.626,141.209z"/>
	</g>
	<g>
		<path fill="#EBBA16" d="M81.012,116.297c0.057-1.357-0.341-2.614-1.182-3.735c-0.867-1.157-2.061-1.861-3.561-2.091l-18.529-2.666
			l-8.252-16.758c-0.682-1.363-1.706-2.292-3.045-2.758c-1.281-0.445-2.606-0.445-3.889,0c-1.338,0.466-2.362,1.395-3.048,2.765
			l-8.249,16.751l-18.542,2.667c-1.486,0.229-2.68,0.933-3.547,2.089c-0.842,1.122-1.239,2.379-1.183,3.736
			c0.058,1.388,0.607,2.611,1.646,3.65l13.454,13.074l-3.174,18.537c-0.229,1.371,0.031,2.672,0.771,3.867
			c0.754,1.219,1.842,2.012,3.232,2.359c1.368,0.342,2.736,0.158,3.947-0.504l16.636-8.635l16.611,8.621
			c0.835,0.457,1.716,0.688,2.617,0.688c0.446,0,0.902-0.059,1.355-0.17c1.391-0.348,2.479-1.141,3.232-2.359
			c0.739-1.195,0.999-2.496,0.77-3.873l-3.174-18.531l13.468-13.087C80.404,118.909,80.954,117.685,81.012,116.297z"/>
		<path opacity="0.2" d="M78.012,116.297c0.057-1.357-0.341-2.614-1.182-3.735c-0.867-1.157-2.061-1.861-3.561-2.091l-18.529-2.666
			l-8.252-16.758c-0.682-1.363-1.706-2.292-3.045-2.758c-1.281-0.445-2.606-0.445-3.889,0c-1.338,0.466-2.362,1.395-3.048,2.765
			l-8.249,16.751l-18.542,2.667c-1.486,0.229-2.68,0.933-3.547,2.089c-0.842,1.122-1.239,2.379-1.183,3.736
			c0.058,1.388,0.607,2.611,1.646,3.65l13.454,13.074l-3.174,18.537c-0.229,1.371,0.031,2.672,0.771,3.867
			c0.754,1.219,1.842,2.012,3.232,2.359c1.368,0.342,2.736,0.158,3.947-0.504l16.636-8.635l16.611,8.621
			c0.835,0.457,1.716,0.688,2.617,0.688c0.446,0,0.902-0.059,1.355-0.17c1.391-0.348,2.479-1.141,3.232-2.359
			c0.739-1.195,0.999-2.496,0.77-3.873l-3.174-18.531l13.468-13.087C77.404,118.909,77.954,117.685,78.012,116.297z M55.618,130.656
			l3.348,19.373l-17.469-9.215l-17.349,9.215l3.228-19.373l-14.004-13.765l19.391-2.873l8.736-17.593l8.737,17.595l19.506,2.871
			L55.618,130.656z"/>
		<path fill="#4E017B" d="M81.012,116.297c0.057-1.357-0.341-2.614-1.182-3.735c-0.867-1.157-2.061-1.861-3.561-2.091l-18.529-2.666
			l-8.252-16.758c-0.682-1.363-1.706-2.292-3.045-2.758c-1.281-0.445-2.606-0.445-3.889,0c-1.338,0.466-2.362,1.395-3.048,2.765
			l-8.249,16.751l-18.542,2.667c-1.486,0.229-2.68,0.933-3.547,2.089c-0.842,1.122-1.239,2.379-1.183,3.736
			c0.058,1.388,0.607,2.611,1.646,3.65l13.454,13.074l-3.174,18.537c-0.229,1.371,0.031,2.672,0.771,3.867
			c0.754,1.219,1.842,2.012,3.232,2.359c1.368,0.342,2.736,0.158,3.947-0.504l16.636-8.635l16.611,8.621
			c0.835,0.457,1.716,0.688,2.617,0.688c0.446,0,0.902-0.059,1.355-0.17c1.391-0.348,2.479-1.141,3.232-2.359
			c0.739-1.195,0.999-2.496,0.77-3.873l-3.174-18.531l13.468-13.087C80.404,118.909,80.954,117.685,81.012,116.297z M58.618,130.656
			l3.348,19.373l-17.469-9.215l-17.349,9.215l3.228-19.373l-14.004-13.765l19.391-2.873l8.736-17.593l8.737,17.595l19.506,2.871
			L58.618,130.656z"/>
	</g>
	<g>
		<path fill="#EBBA16" d="M126.229,126.346c0.065-1.551-0.39-2.988-1.351-4.269c-0.991-1.322-2.355-2.127-4.069-2.39l-21.177-3.046
			l-9.43-19.152c-0.78-1.559-1.951-2.619-3.48-3.152c-1.465-0.509-2.979-0.509-4.444,0c-1.529,0.533-2.7,1.594-3.484,3.16
			l-9.427,19.145l-21.19,3.048c-1.699,0.261-3.063,1.065-4.054,2.387c-0.962,1.282-1.417,2.719-1.352,4.27
			c0.065,1.586,0.694,2.984,1.882,4.172l15.376,14.941L56.4,166.645c-0.261,1.566,0.035,3.055,0.881,4.42
			c0.861,1.393,2.104,2.299,3.693,2.695c1.564,0.391,3.128,0.182,4.513-0.576l19.012-9.867l18.984,9.854
			c0.955,0.521,1.961,0.785,2.991,0.785c0.511,0,1.031-0.066,1.55-0.195c1.589-0.396,2.832-1.303,3.693-2.695
			c0.846-1.365,1.142-2.854,0.879-4.426l-3.626-21.18l15.392-14.957C125.534,129.33,126.163,127.932,126.229,126.346z"/>
		<path opacity="0.2" d="M123.229,126.346c0.065-1.551-0.39-2.988-1.351-4.269c-0.991-1.322-2.355-2.127-4.069-2.39l-21.177-3.046
			l-9.43-19.152c-0.78-1.559-1.951-2.619-3.48-3.152c-1.465-0.509-2.979-0.509-4.444,0c-1.529,0.533-2.7,1.594-3.484,3.16
			l-9.427,19.145l-21.19,3.048c-1.699,0.261-3.063,1.065-4.054,2.387c-0.962,1.282-1.417,2.719-1.352,4.27
			c0.065,1.586,0.694,2.984,1.882,4.172l15.376,14.941L53.4,166.645c-0.261,1.566,0.035,3.055,0.881,4.42
			c0.861,1.393,2.104,2.299,3.693,2.695c1.564,0.391,3.128,0.182,4.513-0.576l19.012-9.867l18.984,9.854
			c0.955,0.521,1.961,0.785,2.991,0.785c0.511,0,1.031-0.066,1.55-0.195c1.589-0.396,2.832-1.303,3.693-2.695
			c0.846-1.365,1.142-2.854,0.879-4.426l-3.626-21.18l15.392-14.957C122.534,129.33,123.163,127.932,123.229,126.346z
			 M97.636,142.758l3.826,22.139l-19.965-10.529l-19.828,10.529l3.689-22.139l-16.005-15.734l22.161-3.283l9.984-20.105
			l9.985,20.107l22.293,3.281L97.636,142.758z"/>
		<path fill="#4E017B" d="M126.229,126.346c0.065-1.551-0.39-2.988-1.351-4.269c-0.991-1.322-2.355-2.127-4.069-2.39l-21.177-3.046
			l-9.43-19.152c-0.78-1.559-1.951-2.619-3.48-3.152c-1.465-0.509-2.979-0.509-4.444,0c-1.529,0.533-2.7,1.594-3.484,3.16
			l-9.427,19.145l-21.19,3.048c-1.699,0.261-3.063,1.065-4.054,2.387c-0.962,1.282-1.417,2.719-1.352,4.27
			c0.065,1.586,0.694,2.984,1.882,4.172l15.376,14.941L56.4,166.645c-0.261,1.566,0.035,3.055,0.881,4.42
			c0.861,1.393,2.104,2.299,3.693,2.695c1.564,0.391,3.128,0.182,4.513-0.576l19.012-9.867l18.984,9.854
			c0.955,0.521,1.961,0.785,2.991,0.785c0.511,0,1.031-0.066,1.55-0.195c1.589-0.396,2.832-1.303,3.693-2.695
			c0.846-1.365,1.142-2.854,0.879-4.426l-3.626-21.18l15.392-14.957C125.534,129.33,126.163,127.932,126.229,126.346z
			 M100.636,142.758l3.826,22.139l-19.965-10.529l-19.828,10.529l3.689-22.139l-16.005-15.734l22.161-3.283l9.984-20.105
			l9.985,20.107l22.293,3.281L100.636,142.758z"/>
	</g>
	<g>
		<path fill="#EBBA16" d="M166.261,138.342c0.064-1.555-0.391-2.992-1.353-4.273c-0.991-1.324-2.356-2.129-4.072-2.393
			l-21.192-3.047l-9.438-19.167c-0.78-1.561-1.952-2.621-3.482-3.154c-1.467-0.51-2.982-0.51-4.447,0
			c-1.531,0.533-2.703,1.594-3.487,3.162l-9.435,19.16l-21.207,3.049c-1.699,0.262-3.064,1.066-4.057,2.389
			c-0.962,1.283-1.417,2.721-1.353,4.275c0.066,1.586,0.695,2.984,1.884,4.174l15.388,14.951l-3.63,21.203
			c-0.262,1.568,0.035,3.057,0.881,4.424c0.862,1.393,2.105,2.299,3.696,2.697c1.565,0.391,3.13,0.182,4.517-0.576l19.025-9.875
			l18.999,9.859c0.955,0.521,1.962,0.787,2.993,0.787c0.511,0,1.032-0.066,1.551-0.195c1.59-0.398,2.834-1.305,3.696-2.697
			c0.847-1.367,1.143-2.855,0.88-4.43l-3.629-21.197l15.402-14.967C165.565,141.326,166.194,139.928,166.261,138.342z"/>
		<path opacity="0.2" d="M163.261,138.342c0.064-1.555-0.391-2.992-1.353-4.273c-0.991-1.324-2.356-2.129-4.072-2.393l-21.192-3.047
			l-9.438-19.167c-0.78-1.561-1.952-2.621-3.482-3.154c-1.467-0.51-2.982-0.51-4.447,0c-1.531,0.533-2.703,1.594-3.487,3.162
			l-9.435,19.16l-21.207,3.049c-1.699,0.262-3.064,1.066-4.057,2.389c-0.962,1.283-1.417,2.721-1.353,4.275
			c0.066,1.586,0.695,2.984,1.884,4.174l15.388,14.951l-3.63,21.203c-0.262,1.568,0.035,3.057,0.881,4.424
			c0.862,1.393,2.105,2.299,3.696,2.697c1.565,0.391,3.13,0.182,4.517-0.576l19.025-9.875l18.999,9.859
			c0.955,0.521,1.962,0.787,2.993,0.787c0.511,0,1.032-0.066,1.551-0.195c1.59-0.398,2.834-1.305,3.696-2.697
			c0.847-1.367,1.143-2.855,0.88-4.43l-3.629-21.197l15.402-14.967C162.565,141.326,163.194,139.928,163.261,138.342z
			 M137.647,154.764l3.829,22.156l-19.979-10.537l-19.843,10.537l3.692-22.156L89.329,139.02l22.178-3.285l9.992-20.123
			l9.993,20.123l22.31,3.285L137.647,154.764z"/>
		<path fill="#4E017B" d="M166.261,138.342c0.064-1.555-0.391-2.992-1.353-4.273c-0.991-1.324-2.356-2.129-4.072-2.393
			l-21.192-3.047l-9.438-19.167c-0.78-1.561-1.952-2.621-3.482-3.154c-1.467-0.51-2.982-0.51-4.447,0
			c-1.531,0.533-2.703,1.594-3.487,3.162l-9.435,19.16l-21.207,3.049c-1.699,0.262-3.064,1.066-4.057,2.389
			c-0.962,1.283-1.417,2.721-1.353,4.275c0.066,1.586,0.695,2.984,1.884,4.174l15.388,14.951l-3.63,21.203
			c-0.262,1.568,0.035,3.057,0.881,4.424c0.862,1.393,2.105,2.299,3.696,2.697c1.565,0.391,3.13,0.182,4.517-0.576l19.025-9.875
			l18.999,9.859c0.955,0.521,1.962,0.787,2.993,0.787c0.511,0,1.032-0.066,1.551-0.195c1.59-0.398,2.834-1.305,3.696-2.697
			c0.847-1.367,1.143-2.855,0.88-4.43l-3.629-21.197l15.402-14.967C165.565,141.326,166.194,139.928,166.261,138.342z
			 M140.647,154.764l3.829,22.156l-19.979-10.537l-19.843,10.537l3.692-22.156L92.329,139.02l22.178-3.285l9.992-20.123
			l9.993,20.123l22.31,3.285L140.647,154.764z"/>
	</g>
	<g opacity="0.2">
		<path d="M80.806,201.549c0.137,0.137,0.204,0.305,0.205,0.504s-0.068,0.369-0.205,0.506l-0.506,0.504
			c-0.137,0.137-0.305,0.207-0.504,0.205c-0.2,0-0.369-0.068-0.506-0.205l-2.272-2.273l-2.272,2.273
			c-0.138,0.137-0.306,0.205-0.506,0.205s-0.368-0.068-0.505-0.205l-0.505-0.504c-0.137-0.137-0.205-0.305-0.205-0.506
			c0-0.199,0.068-0.367,0.205-0.506l2.272-2.271l-2.272-2.273c-0.137-0.137-0.205-0.305-0.205-0.506
			c-0.001-0.199,0.068-0.367,0.205-0.504l0.505-0.506c0.137-0.137,0.306-0.205,0.505-0.205s0.368,0.068,0.505,0.205l2.273,2.273
			l2.272-2.273c0.138-0.137,0.305-0.205,0.505-0.205s0.369,0.068,0.506,0.205l0.505,0.506c0.137,0.137,0.205,0.305,0.205,0.504
			c0,0.201-0.068,0.369-0.206,0.506l-2.272,2.273L80.806,201.549z"/>
	</g>
	<g>
		<path fill="#DD342F" d="M81.806,201.549c0.137,0.137,0.204,0.305,0.205,0.504s-0.068,0.369-0.205,0.506l-0.506,0.504
			c-0.137,0.137-0.305,0.207-0.504,0.205c-0.2,0-0.369-0.068-0.506-0.205l-2.272-2.273l-2.272,2.273
			c-0.138,0.137-0.306,0.205-0.506,0.205s-0.368-0.068-0.505-0.205l-0.505-0.504c-0.137-0.137-0.205-0.305-0.205-0.506
			c0-0.199,0.068-0.367,0.205-0.506l2.272-2.271l-2.272-2.273c-0.137-0.137-0.205-0.305-0.205-0.506
			c-0.001-0.199,0.068-0.367,0.205-0.504l0.505-0.506c0.137-0.137,0.306-0.205,0.505-0.205s0.368,0.068,0.505,0.205l2.273,2.273
			l2.272-2.273c0.138-0.137,0.305-0.205,0.505-0.205s0.369,0.068,0.506,0.205l0.505,0.506c0.137,0.137,0.205,0.305,0.205,0.504
			c0,0.201-0.068,0.369-0.206,0.506l-2.272,2.273L81.806,201.549z"/>
	</g>
	<g opacity="0.2">
		<path d="M53.497,181.229c0.137,0.137,0.204,0.305,0.205,0.506c0.001,0.199-0.068,0.367-0.205,0.504l-0.506,0.506
			c-0.137,0.137-0.305,0.205-0.504,0.205c-0.2,0-0.369-0.068-0.506-0.205l-2.272-2.273l-2.272,2.273
			c-0.138,0.137-0.306,0.205-0.506,0.205s-0.368-0.068-0.505-0.205l-0.505-0.506c-0.137-0.137-0.205-0.305-0.205-0.504
			c0-0.201,0.068-0.369,0.205-0.506l2.272-2.273l-2.272-2.271c-0.137-0.137-0.205-0.307-0.205-0.506
			c-0.001-0.199,0.068-0.367,0.205-0.504l0.505-0.506c0.137-0.137,0.306-0.205,0.505-0.205s0.368,0.068,0.505,0.205l2.273,2.273
			l2.272-2.273c0.138-0.137,0.305-0.205,0.505-0.205c0.201,0,0.369,0.068,0.506,0.205l0.505,0.504
			c0.137,0.137,0.205,0.305,0.205,0.506c0,0.199-0.068,0.367-0.206,0.506l-2.272,2.271L53.497,181.229z"/>
	</g>
	<g>
		<path fill="#4E017B" d="M54.497,181.229c0.137,0.137,0.204,0.305,0.205,0.506c0.001,0.199-0.068,0.367-0.205,0.504l-0.506,0.506
			c-0.137,0.137-0.305,0.205-0.504,0.205c-0.2,0-0.369-0.068-0.506-0.205l-2.272-2.273l-2.272,2.273
			c-0.138,0.137-0.306,0.205-0.506,0.205s-0.368-0.068-0.505-0.205l-0.505-0.506c-0.137-0.137-0.205-0.305-0.205-0.504
			c0-0.201,0.068-0.369,0.205-0.506l2.272-2.273l-2.272-2.271c-0.137-0.137-0.205-0.307-0.205-0.506
			c-0.001-0.199,0.068-0.367,0.205-0.504l0.505-0.506c0.137-0.137,0.306-0.205,0.505-0.205s0.368,0.068,0.505,0.205l2.273,2.273
			l2.272-2.273c0.138-0.137,0.305-0.205,0.505-0.205c0.201,0,0.369,0.068,0.506,0.205l0.505,0.504
			c0.137,0.137,0.205,0.305,0.205,0.506c0,0.199-0.068,0.367-0.206,0.506l-2.272,2.271L54.497,181.229z"/>
	</g>
	<g opacity="0.2">
		<path d="M106.91,193.412c0.069,0.068,0.104,0.15,0.104,0.252c-0.001,0.1-0.034,0.184-0.104,0.252l-0.252,0.254
			c-0.069,0.068-0.152,0.102-0.253,0.102s-0.183-0.035-0.251-0.104l-1.137-1.137l-1.137,1.137c-0.068,0.07-0.153,0.104-0.254,0.104
			c-0.099,0-0.184-0.035-0.252-0.102l-0.253-0.254c-0.067-0.068-0.102-0.152-0.104-0.252c0.001-0.1,0.036-0.184,0.104-0.254
			l1.137-1.137l-1.136-1.137c-0.069-0.068-0.104-0.15-0.104-0.25c0.001-0.102,0.033-0.184,0.103-0.254l0.253-0.252
			c0.069-0.068,0.152-0.102,0.253-0.102c0.101-0.002,0.183,0.033,0.251,0.104l1.137,1.135l1.137-1.135
			c0.068-0.07,0.152-0.104,0.254-0.105c0.099,0.002,0.184,0.035,0.252,0.104l0.253,0.254c0.067,0.066,0.102,0.152,0.103,0.25
			c-0.001,0.102-0.035,0.186-0.104,0.256l-1.137,1.135L106.91,193.412z"/>
	</g>
	<g>
		<path fill="#EBBA16" d="M107.91,193.412c0.069,0.068,0.104,0.15,0.104,0.252c-0.001,0.1-0.034,0.184-0.104,0.252l-0.252,0.254
			c-0.069,0.068-0.152,0.102-0.253,0.102s-0.183-0.035-0.251-0.104l-1.137-1.137l-1.137,1.137c-0.068,0.07-0.153,0.104-0.254,0.104
			c-0.099,0-0.184-0.035-0.252-0.102l-0.253-0.254c-0.067-0.068-0.102-0.152-0.104-0.252c0.001-0.1,0.036-0.184,0.104-0.254
			l1.137-1.137l-1.136-1.137c-0.069-0.068-0.104-0.15-0.104-0.25c0.001-0.102,0.033-0.184,0.103-0.254l0.253-0.252
			c0.069-0.068,0.152-0.102,0.253-0.102c0.101-0.002,0.183,0.033,0.251,0.104l1.137,1.135l1.137-1.135
			c0.068-0.07,0.152-0.104,0.254-0.105c0.099,0.002,0.184,0.035,0.252,0.104l0.253,0.254c0.067,0.066,0.102,0.152,0.103,0.25
			c-0.001,0.102-0.035,0.186-0.104,0.256l-1.137,1.135L107.91,193.412z"/>
	</g>
	<g opacity="0.2">
		<path d="M203.07,73.318c0.137,0.137,0.204,0.306,0.205,0.505s-0.068,0.368-0.205,0.505l-0.505,0.505
			c-0.137,0.137-0.306,0.206-0.505,0.205c-0.2,0-0.368-0.068-0.505-0.205l-2.273-2.273l-2.272,2.273
			c-0.138,0.137-0.306,0.205-0.506,0.205s-0.368-0.068-0.505-0.205l-0.505-0.505c-0.137-0.137-0.205-0.305-0.205-0.505
			s0.068-0.368,0.205-0.506l2.272-2.272l-2.272-2.272c-0.137-0.137-0.204-0.306-0.205-0.506c-0.001-0.199,0.068-0.367,0.205-0.504
			l0.505-0.506c0.137-0.137,0.306-0.205,0.505-0.205c0.2,0,0.368,0.068,0.505,0.205l2.273,2.273l2.272-2.273
			c0.138-0.137,0.306-0.205,0.505-0.205c0.201,0,0.369,0.068,0.506,0.205l0.505,0.506c0.137,0.137,0.205,0.305,0.205,0.504
			c0,0.201-0.068,0.368-0.206,0.506l-2.272,2.272L203.07,73.318z"/>
	</g>
	<g>
		<path fill="#DD342F" d="M204.07,73.318c0.137,0.137,0.204,0.306,0.205,0.505s-0.068,0.368-0.205,0.505l-0.505,0.505
			c-0.137,0.137-0.306,0.206-0.505,0.205c-0.2,0-0.368-0.068-0.505-0.205l-2.273-2.273l-2.272,2.273
			c-0.138,0.137-0.306,0.205-0.506,0.205s-0.368-0.068-0.505-0.205l-0.505-0.505c-0.137-0.137-0.205-0.305-0.205-0.505
			s0.068-0.368,0.205-0.506l2.272-2.272l-2.272-2.272c-0.137-0.137-0.204-0.306-0.205-0.506c-0.001-0.199,0.068-0.367,0.205-0.504
			l0.505-0.506c0.137-0.137,0.306-0.205,0.505-0.205c0.2,0,0.368,0.068,0.505,0.205l2.273,2.273l2.272-2.273
			c0.138-0.137,0.306-0.205,0.505-0.205c0.201,0,0.369,0.068,0.506,0.205l0.505,0.506c0.137,0.137,0.205,0.305,0.205,0.504
			c0,0.201-0.068,0.368-0.206,0.506l-2.272,2.272L204.07,73.318z"/>
	</g>
	<g opacity="0.2">
		<path d="M175.762,52.999c0.137,0.137,0.204,0.305,0.205,0.505c0.001,0.199-0.068,0.368-0.205,0.505l-0.505,0.506
			c-0.137,0.137-0.306,0.205-0.505,0.204c-0.2,0-0.368-0.068-0.505-0.205l-2.273-2.272l-2.272,2.272
			c-0.138,0.137-0.306,0.205-0.506,0.205s-0.368-0.068-0.505-0.205l-0.505-0.505c-0.137-0.137-0.205-0.305-0.205-0.505
			s0.068-0.368,0.205-0.506l2.272-2.272l-2.272-2.272c-0.137-0.137-0.205-0.306-0.205-0.506c-0.001-0.199,0.068-0.367,0.205-0.504
			l0.505-0.506c0.137-0.137,0.306-0.205,0.505-0.205c0.2,0.001,0.368,0.068,0.505,0.205l2.273,2.273l2.272-2.272
			c0.138-0.138,0.306-0.206,0.505-0.206c0.201,0,0.369,0.068,0.506,0.205l0.505,0.505c0.137,0.137,0.205,0.305,0.205,0.506
			c0,0.199-0.068,0.367-0.206,0.505l-2.272,2.272L175.762,52.999z"/>
	</g>
	<g>
		<path fill="#4E017B" d="M176.762,52.999c0.137,0.137,0.204,0.305,0.205,0.505c0.001,0.199-0.068,0.368-0.205,0.505l-0.505,0.506
			c-0.137,0.137-0.306,0.205-0.505,0.204c-0.2,0-0.368-0.068-0.505-0.205l-2.273-2.272l-2.272,2.272
			c-0.138,0.137-0.306,0.205-0.506,0.205s-0.368-0.068-0.505-0.205l-0.505-0.505c-0.137-0.137-0.205-0.305-0.205-0.505
			s0.068-0.368,0.205-0.506l2.272-2.272l-2.272-2.272c-0.137-0.137-0.205-0.306-0.205-0.506c-0.001-0.199,0.068-0.367,0.205-0.504
			l0.505-0.506c0.137-0.137,0.306-0.205,0.505-0.205c0.2,0.001,0.368,0.068,0.505,0.205l2.273,2.273l2.272-2.272
			c0.138-0.138,0.306-0.206,0.505-0.206c0.201,0,0.369,0.068,0.506,0.205l0.505,0.505c0.137,0.137,0.205,0.305,0.205,0.506
			c0,0.199-0.068,0.367-0.206,0.505l-2.272,2.272L176.762,52.999z"/>
	</g>
</g>
</svg>
