<?xml version="1.0" encoding="utf-8"?>
<!-- Generator: Adobe Illustrator 16.0.0, SVG Export Plug-In . SVG Version: 6.00 Build 0)  -->
<!DOCTYPE svg PUBLIC "-//W3C//DTD SVG 1.1//EN" "http://www.w3.org/Graphics/SVG/1.1/DTD/svg11.dtd">
<svg version="1.1" id="Layer_1" xmlns="http://www.w3.org/2000/svg" xmlns:xlink="http://www.w3.org/1999/xlink" x="0px" y="0px"
	 width="250px" height="250px" viewBox="0 0 250 250" enable-background="new 0 0 250 250" xml:space="preserve">
<g>
	<g>
		<g>
			<rect x="56.138" y="65.969" fill="#EBBA16" width="142.515" height="118.563"/>
			<rect x="56.138" y="65.969" fill="#7383BF" width="142.515" height="34.73"/>
			<path fill="#4E017B" d="M203.443,105.49H51.347V61.178h152.096V105.49z M60.928,95.909h132.934v-25.15H60.928V95.909z"/>
		</g>
		<g>
			<path fill="#4E017B" d="M117.016,127.047H76.297c-2.646,0-4.79-2.146-4.79-4.791s2.145-4.79,4.79-4.79h40.719
				c2.646,0,4.791,2.145,4.791,4.79S119.661,127.047,117.016,127.047z"/>
		</g>
		<g>
			<path fill="#4E017B" d="M157.733,127.047h-21.558c-2.643,0-4.79-2.146-4.79-4.791s2.147-4.79,4.79-4.79h21.558
				c2.647,0,4.79,2.145,4.79,4.79S160.381,127.047,157.733,127.047z"/>
		</g>
		<g>
			<path fill="#4E017B" d="M138.571,146.208H76.297c-2.646,0-4.79-2.145-4.79-4.79s2.145-4.791,4.79-4.791h62.274
				c2.647,0,4.79,2.146,4.79,4.791S141.219,146.208,138.571,146.208z"/>
		</g>
		<g>
			<path fill="#4E017B" d="M179.491,146.208h-21.557c-2.646,0-4.791-2.145-4.791-4.79s2.146-4.791,4.791-4.791h21.557
				c2.646,0,4.79,2.146,4.79,4.791S182.137,146.208,179.491,146.208z"/>
		</g>
		<g>
			<path fill="#4E017B" d="M107.634,165.37h71.857c2.643,0,4.79-2.146,4.79-4.791s-2.147-4.79-4.79-4.79h-71.857
				c-2.646,0-4.791,2.145-4.791,4.79S104.988,165.37,107.634,165.37z"/>
		</g>
		<g>
			<path fill="#4E017B" d="M76.296,165.37h11.976c2.646,0,4.791-2.146,4.791-4.791s-2.145-4.79-4.791-4.79H76.296
				c-2.646,0-4.791,2.145-4.791,4.79S73.65,165.37,76.296,165.37z"/>
		</g>
		<g>
			<path fill="#4E017B" d="M179.491,127.047h-2.597c-2.643,0-4.79-2.146-4.79-4.791s2.147-4.79,4.79-4.79h2.597
				c2.646,0,4.79,2.145,4.79,4.79S182.137,127.047,179.491,127.047z"/>
		</g>
		<circle fill="#4E017B" cx="76.296" cy="83.334" r="4.791"/>
		<circle fill="#4E017B" cx="88.272" cy="83.334" r="4.791"/>
		<circle fill="#4E017B" cx="100.248" cy="83.334" r="4.791"/>
		<g>
			<path opacity="0.2" d="M198.652,189.322H46.557V61.178h152.095V189.322z M56.138,179.741h132.935V70.759H56.138V179.741z"/>
			<path fill="#4E017B" d="M203.443,189.322H51.347V61.178h152.096V189.322z M60.928,179.741h132.934V70.759H60.928V179.741z"/>
		</g>
	</g>
	<g>
		<g>
			<rect x="20.209" y="30.041" fill="#EBBA16" width="142.515" height="118.563"/>
			<rect x="20.209" y="30.041" fill="#7383BF" width="142.515" height="34.73"/>
			<path fill="#4E017B" d="M167.515,69.562H15.419V25.25h152.096V69.562z M25,59.98h132.935V34.831H25V59.98z"/>
		</g>
		<g opacity="0.2">
			<path d="M76.297,91.118H35.579c-2.646,0-4.791-2.145-4.791-4.791s2.145-4.79,4.791-4.79h40.718c2.646,0,4.791,2.145,4.791,4.79
				S78.942,91.118,76.297,91.118z"/>
		</g>
		<g opacity="0.2">
			<path d="M117.016,91.118H95.458c-2.646,0-4.79-2.145-4.79-4.791s2.145-4.79,4.79-4.79h21.557c2.646,0,4.791,2.145,4.791,4.79
				S119.661,91.118,117.016,91.118z"/>
		</g>
		<g opacity="0.2">
			<path d="M97.854,110.28H35.579c-2.646,0-4.791-2.145-4.791-4.79c0-2.646,2.145-4.791,4.791-4.791h62.275
				c2.646,0,4.791,2.145,4.791,4.791C102.645,108.135,100.5,110.28,97.854,110.28z"/>
		</g>
		<g opacity="0.2">
			<path d="M138.772,110.28h-21.557c-2.646,0-4.791-2.145-4.791-4.79c0-2.646,2.145-4.791,4.791-4.791h21.557
				c2.646,0,4.79,2.145,4.79,4.791C143.563,108.135,141.418,110.28,138.772,110.28z"/>
		</g>
		<g opacity="0.2">
			<path d="M66.915,129.441h71.857c2.644,0,4.79-2.145,4.79-4.79s-2.146-4.791-4.79-4.791H66.915c-2.646,0-4.791,2.145-4.791,4.791
				S64.27,129.441,66.915,129.441z"/>
		</g>
		<g opacity="0.2">
			<path d="M35.577,129.441h11.976c2.646,0,4.791-2.145,4.791-4.79s-2.145-4.791-4.791-4.791H35.577c-2.646,0-4.79,2.145-4.79,4.791
				S32.932,129.441,35.577,129.441z"/>
		</g>
		<g opacity="0.2">
			<path d="M138.772,91.118h-2.597c-2.643,0-4.79-2.145-4.79-4.791s2.147-4.79,4.79-4.79h2.597c2.646,0,4.79,2.145,4.79,4.79
				S141.418,91.118,138.772,91.118z"/>
		</g>
		<g>
			<path fill="#4E017B" d="M81.087,91.118H40.369c-2.645,0-4.79-2.145-4.79-4.791s2.145-4.79,4.79-4.79h40.719
				c2.646,0,4.791,2.145,4.791,4.79S83.733,91.118,81.087,91.118z"/>
		</g>
		<g>
			<path fill="#4E017B" d="M121.806,91.118h-21.557c-2.646,0-4.791-2.145-4.791-4.791s2.145-4.79,4.791-4.79h21.557
				c2.646,0,4.791,2.145,4.791,4.79S124.452,91.118,121.806,91.118z"/>
		</g>
		<g>
			<path fill="#4E017B" d="M102.645,110.28H40.369c-2.645,0-4.79-2.145-4.79-4.79c0-2.646,2.145-4.791,4.79-4.791h62.276
				c2.646,0,4.79,2.145,4.79,4.791C107.435,108.135,105.29,110.28,102.645,110.28z"/>
		</g>
		<g>
			<path fill="#4E017B" d="M143.563,110.28h-21.557c-2.646,0-4.79-2.145-4.79-4.79c0-2.646,2.145-4.791,4.79-4.791h21.557
				c2.646,0,4.791,2.145,4.791,4.791C148.354,108.135,146.208,110.28,143.563,110.28z"/>
		</g>
		<g>
			<path fill="#4E017B" d="M71.706,129.441h71.857c2.644,0,4.791-2.145,4.791-4.79s-2.147-4.791-4.791-4.791H71.706
				c-2.646,0-4.791,2.145-4.791,4.791S69.06,129.441,71.706,129.441z"/>
		</g>
		<g>
			<path fill="#4E017B" d="M40.368,129.441h11.976c2.646,0,4.791-2.145,4.791-4.79s-2.145-4.791-4.791-4.791H40.368
				c-2.646,0-4.791,2.145-4.791,4.791S37.722,129.441,40.368,129.441z"/>
		</g>
		<g>
			<path fill="#4E017B" d="M143.563,91.118h-2.596c-2.644,0-4.791-2.145-4.791-4.791s2.147-4.79,4.791-4.79h2.596
				c2.646,0,4.791,2.145,4.791,4.79S146.208,91.118,143.563,91.118z"/>
		</g>
		<circle opacity="0.2" cx="35.577" cy="47.406" r="4.79"/>
		<circle opacity="0.2" cx="47.553" cy="47.406" r="4.791"/>
		<circle opacity="0.2" cx="59.529" cy="47.406" r="4.791"/>
		<circle fill="#4E017B" cx="40.368" cy="47.406" r="4.791"/>
		<circle fill="#4E017B" cx="52.344" cy="47.406" r="4.791"/>
		<circle fill="#4E017B" cx="64.32" cy="47.406" r="4.791"/>
		<g>
			<path opacity="0.2" d="M162.725,153.394H10.629V25.25h152.096V153.394z M20.209,143.813h132.934V34.831H20.209V143.813z"/>
			<path fill="#4E017B" d="M167.515,153.394H15.419V25.25h152.096V153.394z M25,143.813h132.935V34.831H25V143.813z"/>
		</g>
	</g>
	<g>
		<path fill="#DD342F" d="M162.725,184.531c0-19.845,16.088-35.928,35.928-35.928c19.841,0,35.929,16.083,35.929,35.928
			c0,19.843-16.088,35.929-35.929,35.929C178.813,220.46,162.725,204.374,162.725,184.531z"/>
		<path opacity="0.2" d="M193.862,225.25c-22.453,0-40.719-18.266-40.719-40.719c0-22.452,18.266-40.719,40.719-40.719
			s40.719,18.267,40.719,40.719C234.581,206.984,216.315,225.25,193.862,225.25z M193.862,153.394
			c-17.169,0-31.138,13.969-31.138,31.138s13.969,31.138,31.138,31.138S225,201.7,225,184.531S211.031,153.394,193.862,153.394z"/>
		<path fill="#4E017B" d="M198.652,225.25c-22.452,0-40.718-18.266-40.718-40.719c0-22.452,18.266-40.719,40.718-40.719
			c22.453,0,40.719,18.267,40.719,40.719C239.371,206.984,221.105,225.25,198.652,225.25z M198.652,153.394
			c-17.168,0-31.138,13.969-31.138,31.138s13.97,31.138,31.138,31.138c17.169,0,31.138-13.969,31.138-31.138
			S215.821,153.394,198.652,153.394z"/>
	</g>
	<g>
		<g>
			<path fill="#4E017B" d="M209.319,175.725c0.112-0.149,0.262-0.225,0.448-0.225c0.188,0,0.337,0.075,0.449,0.225l0.674,0.618
				c0.112,0.149,0.169,0.317,0.169,0.505s-0.057,0.337-0.169,0.449l-16.841,16.841c-0.15,0.15-0.31,0.225-0.478,0.225
				s-0.327-0.074-0.478-0.225l-6.68-6.68c-0.112-0.112-0.169-0.263-0.169-0.449c0-0.188,0.057-0.355,0.169-0.506l0.673-0.617
				c0.112-0.149,0.263-0.225,0.449-0.225c0.188,0,0.337,0.075,0.449,0.225l5.558,5.558L209.319,175.725z"/>
			<path opacity="0.2" d="M188.782,197.955c-1.123,0-2.194-0.453-3.018-1.277l-6.681-6.68c-0.786-0.786-1.221-1.848-1.221-2.989
				c0-0.966,0.307-1.888,0.889-2.662l0.444-0.491l0.533-0.489c1.586-1.688,4.562-1.655,6.109,0.082l2.92,2.919l13.129-13.082
				c1.551-1.73,4.521-1.766,6.107-0.079l0.979,0.979c0.58,0.774,0.887,1.696,0.887,2.662c0,1.142-0.435,2.203-1.221,2.989
				l-16.842,16.841C190.976,197.502,189.904,197.955,188.782,197.955z"/>
			<path fill="#4E017B" d="M193.572,197.955c-1.123,0-2.194-0.453-3.018-1.277l-6.681-6.68c-0.785-0.786-1.221-1.848-1.221-2.989
				c0-0.966,0.307-1.888,0.889-2.662l0.444-0.491l0.533-0.489c1.586-1.688,4.562-1.655,6.11,0.082l2.919,2.919l13.129-13.082
				c1.551-1.73,4.521-1.766,6.107-0.079l0.98,0.979c0.58,0.774,0.887,1.696,0.887,2.662c0,1.142-0.436,2.203-1.222,2.989
				l-16.841,16.841C195.767,197.502,194.695,197.955,193.572,197.955z"/>
		</g>
	</g>
</g>
</svg>
