<?xml version="1.0" encoding="utf-8"?>
<!-- Generator: Adobe Illustrator 16.0.0, SVG Export Plug-In . SVG Version: 6.00 Build 0)  -->
<!DOCTYPE svg PUBLIC "-//W3C//DTD SVG 1.1//EN" "http://www.w3.org/Graphics/SVG/1.1/DTD/svg11.dtd">
<svg version="1.1" id="Layer_1" xmlns="http://www.w3.org/2000/svg" xmlns:xlink="http://www.w3.org/1999/xlink" x="0px" y="0px"
	 width="36px" height="36px" viewBox="0 0 36 36" enable-background="new 0 0 36 36" xml:space="preserve">
<g id="XMLID_237_">
	<linearGradient id="XMLID_2_" gradientUnits="userSpaceOnUse" x1="18.0005" y1="32.8672" x2="18.0005" y2="-4.5636">
		<stop  offset="0" style="stop-color:#F9ED41"/>
		<stop  offset="0.0255" style="stop-color:#FADD40"/>
		<stop  offset="0.0953" style="stop-color:#FCB63F"/>
		<stop  offset="0.1595" style="stop-color:#FE9A3E"/>
		<stop  offset="0.2156" style="stop-color:#FF893D"/>
		<stop  offset="0.2573" style="stop-color:#FF833D"/>
		<stop  offset="0.5177" style="stop-color:#EE5568"/>
		<stop  offset="0.6608" style="stop-color:#E7407B"/>
		<stop  offset="1" style="stop-color:#0028FF"/>
	</linearGradient>
	<path id="XMLID_242_" fill="url(#XMLID_2_)" d="M24.203,34H11.797C6.395,34,2,29.605,2,24.203V11.797C2,6.395,6.395,2,11.797,2
		h12.406C29.605,2,34,6.395,34,11.797v12.406C34,29.605,29.605,34,24.203,34z M11.898,4.616c-4.015,0-7.282,3.267-7.282,7.282
		v12.206c0,4.014,3.267,7.281,7.282,7.281h12.206c4.014,0,7.281-3.268,7.281-7.281V11.898c0-4.015-3.268-7.282-7.281-7.282H11.898z"
		/>
	<linearGradient id="XMLID_3_" gradientUnits="userSpaceOnUse" x1="18.0005" y1="32.627" x2="18.0005" y2="-4.1987">
		<stop  offset="0" style="stop-color:#F9ED41"/>
		<stop  offset="0.0255" style="stop-color:#FADD40"/>
		<stop  offset="0.0953" style="stop-color:#FCB63F"/>
		<stop  offset="0.1595" style="stop-color:#FE9A3E"/>
		<stop  offset="0.2156" style="stop-color:#FF893D"/>
		<stop  offset="0.2573" style="stop-color:#FF833D"/>
		<stop  offset="0.5177" style="stop-color:#EE5568"/>
		<stop  offset="0.6608" style="stop-color:#E7407B"/>
		<stop  offset="1" style="stop-color:#0028FF"/>
	</linearGradient>
	<path id="XMLID_239_" fill="url(#XMLID_3_)" d="M18,25.964c-4.391,0-7.964-3.573-7.964-7.964c0-4.391,3.573-7.964,7.964-7.964
		c4.391,0,7.964,3.573,7.964,7.964C25.964,22.391,22.391,25.964,18,25.964z M18,13.151c-2.672,0-4.848,2.175-4.848,4.849
		c0,2.674,2.175,4.849,4.848,4.849c2.674,0,4.849-2.175,4.849-4.849C22.849,15.327,20.674,13.151,18,13.151z"/>
	<linearGradient id="XMLID_4_" gradientUnits="userSpaceOnUse" x1="26.4854" y1="37.1045" x2="26.4853" y2="-5.9479">
		<stop  offset="0" style="stop-color:#F9ED41"/>
		<stop  offset="0.0255" style="stop-color:#FADD40"/>
		<stop  offset="0.0953" style="stop-color:#FCB63F"/>
		<stop  offset="0.1595" style="stop-color:#FE9A3E"/>
		<stop  offset="0.2156" style="stop-color:#FF893D"/>
		<stop  offset="0.2573" style="stop-color:#FF833D"/>
		<stop  offset="0.5177" style="stop-color:#EE5568"/>
		<stop  offset="0.6608" style="stop-color:#E7407B"/>
		<stop  offset="1" style="stop-color:#0028FF"/>
	</linearGradient>
	<circle id="XMLID_238_" fill="url(#XMLID_4_)" cx="26.485" cy="9.681" r="2.424"/>
</g>
</svg>
