<?xml version="1.0" encoding="utf-8"?>
<!-- Generator: Adobe Illustrator 16.0.0, SVG Export Plug-In . SVG Version: 6.00 Build 0)  -->
<!DOCTYPE svg PUBLIC "-//W3C//DTD SVG 1.1//EN" "http://www.w3.org/Graphics/SVG/1.1/DTD/svg11.dtd">
<svg version="1.1" id="Layer_1" xmlns="http://www.w3.org/2000/svg" xmlns:xlink="http://www.w3.org/1999/xlink" x="0px" y="0px"
	 width="36px" height="36px" viewBox="0 0 36 36" enable-background="new 0 0 36 36" xml:space="preserve">
<g>
	<path fill="#007AAA" d="M2.926,8.434c-0.773-0.773-1.16-1.691-1.16-2.753c0-1.063,0.386-1.981,1.16-2.754
		c0.773-0.773,1.691-1.16,2.753-1.16c1.063,0,1.981,0.386,2.754,1.16c0.773,0.773,1.16,1.691,1.16,2.754
		c0,1.063-0.386,1.98-1.16,2.753c-0.773,0.773-1.691,1.16-2.754,1.16C4.617,9.593,3.699,9.207,2.926,8.434z M2.274,34.233V12.564
		h6.74v21.669H2.274z M27.494,34.233V23.652c0-1.738-0.146-2.995-0.436-3.768c-0.531-1.305-1.57-1.957-3.116-1.957
		s-2.633,0.58-3.261,1.739c-0.483,0.87-0.725,2.149-0.725,3.841v10.726h-6.668V12.564h6.45v2.972h0.072
		c0.483-0.966,1.257-1.764,2.319-2.392c1.159-0.773,2.513-1.16,4.059-1.16c3.141,0,5.339,0.991,6.595,2.971
		c0.966,1.595,1.449,4.059,1.449,7.393v11.885H27.494z"/>
</g>
</svg>
