<?xml version="1.0" encoding="utf-8"?>
<!-- Generator: Adobe Illustrator 16.0.0, SVG Export Plug-In . SVG Version: 6.00 Build 0)  -->
<!DOCTYPE svg PUBLIC "-//W3C//DTD SVG 1.1//EN" "http://www.w3.org/Graphics/SVG/1.1/DTD/svg11.dtd">
<svg version="1.1" id="Layer_1" xmlns="http://www.w3.org/2000/svg" xmlns:xlink="http://www.w3.org/1999/xlink" x="0px" y="0px"
	 width="36px" height="36px" viewBox="0 0 36 36" enable-background="new 0 0 36 36" xml:space="preserve">
<g>
	<path fill="#1DA1F2" d="M30.937,12.229c0,3.044-0.74,5.982-2.22,8.814c-1.522,3.002-3.657,5.39-6.404,7.165
		c-3.002,1.987-6.447,2.98-10.337,2.98c-3.72,0-7.123-0.993-10.209-2.98c0.465,0.043,0.993,0.063,1.585,0.063
		c3.086,0,5.855-0.951,8.308-2.854c-1.48,0-2.78-0.433-3.9-1.3c-1.12-0.866-1.892-1.955-2.314-3.266
		c0.423,0.043,0.824,0.063,1.205,0.063c0.592,0,1.184-0.063,1.775-0.19c-1.522-0.338-2.79-1.12-3.805-2.346
		c-1.015-1.227-1.522-2.621-1.522-4.186v-0.127c0.93,0.55,1.923,0.846,2.98,0.888c-0.888-0.634-1.606-1.437-2.156-2.409
		c-0.549-0.973-0.824-2.04-0.824-3.202c0-1.163,0.317-2.272,0.951-3.329c1.649,2.071,3.667,3.72,6.056,4.946
		c2.389,1.226,4.936,1.902,7.641,2.028c-0.084-0.507-0.127-1.014-0.127-1.521c0-1.184,0.296-2.293,0.888-3.329
		c0.593-1.036,1.396-1.85,2.41-2.441s2.113-0.888,3.298-0.888c0.972,0,1.87,0.19,2.694,0.57c0.824,0.381,1.554,0.888,2.188,1.522
		c1.522-0.296,2.938-0.824,4.249-1.586c-0.507,1.564-1.479,2.791-2.917,3.679c1.269-0.17,2.536-0.528,3.805-1.078
		c-0.93,1.353-2.05,2.515-3.36,3.487C30.915,11.574,30.937,11.85,30.937,12.229z"/>
</g>
</svg>
